  0
SECTION
  2
HEADER
  9
$ACADVER
  1
AC1024
  9
$ACADMAINTVER
 70
6
  9
$DWGCODEPAGE
  3
ANSI_1252
  9
$LASTSAVEDBY
  1
ezdxf
  9
$INSBASE
 10
0.0
 20
0.0
 30
0.0
  9
$EXTMIN
 10
1e+20
 20
1e+20
 30
1e+20
  9
$EXTMAX
 10
-1e+20
 20
-1e+20
 30
-1e+20
  9
$LIMMIN
 10
0.0
 20
0.0
  9
$LIMMAX
 10
420.0
 20
297.0
  9
$ORTHOMODE
 70
0
  9
$REGENMODE
 70
1
  9
$FILLMODE
 70
1
  9
$QTEXTMODE
 70
0
  9
$MIRRTEXT
 70
1
  9
$LTSCALE
 40
1.0
  9
$ATTMODE
 70
1
  9
$TEXTSIZE
 40
2.5
  9
$TRACEWID
 40
1.0
  9
$TEXTSTYLE
  7
Standard
  9
$CLAYER
  8
0
  9
$CELTYPE
  6
ByLayer
  9
$CECOLOR
 62
256
  9
$CELTSCALE
 40
1.0
  9
$DISPSILH
 70
0
  9
$DIMSCALE
 40
1.0
  9
$DIMASZ
 40
2.5
  9
$DIMEXO
 40
0.625
  9
$DIMDLI
 40
3.75
  9
$DIMRND
 40
0.0
  9
$DIMDLE
 40
0.0
  9
$DIMEXE
 40
1.25
  9
$DIMTP
 40
0.0
  9
$DIMTM
 40
0.0
  9
$DIMTXT
 40
2.5
  9
$DIMCEN
 40
2.5
  9
$DIMTSZ
 40
0.0
  9
$DIMTOL
 70
0
  9
$DIMLIM
 70
0
  9
$DIMTIH
 70
0
  9
$DIMTOH
 70
0
  9
$DIMSE1
 70
0
  9
$DIMSE2
 70
0
  9
$DIMTAD
 70
1
  9
$DIMZIN
 70
8
  9
$DIMBLK
  1

  9
$DIMASO
 70
1
  9
$DIMSHO
 70
1
  9
$DIMPOST
  1

  9
$DIMAPOST
  1

  9
$DIMALT
 70
0
  9
$DIMALTD
 70
3
  9
$DIMALTF
 40
0.03937007874
  9
$DIMLFAC
 40
1.0
  9
$DIMTOFL
 70
1
  9
$DIMTVP
 40
0.0
  9
$DIMTIX
 70
0
  9
$DIMSOXD
 70
0
  9
$DIMSAH
 70
0
  9
$DIMBLK1
  1

  9
$DIMBLK2
  1

  9
$DIMSTYLE
  2
ISO-25
  9
$DIMCLRD
 70
0
  9
$DIMCLRE
 70
0
  9
$DIMCLRT
 70
0
  9
$DIMTFAC
 40
1.0
  9
$DIMGAP
 40
0.625
  9
$DIMJUST
 70
0
  9
$DIMSD1
 70
0
  9
$DIMSD2
 70
0
  9
$DIMTOLJ
 70
0
  9
$DIMTZIN
 70
8
  9
$DIMALTZ
 70
0
  9
$DIMALTTZ
 70
0
  9
$DIMUPT
 70
0
  9
$DIMDEC
 70
2
  9
$DIMTDEC
 70
2
  9
$DIMALTU
 70
2
  9
$DIMALTTD
 70
3
  9
$DIMTXSTY
  7
Standard
  9
$DIMAUNIT
 70
0
  9
$DIMADEC
 70
0
  9
$DIMALTRND
 40
0.0
  9
$DIMAZIN
 70
0
  9
$DIMDSEP
 70
44
  9
$DIMATFIT
 70
3
  9
$DIMFRAC
 70
0
  9
$DIMLDRBLK
  1

  9
$DIMLUNIT
 70
2
  9
$DIMLWD
 70
-2
  9
$DIMLWE
 70
-2
  9
$DIMTMOVE
 70
0
  9
$DIMFXL
 40
1.0
  9
$DIMFXLON
 70
0
  9
$DIMJOGANG
 40
0.785398163397
  9
$DIMTFILL
 70
0
  9
$DIMTFILLCLR
 70
0
  9
$DIMARCSYM
 70
0
  9
$DIMLTYPE
  6

  9
$DIMLTEX1
  6

  9
$DIMLTEX2
  6

  9
$DIMTXTDIRECTION
 70
0
  9
$LUNITS
 70
2
  9
$LUPREC
 70
4
  9
$SKETCHINC
 40
1.0
  9
$FILLETRAD
 40
10.0
  9
$AUNITS
 70
0
  9
$AUPREC
 70
2
  9
$MENU
  1
.
  9
$ELEVATION
 40
0.0
  9
$PELEVATION
 40
0.0
  9
$THICKNESS
 40
0.0
  9
$LIMCHECK
 70
0
  9
$CHAMFERA
 40
0.0
  9
$CHAMFERB
 40
0.0
  9
$CHAMFERC
 40
0.0
  9
$CHAMFERD
 40
0.0
  9
$SKPOLY
 70
0
  9
$TDCREATE
 40
2461203.4009837965
  9
$TDUCREATE
 40
2458532.153996898
  9
$TDUPDATE
 40
2461203.4009953705
  9
$TDUUPDATE
 40
2458532.1544311
  9
$TDINDWG
 40
0.0
  9
$TDUSRTIMER
 40
0.0
  9
$USRTIMER
 70
1
  9
$ANGBASE
 50
0.0
  9
$ANGDIR
 70
0
  9
$PDMODE
 70
0
  9
$PDSIZE
 40
0.0
  9
$PLINEWID
 40
0.0
  9
$SPLFRAME
 70
0
  9
$SPLINETYPE
 70
6
  9
$SPLINESEGS
 70
8
  9
$HANDSEED
  5
77
  9
$SURFTAB1
 70
6
  9
$SURFTAB2
 70
6
  9
$SURFTYPE
 70
6
  9
$SURFU
 70
6
  9
$SURFV
 70
6
  9
$UCSBASE
  2

  9
$UCSNAME
  2

  9
$UCSORG
 10
0.0
 20
0.0
 30
0.0
  9
$UCSXDIR
 10
1.0
 20
0.0
 30
0.0
  9
$UCSYDIR
 10
0.0
 20
1.0
 30
0.0
  9
$UCSORTHOREF
  2

  9
$UCSORTHOVIEW
 70
0
  9
$UCSORGTOP
 10
0.0
 20
0.0
 30
0.0
  9
$UCSORGBOTTOM
 10
0.0
 20
0.0
 30
0.0
  9
$UCSORGLEFT
 10
0.0
 20
0.0
 30
0.0
  9
$UCSORGRIGHT
 10
0.0
 20
0.0
 30
0.0
  9
$UCSORGFRONT
 10
0.0
 20
0.0
 30
0.0
  9
$UCSORGBACK
 10
0.0
 20
0.0
 30
0.0
  9
$PUCSBASE
  2

  9
$PUCSNAME
  2

  9
$PUCSORG
 10
0.0
 20
0.0
 30
0.0
  9
$PUCSXDIR
 10
1.0
 20
0.0
 30
0.0
  9
$PUCSYDIR
 10
0.0
 20
1.0
 30
0.0
  9
$PUCSORTHOREF
  2

  9
$PUCSORTHOVIEW
 70
0
  9
$PUCSORGTOP
 10
0.0
 20
0.0
 30
0.0
  9
$PUCSORGBOTTOM
 10
0.0
 20
0.0
 30
0.0
  9
$PUCSORGLEFT
 10
0.0
 20
0.0
 30
0.0
  9
$PUCSORGRIGHT
 10
0.0
 20
0.0
 30
0.0
  9
$PUCSORGFRONT
 10
0.0
 20
0.0
 30
0.0
  9
$PUCSORGBACK
 10
0.0
 20
0.0
 30
0.0
  9
$USERI1
 70
0
  9
$USERI2
 70
0
  9
$USERI3
 70
0
  9
$USERI4
 70
0
  9
$USERI5
 70
0
  9
$USERR1
 40
0.0
  9
$USERR2
 40
0.0
  9
$USERR3
 40
0.0
  9
$USERR4
 40
0.0
  9
$USERR5
 40
0.0
  9
$WORLDVIEW
 70
1
  9
$SHADEDGE
 70
3
  9
$SHADEDIF
 70
70
  9
$TILEMODE
 70
1
  9
$MAXACTVP
 70
64
  9
$PINSBASE
 10
0.0
 20
0.0
 30
0.0
  9
$PLIMCHECK
 70
0
  9
$PEXTMIN
 10
1e+20
 20
1e+20
 30
1e+20
  9
$PEXTMAX
 10
-1e+20
 20
-1e+20
 30
-1e+20
  9
$PLIMMIN
 10
0.0
 20
0.0
  9
$PLIMMAX
 10
420.0
 20
297.0
  9
$UNITMODE
 70
0
  9
$VISRETAIN
 70
1
  9
$PLINEGEN
 70
0
  9
$PSLTSCALE
 70
1
  9
$TREEDEPTH
 70
3020
  9
$CMLSTYLE
  2
Standard
  9
$CMLJUST
 70
0
  9
$CMLSCALE
 40
20.0
  9
$PROXYGRAPHICS
 70
1
  9
$MEASUREMENT
 70
1
  9
$CELWEIGHT
370
-1
  9
$ENDCAPS
280
0
  9
$JOINSTYLE
280
0
  9
$LWDISPLAY
290
0
  9
$INSUNITS
 70
4
  9
$HYPERLINKBASE
  1

  9
$STYLESHEET
  1

  9
$XEDIT
290
1
  9
$CEPSNTYPE
380
0
  9
$PSTYLEMODE
290
1
  9
$FINGERPRINTGUID
  2
{2CE3A8AD-2C77-4920-9998-C095477D8364}
  9
$VERSIONGUID
  2
{88ED2F4A-B7D1-46D8-8705-48E5BB36DE54}
  9
$EXTNAMES
290
1
  9
$PSVPSCALE
 40
0.0
  9
$OLESTARTUP
290
0
  9
$SORTENTS
280
127
  9
$INDEXCTL
280
0
  9
$HIDETEXT
280
1
  9
$XCLIPFRAME
280
1
  9
$HALOGAP
280
0
  9
$OBSCOLOR
 70
257
  9
$OBSLTYPE
280
0
  9
$INTERSECTIONDISPLAY
280
0
  9
$INTERSECTIONCOLOR
 70
257
  9
$DIMASSOC
280
2
  9
$PROJECTNAME
  1

  9
$CAMERADISPLAY
290
0
  9
$LENSLENGTH
 40
50.0
  9
$CAMERAHEIGHT
 40
0.0
  9
$STEPSPERSEC
 40
24.0
  9
$STEPSIZE
 40
100.0
  9
$3DDWFPREC
 40
2.0
  9
$PSOLWIDTH
 40
0.005
  9
$PSOLHEIGHT
 40
0.08
  9
$LOFTANG1
 40
1.570796326795
  9
$LOFTANG2
 40
1.570796326795
  9
$LOFTMAG1
 40
0.0
  9
$LOFTMAG2
 40
0.0
  9
$LOFTPARAM
 70
7
  9
$LOFTNORMALS
280
1
  9
$LATITUDE
 40
37.795
  9
$LONGITUDE
 40
-122.394
  9
$NORTHDIRECTION
 40
0.0
  9
$TIMEZONE
 70
-8000
  9
$LIGHTGLYPHDISPLAY
280
1
  9
$TILEMODELIGHTSYNCH
280
1
  9
$CMATERIAL
347
20
  9
$SOLIDHIST
280
0
  9
$SHOWHIST
280
1
  9
$DWFFRAME
280
2
  9
$DGNFRAME
280
2
  9
$REALWORLDSCALE
290
1
  9
$INTERFERECOLOR
 62
256
  9
$CSHADOW
280
0
  9
$SHADOWPLANELOCATION
 40
0.0
  0
ENDSEC
  0
SECTION
  2
CLASSES
  0
CLASS
  1
ACDBDICTIONARYWDFLT
  2
AcDbDictionaryWithDefault
  3
ObjectDBX Classes
 90
0
 91
0
280
0
281
0
  0
CLASS
  1
SUN
  2
AcDbSun
  3
SCENEOE
 90
1153
 91
0
280
0
281
0
  0
CLASS
  1
VISUALSTYLE
  2
AcDbVisualStyle
  3
ObjectDBX Classes
 90
4095
 91
0
280
0
281
0
  0
CLASS
  1
MATERIAL
  2
AcDbMaterial
  3
ObjectDBX Classes
 90
1153
 91
0
280
0
281
0
  0
CLASS
  1
SCALE
  2
AcDbScale
  3
ObjectDBX Classes
 90
1153
 91
0
280
0
281
0
  0
CLASS
  1
TABLESTYLE
  2
AcDbTableStyle
  3
ObjectDBX Classes
 90
4095
 91
0
280
0
281
0
  0
CLASS
  1
MLEADERSTYLE
  2
AcDbMLeaderStyle
  3
ACDB_MLEADERSTYLE_CLASS
 90
4095
 91
0
280
0
281
0
  0
CLASS
  1
DICTIONARYVAR
  2
AcDbDictionaryVar
  3
ObjectDBX Classes
 90
0
 91
0
280
0
281
0
  0
CLASS
  1
CELLSTYLEMAP
  2
AcDbCellStyleMap
  3
ObjectDBX Classes
 90
1152
 91
0
280
0
281
0
  0
CLASS
  1
MENTALRAYRENDERSETTINGS
  2
AcDbMentalRayRenderSettings
  3
SCENEOE
 90
1024
 91
0
280
0
281
0
  0
CLASS
  1
ACDBDETAILVIEWSTYLE
  2
AcDbDetailViewStyle
  3
ObjectDBX Classes
 90
1025
 91
0
280
0
281
0
  0
CLASS
  1
ACDBSECTIONVIEWSTYLE
  2
AcDbSectionViewStyle
  3
ObjectDBX Classes
 90
1025
 91
0
280
0
281
0
  0
CLASS
  1
RASTERVARIABLES
  2
AcDbRasterVariables
  3
ISM
 90
0
 91
0
280
0
281
0
  0
CLASS
  1
ACDBPLACEHOLDER
  2
AcDbPlaceHolder
  3
ObjectDBX Classes
 90
0
 91
0
280
0
281
0
  0
CLASS
  1
LAYOUT
  2
AcDbLayout
  3
ObjectDBX Classes
 90
0
 91
0
280
0
281
0
  0
ENDSEC
  0
SECTION
  2
TABLES
  0
TABLE
  2
VPORT
  5
8
330
0
100
AcDbSymbolTable
 70
1
  0
VPORT
  5
23
330
8
100
AcDbSymbolTableRecord
100
AcDbViewportTableRecord
  2
*Active
 70
0
 10
0.0
 20
0.0
 11
1.0
 21
1.0
 12
0.0
 22
0.0
 13
0.0
 23
0.0
 14
0.5
 24
0.5
 15
0.5
 25
0.5
 16
0.0
 26
0.0
 36
1.0
 17
0.0
 27
0.0
 37
0.0
 40
1000.0
 41
1.34
 42
50.0
 43
0.0
 44
0.0
 50
0.0
 51
0.0
 71
0
 72
1000
 73
1
 74
3
 75
0
 76
0
 77
0
 78
0
281
0
 65
0
146
0.0
  0
ENDTAB
  0
TABLE
  2
LTYPE
  5
2
330
0
100
AcDbSymbolTable
 70
4
  0
LTYPE
  5
24
330
2
100
AcDbSymbolTableRecord
100
AcDbLinetypeTableRecord
  2
ByBlock
 70
0
  3

 72
65
 73
0
 40
0.0
  0
LTYPE
  5
25
330
2
100
AcDbSymbolTableRecord
100
AcDbLinetypeTableRecord
  2
ByLayer
 70
0
  3

 72
65
 73
0
 40
0.0
  0
LTYPE
  5
26
330
2
100
AcDbSymbolTableRecord
100
AcDbLinetypeTableRecord
  2
Continuous
 70
0
  3

 72
65
 73
0
 40
0.0
  0
LTYPE
  5
32
330
2
100
AcDbSymbolTableRecord
100
AcDbLinetypeTableRecord
  2
DASHED
 70
0
  3
Dashed __ __
 72
65
 73
2
 40
0.5
 49
0.25
 74
0
 49
-0.25
 74
0
  0
ENDTAB
  0
TABLE
  2
LAYER
  5
1
330
0
100
AcDbSymbolTable
 70
5
  0
LAYER
  5
27
330
1
100
AcDbSymbolTableRecord
100
AcDbLayerTableRecord
  2
0
 70
0
 62
7
  6
Continuous
370
-3
390
13
347
21
  0
LAYER
  5
28
330
1
100
AcDbSymbolTableRecord
100
AcDbLayerTableRecord
  2
Defpoints
 70
0
 62
7
  6
Continuous
290
0
370
-3
390
13
347
21
  0
LAYER
  5
2F
330
1
100
AcDbSymbolTableRecord
100
AcDbLayerTableRecord
  2
DRAWING
 70
0
 62
7
  6
Continuous
370
-3
390
13
347
21
  0
LAYER
  5
30
330
1
100
AcDbSymbolTableRecord
100
AcDbLayerTableRecord
  2
TEXT
 70
0
 62
7
  6
Continuous
370
-3
390
13
347
21
  0
LAYER
  5
31
330
1
100
AcDbSymbolTableRecord
100
AcDbLayerTableRecord
  2
COIL_META
 70
0
 62
8
  6
Continuous
370
-3
390
13
347
21
  0
ENDTAB
  0
TABLE
  2
STYLE
  5
5
330
0
100
AcDbSymbolTable
 70
1
  0
STYLE
  5
29
330
5
100
AcDbSymbolTableRecord
100
AcDbTextStyleTableRecord
  2
Standard
 70
0
 40
0.0
 41
1.0
 50
0.0
 71
0
 42
2.5
  3
txt
  4

  0
ENDTAB
  0
TABLE
  2
VIEW
  5
7
330
0
100
AcDbSymbolTable
 70
0
  0
ENDTAB
  0
TABLE
  2
UCS
  5
6
330
0
100
AcDbSymbolTable
 70
0
  0
ENDTAB
  0
TABLE
  2
APPID
  5
3
330
0
100
AcDbSymbolTable
 70
3
  0
APPID
  5
2A
330
3
100
AcDbSymbolTableRecord
100
AcDbRegAppTableRecord
  2
ACAD
 70
0
  0
APPID
  5
74
330
3
100
AcDbSymbolTableRecord
100
AcDbRegAppTableRecord
  2
HATCHBACKGROUNDCOLOR
 70
0
  0
APPID
  5
75
330
3
100
AcDbSymbolTableRecord
100
AcDbRegAppTableRecord
  2
EZDXF
 70
0
  0
ENDTAB
  0
TABLE
  2
DIMSTYLE
  5
4
330
0
100
AcDbSymbolTable
 70
1
100
AcDbDimStyleTable
  0
DIMSTYLE
105
2B
330
4
100
AcDbSymbolTableRecord
100
AcDbDimStyleTableRecord
  2
Standard
 70
0
 40
1.0
 41
2.5
 42
0.625
 43
3.75
 44
1.25
 45
0.0
 46
0.0
 47
0.0
 48
0.0
 49
2.5
140
2.5
141
2.5
142
0.0
143
0.03937007874
144
1.0
145
0.0
146
1.0
147
0.625
148
0.0
 69
0
 70
0
 71
0
 72
0
 73
0
 74
0
 75
0
 76
0
 77
1
 78
8
 79
3
170
0
171
3
172
1
173
0
174
0
175
0
176
0
177
0
178
0
179
2
271
2
272
2
273
2
274
3
275
0
276
0
277
2
278
44
279
0
280
0
281
0
282
0
283
0
284
8
285
0
286
0
288
0
289
3
290
0
371
-2
372
-2
  0
ENDTAB
  0
TABLE
  2
BLOCK_RECORD
  5
9
330
0
100
AcDbSymbolTable
 70
2
  0
BLOCK_RECORD
  5
17
330
9
100
AcDbSymbolTableRecord
100
AcDbBlockTableRecord
  2
*Model_Space
340
1A
 70
0
280
1
281
0
  0
BLOCK_RECORD
  5
1B
330
9
100
AcDbSymbolTableRecord
100
AcDbBlockTableRecord
  2
*Paper_Space
340
1E
 70
0
280
1
281
0
  0
ENDTAB
  0
ENDSEC
  0
SECTION
  2
BLOCKS
  0
BLOCK
  5
18
330
17
100
AcDbEntity
  8
0
100
AcDbBlockBegin
  2
*Model_Space
 70
0
 10
0.0
 20
0.0
 30
0.0
  3
*Model_Space
  1

  0
ENDBLK
  5
19
330
17
100
AcDbEntity
  8
0
100
AcDbBlockEnd
  0
BLOCK
  5
1C
330
1B
100
AcDbEntity
  8
0
100
AcDbBlockBegin
  2
*Paper_Space
 70
0
 10
0.0
 20
0.0
 30
0.0
  3
*Paper_Space
  1

  0
ENDBLK
  5
1D
330
1B
100
AcDbEntity
  8
0
100
AcDbBlockEnd
  0
ENDSEC
  0
SECTION
  2
ENTITIES
  0
LINE
  5
33
330
17
100
AcDbEntity
  8
DRAWING
  6
CONTINUOUS
420
1118481
100
AcDbLine
 10
80.0
 20
950.8571428571429
 30
0.0
 11
872.0
 21
950.8571428571429
 31
0.0
  0
LINE
  5
34
330
17
100
AcDbEntity
  8
DRAWING
  6
CONTINUOUS
420
1118481
100
AcDbLine
 10
872.0
 20
950.8571428571429
 30
0.0
 11
872.0
 21
250.0
 31
0.0
  0
LINE
  5
35
330
17
100
AcDbEntity
  8
DRAWING
  6
CONTINUOUS
420
1118481
100
AcDbLine
 10
872.0
 20
250.0
 30
0.0
 11
80.0
 21
250.0
 31
0.0
  0
LINE
  5
36
330
17
100
AcDbEntity
  8
DRAWING
  6
CONTINUOUS
420
1118481
100
AcDbLine
 10
80.0
 20
250.0
 30
0.0
 11
80.0
 21
950.8571428571429
 31
0.0
  0
LINE
  5
37
330
17
100
AcDbEntity
  8
DRAWING
  6
DASHED
420
8947848
100
AcDbLine
 10
80.0
 20
890.8571428571429
 30
0.0
 11
872.0
 21
890.8571428571429
 31
0.0
  0
LINE
  5
38
330
17
100
AcDbEntity
  8
DRAWING
  6
DASHED
420
8947848
100
AcDbLine
 10
80.0
 20
310.0
 30
0.0
 11
872.0
 21
310.0
 31
0.0
  0
LINE
  5
39
330
17
100
AcDbEntity
  8
DRAWING
  6
CONTINUOUS
420
5592405
100
AcDbLine
 10
80.0
 20
950.8571428571429
 30
0.0
 11
182.0
 21
950.8571428571429
 31
0.0
  0
LINE
  5
3A
330
17
100
AcDbEntity
  8
DRAWING
  6
CONTINUOUS
420
5592405
100
AcDbLine
 10
182.0
 20
950.8571428571429
 30
0.0
 11
182.0
 21
896.8571428571429
 31
0.0
  0
LINE
  5
3B
330
17
100
AcDbEntity
  8
DRAWING
  6
CONTINUOUS
420
5592405
100
AcDbLine
 10
182.0
 20
896.8571428571429
 30
0.0
 11
80.0
 21
896.8571428571429
 31
0.0
  0
LINE
  5
3C
330
17
100
AcDbEntity
  8
DRAWING
  6
CONTINUOUS
420
5592405
100
AcDbLine
 10
80.0
 20
896.8571428571429
 30
0.0
 11
80.0
 21
950.8571428571429
 31
0.0
  0
LINE
  5
3D
330
17
100
AcDbEntity
  8
DRAWING
  6
CONTINUOUS
420
5592405
100
AcDbLine
 10
770.0
 20
950.8571428571429
 30
0.0
 11
872.0
 21
950.8571428571429
 31
0.0
  0
LINE
  5
3E
330
17
100
AcDbEntity
  8
DRAWING
  6
CONTINUOUS
420
5592405
100
AcDbLine
 10
872.0
 20
950.8571428571429
 30
0.0
 11
872.0
 21
896.8571428571429
 31
0.0
  0
LINE
  5
3F
330
17
100
AcDbEntity
  8
DRAWING
  6
CONTINUOUS
420
5592405
100
AcDbLine
 10
872.0
 20
896.8571428571429
 30
0.0
 11
770.0
 21
896.8571428571429
 31
0.0
  0
LINE
  5
40
330
17
100
AcDbEntity
  8
DRAWING
  6
CONTINUOUS
420
5592405
100
AcDbLine
 10
770.0
 20
896.8571428571429
 30
0.0
 11
770.0
 21
950.8571428571429
 31
0.0
  0
LINE
  5
41
330
17
100
AcDbEntity
  8
DRAWING
  6
CONTINUOUS
420
5592405
100
AcDbLine
 10
80.0
 20
304.0
 30
0.0
 11
182.0
 21
304.0
 31
0.0
  0
LINE
  5
42
330
17
100
AcDbEntity
  8
DRAWING
  6
CONTINUOUS
420
5592405
100
AcDbLine
 10
182.0
 20
304.0
 30
0.0
 11
182.0
 21
250.0
 31
0.0
  0
LINE
  5
43
330
17
100
AcDbEntity
  8
DRAWING
  6
CONTINUOUS
420
5592405
100
AcDbLine
 10
182.0
 20
250.0
 30
0.0
 11
80.0
 21
250.0
 31
0.0
  0
LINE
  5
44
330
17
100
AcDbEntity
  8
DRAWING
  6
CONTINUOUS
420
5592405
100
AcDbLine
 10
80.0
 20
250.0
 30
0.0
 11
80.0
 21
304.0
 31
0.0
  0
LINE
  5
45
330
17
100
AcDbEntity
  8
DRAWING
  6
CONTINUOUS
420
5592405
100
AcDbLine
 10
770.0
 20
304.0
 30
0.0
 11
872.0
 21
304.0
 31
0.0
  0
LINE
  5
46
330
17
100
AcDbEntity
  8
DRAWING
  6
CONTINUOUS
420
5592405
100
AcDbLine
 10
872.0
 20
304.0
 30
0.0
 11
872.0
 21
250.0
 31
0.0
  0
LINE
  5
47
330
17
100
AcDbEntity
  8
DRAWING
  6
CONTINUOUS
420
5592405
100
AcDbLine
 10
872.0
 20
250.0
 30
0.0
 11
770.0
 21
250.0
 31
0.0
  0
LINE
  5
48
330
17
100
AcDbEntity
  8
DRAWING
  6
CONTINUOUS
420
5592405
100
AcDbLine
 10
770.0
 20
250.0
 30
0.0
 11
770.0
 21
304.0
 31
0.0
  0
LINE
  5
49
330
17
100
AcDbEntity
  8
DRAWING
  6
CONTINUOUS
420
1118481
100
AcDbLine
 10
80.0
 20
950.8571428571429
 30
0.0
 11
872.0
 21
950.8571428571429
 31
0.0
  0
LINE
  5
4A
330
17
100
AcDbEntity
  8
DRAWING
  6
CONTINUOUS
420
1118481
100
AcDbLine
 10
872.0
 20
950.8571428571429
 30
0.0
 11
872.0
 21
250.0
 31
0.0
  0
LINE
  5
4B
330
17
100
AcDbEntity
  8
DRAWING
  6
CONTINUOUS
420
1118481
100
AcDbLine
 10
872.0
 20
250.0
 30
0.0
 11
80.0
 21
250.0
 31
0.0
  0
LINE
  5
4C
330
17
100
AcDbEntity
  8
DRAWING
  6
CONTINUOUS
420
1118481
100
AcDbLine
 10
80.0
 20
250.0
 30
0.0
 11
80.0
 21
950.8571428571429
 31
0.0
  0
LWPOLYLINE
  5
4D
330
17
100
AcDbEntity
  8
DRAWING
  6
CONTINUOUS
420
13378082
100
AcDbPolyline
 90
73
 70
1
 10
199.0
 20
920.8571428571429
 10
198.98858409427524
 20
920.5956756288999
 10
198.95442325903662
 20
920.3361983241421
 10
198.8977774788672
 20
920.0806857218354
 10
198.81907786235774
 20
919.8310824271659
 10
198.71892336110994
 20
919.5892880719208
 10
198.59807621135332
 20
919.3571428571429
 10
198.45745613286698
 20
919.1364135480898
 10
198.29813332935692
 20
918.9287800280832
 10
198.12132034355966
 20
918.7358225135832
 10
197.9283628290596
 20
918.559009527786
 10
197.72072930905313
 20
918.3996867242759
 10
197.5
 20
918.2590666457895
 10
197.26785478522208
 20
918.1382194960329
 10
197.026060429977
 20
918.0380649947851
 10
196.77645713530757
 20
917.9593653782757
 10
196.52094453300077
 20
917.9027195981063
 10
196.26146722824296
 20
917.8685587628677
 10
196.0
 20
917.8571428571429
 10
195.73853277175704
 20
917.8685587628677
 10
195.47905546699923
 20
917.9027195981063
 10
195.22354286469243
 20
917.9593653782757
 10
194.973939570023
 20
918.0380649947851
 10
194.73214521477792
 20
918.1382194960329
 10
194.5
 20
918.2590666457895
 10
194.27927069094687
 20
918.3996867242759
 10
194.0716371709404
 20
918.559009527786
 10
193.87867965644034
 20
918.7358225135832
 10
193.70186667064308
 20
918.9287800280832
 10
193.54254386713302
 20
919.1364135480898
 10
193.40192378864668
 20
919.3571428571429
 10
193.28107663889006
 20
919.5892880719208
 10
193.18092213764226
 20
919.8310824271659
 10
193.1022225211328
 20
920.0806857218354
 10
193.04557674096338
 20
920.3361983241421
 10
193.01141590572476
 20
920.5956756288999
 10
193.0
 20
920.8571428571429
 10
193.01141590572476
 20
921.1186100853859
 10
193.04557674096338
 20
921.3780873901437
 10
193.1022225211328
 20
921.6335999924504
 10
193.18092213764226
 20
921.8832032871198
 10
193.28107663889006
 20
922.124997642365
 10
193.40192378864668
 20
922.3571428571429
 10
193.54254386713302
 20
922.577872166196
 10
193.70186667064308
 20
922.7855056862024
 10
193.87867965644034
 20
922.9784632007025
 10
194.0716371709404
 20
923.1552761864998
 10
194.27927069094687
 20
923.3145989900099
 10
194.5
 20
923.4552190684963
 10
194.73214521477792
 20
923.5760662182529
 10
194.973939570023
 20
923.6762207195006
 10
195.22354286469243
 20
923.7549203360101
 10
195.47905546699923
 20
923.8115661161795
 10
195.73853277175704
 20
923.8457269514181
 10
196.0
 20
923.8571428571429
 10
196.26146722824296
 20
923.8457269514181
 10
196.52094453300077
 20
923.8115661161795
 10
196.77645713530757
 20
923.7549203360101
 10
197.026060429977
 20
923.6762207195006
 10
197.26785478522208
 20
923.5760662182529
 10
197.5
 20
923.4552190684963
 10
197.72072930905313
 20
923.3145989900099
 10
197.9283628290596
 20
923.1552761864998
 10
198.12132034355966
 20
922.9784632007025
 10
198.29813332935692
 20
922.7855056862026
 10
198.45745613286698
 20
922.577872166196
 10
198.59807621135332
 20
922.3571428571429
 10
198.71892336110994
 20
922.124997642365
 10
198.81907786235774
 20
921.8832032871198
 10
198.8977774788672
 20
921.6335999924504
 10
198.95442325903662
 20
921.3780873901437
 10
198.98858409427524
 20
921.1186100853859
 10
199.0
 20
920.8571428571429
  0
LWPOLYLINE
  5
4E
330
17
100
AcDbEntity
  8
DRAWING
  6
CONTINUOUS
420
13378082
100
AcDbPolyline
 90
73
 70
1
 10
199.0
 20
280.0
 10
198.98858409427524
 20
279.73853277175704
 10
198.95442325903662
 20
279.47905546699917
 10
198.8977774788672
 20
279.2235428646925
 10
198.81907786235774
 20
278.97393957002305
 10
198.71892336110994
 20
278.7321452147779
 10
198.59807621135332
 20
278.5
 10
198.45745613286698
 20
278.2792706909469
 10
198.29813332935692
 20
278.07163717094033
 10
198.12132034355966
 20
277.87867965644034
 10
197.9283628290596
 20
277.7018666706431
 10
197.72072930905313
 20
277.5425438671331
 10
197.5
 20
277.4019237886466
 10
197.26785478522208
 20
277.28107663889
 10
197.026060429977
 20
277.18092213764226
 10
196.77645713530757
 20
277.10222252113283
 10
196.52094453300077
 20
277.0455767409634
 10
196.26146722824296
 20
277.0114159057248
 10
196.0
 20
277.0
 10
195.73853277175704
 20
277.0114159057248
 10
195.47905546699923
 20
277.0455767409634
 10
195.22354286469243
 20
277.10222252113283
 10
194.973939570023
 20
277.18092213764226
 10
194.73214521477792
 20
277.28107663889
 10
194.5
 20
277.4019237886466
 10
194.27927069094687
 20
277.5425438671331
 10
194.0716371709404
 20
277.7018666706431
 10
193.87867965644034
 20
277.87867965644034
 10
193.70186667064308
 20
278.07163717094033
 10
193.54254386713302
 20
278.2792706909469
 10
193.40192378864668
 20
278.5
 10
193.28107663889006
 20
278.7321452147779
 10
193.18092213764226
 20
278.97393957002305
 10
193.1022225211328
 20
279.2235428646925
 10
193.04557674096338
 20
279.47905546699917
 10
193.01141590572476
 20
279.73853277175704
 10
193.0
 20
280.0
 10
193.01141590572476
 20
280.26146722824296
 10
193.04557674096338
 20
280.52094453300083
 10
193.1022225211328
 20
280.7764571353075
 10
193.18092213764226
 20
281.02606042997695
 10
193.28107663889006
 20
281.2678547852221
 10
193.40192378864668
 20
281.5
 10
193.54254386713302
 20
281.7207293090531
 10
193.70186667064308
 20
281.92836282905967
 10
193.87867965644034
 20
282.12132034355966
 10
194.0716371709404
 20
282.2981333293569
 10
194.27927069094687
 20
282.4574561328669
 10
194.5
 20
282.59807621135326
 10
194.73214521477792
 20
282.71892336111
 10
194.973939570023
 20
282.81907786235774
 10
195.22354286469243
 20
282.89777747886717
 10
195.47905546699923
 20
282.9544232590366
 10
195.73853277175704
 20
282.9885840942752
 10
196.0
 20
283.0
 10
196.26146722824296
 20
282.9885840942752
 10
196.52094453300077
 20
282.9544232590366
 10
196.77645713530757
 20
282.89777747886717
 10
197.026060429977
 20
282.81907786235774
 10
197.26785478522208
 20
282.71892336111
 10
197.5
 20
282.5980762113534
 10
197.72072930905313
 20
282.4574561328669
 10
197.9283628290596
 20
282.2981333293569
 10
198.12132034355966
 20
282.12132034355966
 10
198.29813332935692
 20
281.92836282905967
 10
198.45745613286698
 20
281.7207293090531
 10
198.59807621135332
 20
281.5
 10
198.71892336110994
 20
281.2678547852221
 10
198.81907786235774
 20
281.02606042997695
 10
198.8977774788672
 20
280.7764571353075
 10
198.95442325903662
 20
280.52094453300083
 10
198.98858409427524
 20
280.26146722824296
 10
199.0
 20
280.0
  0
LWPOLYLINE
  5
4F
330
17
100
AcDbEntity
  8
DRAWING
  6
CONTINUOUS
420
13378082
100
AcDbPolyline
 90
73
 70
1
 10
339.0
 20
920.8571428571429
 10
338.9885840942752
 20
920.5956756288999
 10
338.9544232590366
 20
920.3361983241421
 10
338.8977774788672
 20
920.0806857218354
 10
338.81907786235774
 20
919.8310824271659
 10
338.71892336110994
 20
919.5892880719208
 10
338.5980762113533
 20
919.3571428571429
 10
338.457456132867
 20
919.1364135480898
 10
338.2981333293569
 20
918.9287800280832
 10
338.12132034355966
 20
918.7358225135832
 10
337.9283628290596
 20
918.559009527786
 10
337.7207293090531
 20
918.3996867242759
 10
337.5
 20
918.2590666457895
 10
337.2678547852221
 20
918.1382194960329
 10
337.026060429977
 20
918.0380649947851
 10
336.77645713530757
 20
917.9593653782757
 10
336.5209445330008
 20
917.9027195981063
 10
336.26146722824296
 20
917.8685587628677
 10
336.0
 20
917.8571428571429
 10
335.73853277175704
 20
917.8685587628677
 10
335.47905546699917
 20
917.9027195981063
 10
335.22354286469243
 20
917.9593653782757
 10
334.973939570023
 20
918.0380649947851
 10
334.7321452147779
 20
918.1382194960329
 10
334.5
 20
918.2590666457895
 10
334.2792706909469
 20
918.3996867242759
 10
334.0716371709404
 20
918.559009527786
 10
333.87867965644034
 20
918.7358225135832
 10
333.7018666706431
 20
918.9287800280832
 10
333.542543867133
 20
919.1364135480898
 10
333.4019237886467
 20
919.3571428571429
 10
333.28107663889006
 20
919.5892880719208
 10
333.18092213764226
 20
919.8310824271659
 10
333.10222252113283
 20
920.0806857218354
 10
333.0455767409634
 20
920.3361983241421
 10
333.0114159057248
 20
920.5956756288999
 10
333.0
 20
920.8571428571429
 10
333.0114159057248
 20
921.1186100853859
 10
333.0455767409634
 20
921.3780873901437
 10
333.10222252113283
 20
921.6335999924504
 10
333.18092213764226
 20
921.8832032871198
 10
333.28107663889006
 20
922.124997642365
 10
333.4019237886467
 20
922.3571428571429
 10
333.542543867133
 20
922.577872166196
 10
333.7018666706431
 20
922.7855056862024
 10
333.87867965644034
 20
922.9784632007025
 10
334.0716371709404
 20
923.1552761864998
 10
334.2792706909469
 20
923.3145989900099
 10
334.5
 20
923.4552190684963
 10
334.7321452147779
 20
923.5760662182529
 10
334.973939570023
 20
923.6762207195006
 10
335.22354286469243
 20
923.7549203360101
 10
335.47905546699917
 20
923.8115661161795
 10
335.73853277175704
 20
923.8457269514181
 10
336.0
 20
923.8571428571429
 10
336.26146722824296
 20
923.8457269514181
 10
336.5209445330008
 20
923.8115661161795
 10
336.77645713530757
 20
923.7549203360101
 10
337.026060429977
 20
923.6762207195006
 10
337.2678547852221
 20
923.5760662182529
 10
337.5
 20
923.4552190684963
 10
337.7207293090531
 20
923.3145989900099
 10
337.9283628290596
 20
923.1552761864998
 10
338.12132034355966
 20
922.9784632007025
 10
338.2981333293569
 20
922.7855056862026
 10
338.457456132867
 20
922.577872166196
 10
338.5980762113533
 20
922.3571428571429
 10
338.71892336110994
 20
922.124997642365
 10
338.81907786235774
 20
921.8832032871198
 10
338.8977774788672
 20
921.6335999924504
 10
338.9544232590366
 20
921.3780873901437
 10
338.9885840942752
 20
921.1186100853859
 10
339.0
 20
920.8571428571429
  0
LWPOLYLINE
  5
50
330
17
100
AcDbEntity
  8
DRAWING
  6
CONTINUOUS
420
13378082
100
AcDbPolyline
 90
73
 70
1
 10
339.0
 20
280.0
 10
338.9885840942752
 20
279.73853277175704
 10
338.9544232590366
 20
279.47905546699917
 10
338.8977774788672
 20
279.2235428646925
 10
338.81907786235774
 20
278.97393957002305
 10
338.71892336110994
 20
278.7321452147779
 10
338.5980762113533
 20
278.5
 10
338.457456132867
 20
278.2792706909469
 10
338.2981333293569
 20
278.07163717094033
 10
338.12132034355966
 20
277.87867965644034
 10
337.9283628290596
 20
277.7018666706431
 10
337.7207293090531
 20
277.5425438671331
 10
337.5
 20
277.4019237886466
 10
337.2678547852221
 20
277.28107663889
 10
337.026060429977
 20
277.18092213764226
 10
336.77645713530757
 20
277.10222252113283
 10
336.5209445330008
 20
277.0455767409634
 10
336.26146722824296
 20
277.0114159057248
 10
336.0
 20
277.0
 10
335.73853277175704
 20
277.0114159057248
 10
335.47905546699917
 20
277.0455767409634
 10
335.22354286469243
 20
277.10222252113283
 10
334.973939570023
 20
277.18092213764226
 10
334.7321452147779
 20
277.28107663889
 10
334.5
 20
277.4019237886466
 10
334.2792706909469
 20
277.5425438671331
 10
334.0716371709404
 20
277.7018666706431
 10
333.87867965644034
 20
277.87867965644034
 10
333.7018666706431
 20
278.07163717094033
 10
333.542543867133
 20
278.2792706909469
 10
333.4019237886467
 20
278.5
 10
333.28107663889006
 20
278.7321452147779
 10
333.18092213764226
 20
278.97393957002305
 10
333.10222252113283
 20
279.2235428646925
 10
333.0455767409634
 20
279.47905546699917
 10
333.0114159057248
 20
279.73853277175704
 10
333.0
 20
280.0
 10
333.0114159057248
 20
280.26146722824296
 10
333.0455767409634
 20
280.52094453300083
 10
333.10222252113283
 20
280.7764571353075
 10
333.18092213764226
 20
281.02606042997695
 10
333.28107663889006
 20
281.2678547852221
 10
333.4019237886467
 20
281.5
 10
333.542543867133
 20
281.7207293090531
 10
333.7018666706431
 20
281.92836282905967
 10
333.87867965644034
 20
282.12132034355966
 10
334.0716371709404
 20
282.2981333293569
 10
334.2792706909469
 20
282.4574561328669
 10
334.5
 20
282.59807621135326
 10
334.7321452147779
 20
282.71892336111
 10
334.973939570023
 20
282.81907786235774
 10
335.22354286469243
 20
282.89777747886717
 10
335.47905546699917
 20
282.9544232590366
 10
335.73853277175704
 20
282.9885840942752
 10
336.0
 20
283.0
 10
336.26146722824296
 20
282.9885840942752
 10
336.5209445330008
 20
282.9544232590366
 10
336.77645713530757
 20
282.89777747886717
 10
337.026060429977
 20
282.81907786235774
 10
337.2678547852221
 20
282.71892336111
 10
337.5
 20
282.5980762113534
 10
337.7207293090531
 20
282.4574561328669
 10
337.9283628290596
 20
282.2981333293569
 10
338.12132034355966
 20
282.12132034355966
 10
338.2981333293569
 20
281.92836282905967
 10
338.457456132867
 20
281.7207293090531
 10
338.5980762113533
 20
281.5
 10
338.71892336110994
 20
281.2678547852221
 10
338.81907786235774
 20
281.02606042997695
 10
338.8977774788672
 20
280.7764571353075
 10
338.9544232590366
 20
280.52094453300083
 10
338.9885840942752
 20
280.26146722824296
 10
339.0
 20
280.0
  0
LWPOLYLINE
  5
51
330
17
100
AcDbEntity
  8
DRAWING
  6
CONTINUOUS
420
13378082
100
AcDbPolyline
 90
73
 70
1
 10
479.0
 20
920.8571428571429
 10
478.9885840942752
 20
920.5956756288999
 10
478.9544232590366
 20
920.3361983241421
 10
478.8977774788672
 20
920.0806857218354
 10
478.81907786235774
 20
919.8310824271659
 10
478.71892336110994
 20
919.5892880719208
 10
478.5980762113533
 20
919.3571428571429
 10
478.457456132867
 20
919.1364135480898
 10
478.2981333293569
 20
918.9287800280832
 10
478.12132034355966
 20
918.7358225135832
 10
477.9283628290596
 20
918.559009527786
 10
477.7207293090531
 20
918.3996867242759
 10
477.5
 20
918.2590666457895
 10
477.2678547852221
 20
918.1382194960329
 10
477.026060429977
 20
918.0380649947851
 10
476.77645713530757
 20
917.9593653782757
 10
476.5209445330008
 20
917.9027195981063
 10
476.26146722824296
 20
917.8685587628677
 10
476.0
 20
917.8571428571429
 10
475.73853277175704
 20
917.8685587628677
 10
475.4790554669992
 20
917.9027195981063
 10
475.22354286469243
 20
917.9593653782757
 10
474.973939570023
 20
918.0380649947851
 10
474.7321452147779
 20
918.1382194960329
 10
474.5
 20
918.2590666457895
 10
474.2792706909469
 20
918.3996867242759
 10
474.0716371709404
 20
918.559009527786
 10
473.87867965644034
 20
918.7358225135832
 10
473.7018666706431
 20
918.9287800280832
 10
473.542543867133
 20
919.1364135480898
 10
473.4019237886467
 20
919.3571428571429
 10
473.28107663889006
 20
919.5892880719208
 10
473.18092213764226
 20
919.8310824271659
 10
473.1022225211328
 20
920.0806857218354
 10
473.0455767409634
 20
920.3361983241421
 10
473.0114159057248
 20
920.5956756288999
 10
473.0
 20
920.8571428571429
 10
473.0114159057248
 20
921.1186100853859
 10
473.0455767409634
 20
921.3780873901437
 10
473.1022225211328
 20
921.6335999924504
 10
473.18092213764226
 20
921.8832032871198
 10
473.28107663889006
 20
922.124997642365
 10
473.4019237886467
 20
922.3571428571429
 10
473.542543867133
 20
922.577872166196
 10
473.7018666706431
 20
922.7855056862024
 10
473.87867965644034
 20
922.9784632007025
 10
474.0716371709404
 20
923.1552761864998
 10
474.2792706909469
 20
923.3145989900099
 10
474.5
 20
923.4552190684963
 10
474.7321452147779
 20
923.5760662182529
 10
474.973939570023
 20
923.6762207195006
 10
475.22354286469243
 20
923.7549203360101
 10
475.4790554669992
 20
923.8115661161795
 10
475.73853277175704
 20
923.8457269514181
 10
476.0
 20
923.8571428571429
 10
476.26146722824296
 20
923.8457269514181
 10
476.5209445330008
 20
923.8115661161795
 10
476.77645713530757
 20
923.7549203360101
 10
477.026060429977
 20
923.6762207195006
 10
477.2678547852221
 20
923.5760662182529
 10
477.5
 20
923.4552190684963
 10
477.7207293090531
 20
923.3145989900099
 10
477.9283628290596
 20
923.1552761864998
 10
478.12132034355966
 20
922.9784632007025
 10
478.2981333293569
 20
922.7855056862026
 10
478.457456132867
 20
922.577872166196
 10
478.5980762113533
 20
922.3571428571429
 10
478.71892336110994
 20
922.124997642365
 10
478.81907786235774
 20
921.8832032871198
 10
478.8977774788672
 20
921.6335999924504
 10
478.9544232590366
 20
921.3780873901437
 10
478.9885840942752
 20
921.1186100853859
 10
479.0
 20
920.8571428571429
  0
LWPOLYLINE
  5
52
330
17
100
AcDbEntity
  8
DRAWING
  6
CONTINUOUS
420
13378082
100
AcDbPolyline
 90
73
 70
1
 10
479.0
 20
280.0
 10
478.9885840942752
 20
279.73853277175704
 10
478.9544232590366
 20
279.47905546699917
 10
478.8977774788672
 20
279.2235428646925
 10
478.81907786235774
 20
278.97393957002305
 10
478.71892336110994
 20
278.7321452147779
 10
478.5980762113533
 20
278.5
 10
478.457456132867
 20
278.2792706909469
 10
478.2981333293569
 20
278.07163717094033
 10
478.12132034355966
 20
277.87867965644034
 10
477.9283628290596
 20
277.7018666706431
 10
477.7207293090531
 20
277.5425438671331
 10
477.5
 20
277.4019237886466
 10
477.2678547852221
 20
277.28107663889
 10
477.026060429977
 20
277.18092213764226
 10
476.77645713530757
 20
277.10222252113283
 10
476.5209445330008
 20
277.0455767409634
 10
476.26146722824296
 20
277.0114159057248
 10
476.0
 20
277.0
 10
475.73853277175704
 20
277.0114159057248
 10
475.4790554669992
 20
277.0455767409634
 10
475.22354286469243
 20
277.10222252113283
 10
474.973939570023
 20
277.18092213764226
 10
474.7321452147779
 20
277.28107663889
 10
474.5
 20
277.4019237886466
 10
474.2792706909469
 20
277.5425438671331
 10
474.0716371709404
 20
277.7018666706431
 10
473.87867965644034
 20
277.87867965644034
 10
473.7018666706431
 20
278.07163717094033
 10
473.542543867133
 20
278.2792706909469
 10
473.4019237886467
 20
278.5
 10
473.28107663889006
 20
278.7321452147779
 10
473.18092213764226
 20
278.97393957002305
 10
473.1022225211328
 20
279.2235428646925
 10
473.0455767409634
 20
279.47905546699917
 10
473.0114159057248
 20
279.73853277175704
 10
473.0
 20
280.0
 10
473.0114159057248
 20
280.26146722824296
 10
473.0455767409634
 20
280.52094453300083
 10
473.1022225211328
 20
280.7764571353075
 10
473.18092213764226
 20
281.02606042997695
 10
473.28107663889006
 20
281.2678547852221
 10
473.4019237886467
 20
281.5
 10
473.542543867133
 20
281.7207293090531
 10
473.7018666706431
 20
281.92836282905967
 10
473.87867965644034
 20
282.12132034355966
 10
474.0716371709404
 20
282.2981333293569
 10
474.2792706909469
 20
282.4574561328669
 10
474.5
 20
282.59807621135326
 10
474.7321452147779
 20
282.71892336111
 10
474.973939570023
 20
282.81907786235774
 10
475.22354286469243
 20
282.89777747886717
 10
475.4790554669992
 20
282.9544232590366
 10
475.73853277175704
 20
282.9885840942752
 10
476.0
 20
283.0
 10
476.26146722824296
 20
282.9885840942752
 10
476.5209445330008
 20
282.9544232590366
 10
476.77645713530757
 20
282.89777747886717
 10
477.026060429977
 20
282.81907786235774
 10
477.2678547852221
 20
282.71892336111
 10
477.5
 20
282.5980762113534
 10
477.7207293090531
 20
282.4574561328669
 10
477.9283628290596
 20
282.2981333293569
 10
478.12132034355966
 20
282.12132034355966
 10
478.2981333293569
 20
281.92836282905967
 10
478.457456132867
 20
281.7207293090531
 10
478.5980762113533
 20
281.5
 10
478.71892336110994
 20
281.2678547852221
 10
478.81907786235774
 20
281.02606042997695
 10
478.8977774788672
 20
280.7764571353075
 10
478.9544232590366
 20
280.52094453300083
 10
478.9885840942752
 20
280.26146722824296
 10
479.0
 20
280.0
  0
LWPOLYLINE
  5
53
330
17
100
AcDbEntity
  8
DRAWING
  6
CONTINUOUS
420
13378082
100
AcDbPolyline
 90
73
 70
1
 10
619.0
 20
920.8571428571429
 10
618.9885840942752
 20
920.5956756288999
 10
618.9544232590366
 20
920.3361983241421
 10
618.8977774788672
 20
920.0806857218354
 10
618.8190778623577
 20
919.8310824271659
 10
618.71892336111
 20
919.5892880719208
 10
618.5980762113534
 20
919.3571428571429
 10
618.4574561328669
 20
919.1364135480898
 10
618.2981333293569
 20
918.9287800280832
 10
618.1213203435597
 20
918.7358225135832
 10
617.9283628290597
 20
918.559009527786
 10
617.7207293090531
 20
918.3996867242759
 10
617.5
 20
918.2590666457895
 10
617.2678547852221
 20
918.1382194960329
 10
617.026060429977
 20
918.0380649947851
 10
616.7764571353075
 20
917.9593653782757
 10
616.5209445330008
 20
917.9027195981063
 10
616.261467228243
 20
917.8685587628677
 10
616.0
 20
917.8571428571429
 10
615.738532771757
 20
917.8685587628677
 10
615.4790554669992
 20
917.9027195981063
 10
615.2235428646925
 20
917.9593653782757
 10
614.973939570023
 20
918.0380649947851
 10
614.7321452147779
 20
918.1382194960329
 10
614.5
 20
918.2590666457895
 10
614.2792706909469
 20
918.3996867242759
 10
614.0716371709403
 20
918.559009527786
 10
613.8786796564403
 20
918.7358225135832
 10
613.7018666706431
 20
918.9287800280832
 10
613.5425438671331
 20
919.1364135480898
 10
613.4019237886467
 20
919.3571428571429
 10
613.28107663889
 20
919.5892880719208
 10
613.1809221376423
 20
919.8310824271659
 10
613.1022225211328
 20
920.0806857218354
 10
613.0455767409634
 20
920.3361983241421
 10
613.0114159057248
 20
920.5956756288999
 10
613.0
 20
920.8571428571429
 10
613.0114159057248
 20
921.1186100853859
 10
613.0455767409634
 20
921.3780873901437
 10
613.1022225211328
 20
921.6335999924504
 10
613.1809221376423
 20
921.8832032871198
 10
613.28107663889
 20
922.124997642365
 10
613.4019237886466
 20
922.3571428571429
 10
613.5425438671331
 20
922.577872166196
 10
613.7018666706431
 20
922.7855056862024
 10
613.8786796564403
 20
922.9784632007025
 10
614.0716371709403
 20
923.1552761864998
 10
614.2792706909469
 20
923.3145989900099
 10
614.5
 20
923.4552190684963
 10
614.7321452147779
 20
923.5760662182529
 10
614.973939570023
 20
923.6762207195006
 10
615.2235428646925
 20
923.7549203360101
 10
615.4790554669992
 20
923.8115661161795
 10
615.738532771757
 20
923.8457269514181
 10
616.0
 20
923.8571428571429
 10
616.261467228243
 20
923.8457269514181
 10
616.5209445330008
 20
923.8115661161795
 10
616.7764571353075
 20
923.7549203360101
 10
617.026060429977
 20
923.6762207195006
 10
617.2678547852221
 20
923.5760662182529
 10
617.5
 20
923.4552190684963
 10
617.7207293090531
 20
923.3145989900099
 10
617.9283628290597
 20
923.1552761864998
 10
618.1213203435597
 20
922.9784632007025
 10
618.2981333293569
 20
922.7855056862026
 10
618.4574561328669
 20
922.577872166196
 10
618.5980762113534
 20
922.3571428571429
 10
618.71892336111
 20
922.124997642365
 10
618.8190778623577
 20
921.8832032871198
 10
618.8977774788672
 20
921.6335999924504
 10
618.9544232590366
 20
921.3780873901437
 10
618.9885840942752
 20
921.1186100853859
 10
619.0
 20
920.8571428571429
  0
LWPOLYLINE
  5
54
330
17
100
AcDbEntity
  8
DRAWING
  6
CONTINUOUS
420
13378082
100
AcDbPolyline
 90
73
 70
1
 10
619.0
 20
280.0
 10
618.9885840942752
 20
279.73853277175704
 10
618.9544232590366
 20
279.47905546699917
 10
618.8977774788672
 20
279.2235428646925
 10
618.8190778623577
 20
278.97393957002305
 10
618.71892336111
 20
278.7321452147779
 10
618.5980762113534
 20
278.5
 10
618.4574561328669
 20
278.2792706909469
 10
618.2981333293569
 20
278.07163717094033
 10
618.1213203435597
 20
277.87867965644034
 10
617.9283628290597
 20
277.7018666706431
 10
617.7207293090531
 20
277.5425438671331
 10
617.5
 20
277.4019237886466
 10
617.2678547852221
 20
277.28107663889
 10
617.026060429977
 20
277.18092213764226
 10
616.7764571353075
 20
277.10222252113283
 10
616.5209445330008
 20
277.0455767409634
 10
616.261467228243
 20
277.0114159057248
 10
616.0
 20
277.0
 10
615.738532771757
 20
277.0114159057248
 10
615.4790554669992
 20
277.0455767409634
 10
615.2235428646925
 20
277.10222252113283
 10
614.973939570023
 20
277.18092213764226
 10
614.7321452147779
 20
277.28107663889
 10
614.5
 20
277.4019237886466
 10
614.2792706909469
 20
277.5425438671331
 10
614.0716371709403
 20
277.7018666706431
 10
613.8786796564403
 20
277.87867965644034
 10
613.7018666706431
 20
278.07163717094033
 10
613.5425438671331
 20
278.2792706909469
 10
613.4019237886467
 20
278.5
 10
613.28107663889
 20
278.7321452147779
 10
613.1809221376423
 20
278.97393957002305
 10
613.1022225211328
 20
279.2235428646925
 10
613.0455767409634
 20
279.47905546699917
 10
613.0114159057248
 20
279.73853277175704
 10
613.0
 20
280.0
 10
613.0114159057248
 20
280.26146722824296
 10
613.0455767409634
 20
280.52094453300083
 10
613.1022225211328
 20
280.7764571353075
 10
613.1809221376423
 20
281.02606042997695
 10
613.28107663889
 20
281.2678547852221
 10
613.4019237886466
 20
281.5
 10
613.5425438671331
 20
281.7207293090531
 10
613.7018666706431
 20
281.92836282905967
 10
613.8786796564403
 20
282.12132034355966
 10
614.0716371709403
 20
282.2981333293569
 10
614.2792706909469
 20
282.4574561328669
 10
614.5
 20
282.59807621135326
 10
614.7321452147779
 20
282.71892336111
 10
614.973939570023
 20
282.81907786235774
 10
615.2235428646925
 20
282.89777747886717
 10
615.4790554669992
 20
282.9544232590366
 10
615.738532771757
 20
282.9885840942752
 10
616.0
 20
283.0
 10
616.261467228243
 20
282.9885840942752
 10
616.5209445330008
 20
282.9544232590366
 10
616.7764571353075
 20
282.89777747886717
 10
617.026060429977
 20
282.81907786235774
 10
617.2678547852221
 20
282.71892336111
 10
617.5
 20
282.5980762113534
 10
617.7207293090531
 20
282.4574561328669
 10
617.9283628290597
 20
282.2981333293569
 10
618.1213203435597
 20
282.12132034355966
 10
618.2981333293569
 20
281.92836282905967
 10
618.4574561328669
 20
281.7207293090531
 10
618.5980762113534
 20
281.5
 10
618.71892336111
 20
281.2678547852221
 10
618.8190778623577
 20
281.02606042997695
 10
618.8977774788672
 20
280.7764571353075
 10
618.9544232590366
 20
280.52094453300083
 10
618.9885840942752
 20
280.26146722824296
 10
619.0
 20
280.0
  0
LWPOLYLINE
  5
55
330
17
100
AcDbEntity
  8
DRAWING
  6
CONTINUOUS
420
13378082
100
AcDbPolyline
 90
73
 70
1
 10
759.0
 20
920.8571428571429
 10
758.9885840942752
 20
920.5956756288999
 10
758.9544232590366
 20
920.3361983241421
 10
758.8977774788672
 20
920.0806857218354
 10
758.8190778623577
 20
919.8310824271659
 10
758.71892336111
 20
919.5892880719208
 10
758.5980762113534
 20
919.3571428571429
 10
758.4574561328669
 20
919.1364135480898
 10
758.2981333293569
 20
918.9287800280832
 10
758.1213203435597
 20
918.7358225135832
 10
757.9283628290597
 20
918.559009527786
 10
757.7207293090531
 20
918.3996867242759
 10
757.5
 20
918.2590666457895
 10
757.2678547852221
 20
918.1382194960329
 10
757.026060429977
 20
918.0380649947851
 10
756.7764571353075
 20
917.9593653782757
 10
756.5209445330008
 20
917.9027195981063
 10
756.261467228243
 20
917.8685587628677
 10
756.0
 20
917.8571428571429
 10
755.738532771757
 20
917.8685587628677
 10
755.4790554669992
 20
917.9027195981063
 10
755.2235428646925
 20
917.9593653782757
 10
754.973939570023
 20
918.0380649947851
 10
754.7321452147779
 20
918.1382194960329
 10
754.5
 20
918.2590666457895
 10
754.2792706909469
 20
918.3996867242759
 10
754.0716371709403
 20
918.559009527786
 10
753.8786796564403
 20
918.7358225135832
 10
753.7018666706431
 20
918.9287800280832
 10
753.5425438671331
 20
919.1364135480898
 10
753.4019237886467
 20
919.3571428571429
 10
753.28107663889
 20
919.5892880719208
 10
753.1809221376423
 20
919.8310824271659
 10
753.1022225211328
 20
920.0806857218354
 10
753.0455767409634
 20
920.3361983241421
 10
753.0114159057248
 20
920.5956756288999
 10
753.0
 20
920.8571428571429
 10
753.0114159057248
 20
921.1186100853859
 10
753.0455767409634
 20
921.3780873901437
 10
753.1022225211328
 20
921.6335999924504
 10
753.1809221376423
 20
921.8832032871198
 10
753.28107663889
 20
922.124997642365
 10
753.4019237886466
 20
922.3571428571429
 10
753.5425438671331
 20
922.577872166196
 10
753.7018666706431
 20
922.7855056862024
 10
753.8786796564403
 20
922.9784632007025
 10
754.0716371709403
 20
923.1552761864998
 10
754.2792706909469
 20
923.3145989900099
 10
754.5
 20
923.4552190684963
 10
754.7321452147779
 20
923.5760662182529
 10
754.973939570023
 20
923.6762207195006
 10
755.2235428646925
 20
923.7549203360101
 10
755.4790554669992
 20
923.8115661161795
 10
755.738532771757
 20
923.8457269514181
 10
756.0
 20
923.8571428571429
 10
756.261467228243
 20
923.8457269514181
 10
756.5209445330008
 20
923.8115661161795
 10
756.7764571353075
 20
923.7549203360101
 10
757.026060429977
 20
923.6762207195006
 10
757.2678547852221
 20
923.5760662182529
 10
757.5
 20
923.4552190684963
 10
757.7207293090531
 20
923.3145989900099
 10
757.9283628290597
 20
923.1552761864998
 10
758.1213203435597
 20
922.9784632007025
 10
758.2981333293569
 20
922.7855056862026
 10
758.4574561328669
 20
922.577872166196
 10
758.5980762113534
 20
922.3571428571429
 10
758.71892336111
 20
922.124997642365
 10
758.8190778623577
 20
921.8832032871198
 10
758.8977774788672
 20
921.6335999924504
 10
758.9544232590366
 20
921.3780873901437
 10
758.9885840942752
 20
921.1186100853859
 10
759.0
 20
920.8571428571429
  0
LWPOLYLINE
  5
56
330
17
100
AcDbEntity
  8
DRAWING
  6
CONTINUOUS
420
13378082
100
AcDbPolyline
 90
73
 70
1
 10
759.0
 20
280.0
 10
758.9885840942752
 20
279.73853277175704
 10
758.9544232590366
 20
279.47905546699917
 10
758.8977774788672
 20
279.2235428646925
 10
758.8190778623577
 20
278.97393957002305
 10
758.71892336111
 20
278.7321452147779
 10
758.5980762113534
 20
278.5
 10
758.4574561328669
 20
278.2792706909469
 10
758.2981333293569
 20
278.07163717094033
 10
758.1213203435597
 20
277.87867965644034
 10
757.9283628290597
 20
277.7018666706431
 10
757.7207293090531
 20
277.5425438671331
 10
757.5
 20
277.4019237886466
 10
757.2678547852221
 20
277.28107663889
 10
757.026060429977
 20
277.18092213764226
 10
756.7764571353075
 20
277.10222252113283
 10
756.5209445330008
 20
277.0455767409634
 10
756.261467228243
 20
277.0114159057248
 10
756.0
 20
277.0
 10
755.738532771757
 20
277.0114159057248
 10
755.4790554669992
 20
277.0455767409634
 10
755.2235428646925
 20
277.10222252113283
 10
754.973939570023
 20
277.18092213764226
 10
754.7321452147779
 20
277.28107663889
 10
754.5
 20
277.4019237886466
 10
754.2792706909469
 20
277.5425438671331
 10
754.0716371709403
 20
277.7018666706431
 10
753.8786796564403
 20
277.87867965644034
 10
753.7018666706431
 20
278.07163717094033
 10
753.5425438671331
 20
278.2792706909469
 10
753.4019237886467
 20
278.5
 10
753.28107663889
 20
278.7321452147779
 10
753.1809221376423
 20
278.97393957002305
 10
753.1022225211328
 20
279.2235428646925
 10
753.0455767409634
 20
279.47905546699917
 10
753.0114159057248
 20
279.73853277175704
 10
753.0
 20
280.0
 10
753.0114159057248
 20
280.26146722824296
 10
753.0455767409634
 20
280.52094453300083
 10
753.1022225211328
 20
280.7764571353075
 10
753.1809221376423
 20
281.02606042997695
 10
753.28107663889
 20
281.2678547852221
 10
753.4019237886466
 20
281.5
 10
753.5425438671331
 20
281.7207293090531
 10
753.7018666706431
 20
281.92836282905967
 10
753.8786796564403
 20
282.12132034355966
 10
754.0716371709403
 20
282.2981333293569
 10
754.2792706909469
 20
282.4574561328669
 10
754.5
 20
282.59807621135326
 10
754.7321452147779
 20
282.71892336111
 10
754.973939570023
 20
282.81907786235774
 10
755.2235428646925
 20
282.89777747886717
 10
755.4790554669992
 20
282.9544232590366
 10
755.738532771757
 20
282.9885840942752
 10
756.0
 20
283.0
 10
756.261467228243
 20
282.9885840942752
 10
756.5209445330008
 20
282.9544232590366
 10
756.7764571353075
 20
282.89777747886717
 10
757.026060429977
 20
282.81907786235774
 10
757.2678547852221
 20
282.71892336111
 10
757.5
 20
282.5980762113534
 10
757.7207293090531
 20
282.4574561328669
 10
757.9283628290597
 20
282.2981333293569
 10
758.1213203435597
 20
282.12132034355966
 10
758.2981333293569
 20
281.92836282905967
 10
758.4574561328669
 20
281.7207293090531
 10
758.5980762113534
 20
281.5
 10
758.71892336111
 20
281.2678547852221
 10
758.8190778623577
 20
281.02606042997695
 10
758.8977774788672
 20
280.7764571353075
 10
758.9544232590366
 20
280.52094453300083
 10
758.9885840942752
 20
280.26146722824296
 10
759.0
 20
280.0
  0
LINE
  5
57
330
17
100
AcDbEntity
  8
DRAWING
  6
CONTINUOUS
420
14704640
100
AcDbLine
 10
80.0
 20
950.8571428571429
 30
0.0
 11
80.0
 21
980.8571428571429
 31
0.0
  0
LINE
  5
58
330
17
100
AcDbEntity
  8
DRAWING
  6
CONTINUOUS
420
14704640
100
AcDbLine
 10
872.0
 20
950.8571428571429
 30
0.0
 11
872.0
 21
980.8571428571429
 31
0.0
  0
LINE
  5
59
330
17
100
AcDbEntity
  8
DRAWING
  6
CONTINUOUS
420
14704640
100
AcDbLine
 10
80.0
 20
980.8571428571429
 30
0.0
 11
872.0
 21
980.8571428571429
 31
0.0
  0
LWPOLYLINE
  5
5A
330
17
100
AcDbEntity
  8
DRAWING
  6
CONTINUOUS
420
14704640
100
AcDbPolyline
 90
3
 70
1
 10
80.0
 20
980.8571428571429
 10
87.0
 20
983.6571428571428
 10
87.0
 20
978.0571428571429
  0
LWPOLYLINE
  5
5B
330
17
100
AcDbEntity
  8
DRAWING
  6
CONTINUOUS
420
14704640
100
AcDbPolyline
 90
3
 70
1
 10
872.0
 20
980.8571428571429
 10
865.0
 20
978.0571428571429
 10
865.0
 20
983.6571428571428
  0
TEXT
  5
5C
330
17
100
AcDbEntity
  8
TEXT
420
14704640
100
AcDbText
 10
476.0
 20
990.8571428571429
 30
0.0
 40
10.0
  1
792.0
 72
1
 11
476.0
 21
990.8571428571429
 31
0.0
100
AcDbText
 73
2
  0
LINE
  5
5D
330
17
100
AcDbEntity
  8
DRAWING
  6
CONTINUOUS
420
14704640
100
AcDbLine
 10
872.0
 20
950.8571428571429
 30
0.0
 11
904.0
 21
950.8571428571429
 31
0.0
  0
LINE
  5
5E
330
17
100
AcDbEntity
  8
DRAWING
  6
CONTINUOUS
420
14704640
100
AcDbLine
 10
872.0
 20
250.0
 30
0.0
 11
904.0
 21
250.0
 31
0.0
  0
LINE
  5
5F
330
17
100
AcDbEntity
  8
DRAWING
  6
CONTINUOUS
420
14704640
100
AcDbLine
 10
904.0
 20
950.8571428571429
 30
0.0
 11
904.0
 21
250.0
 31
0.0
  0
LWPOLYLINE
  5
60
330
17
100
AcDbEntity
  8
DRAWING
  6
CONTINUOUS
420
14704640
100
AcDbPolyline
 90
3
 70
1
 10
904.0
 20
950.8571428571429
 10
906.8
 20
943.8571428571429
 10
901.2
 20
943.8571428571429
  0
LWPOLYLINE
  5
61
330
17
100
AcDbEntity
  8
DRAWING
  6
CONTINUOUS
420
14704640
100
AcDbPolyline
 90
3
 70
1
 10
904.0
 20
250.0
 10
901.2
 20
257.0
 10
906.8
 20
257.0
  0
TEXT
  5
62
330
17
100
AcDbEntity
  8
TEXT
420
14704640
100
AcDbText
 10
916.0
 20
600.4285714285714
 30
0.0
 40
10.0
  1
700.9
 50
-90.0
 72
1
 11
916.0
 21
600.4285714285714
 31
0.0
100
AcDbText
 73
2
  0
LINE
  5
63
330
17
100
AcDbEntity
  8
DRAWING
  6
CONTINUOUS
420
14704640
100
AcDbLine
 10
770.0
 20
950.8571428571429
 30
0.0
 11
770.0
 21
1000.8571428571429
 31
0.0
  0
LINE
  5
64
330
17
100
AcDbEntity
  8
DRAWING
  6
CONTINUOUS
420
14704640
100
AcDbLine
 10
872.0
 20
950.8571428571429
 30
0.0
 11
872.0
 21
1000.8571428571429
 31
0.0
  0
LINE
  5
65
330
17
100
AcDbEntity
  8
DRAWING
  6
CONTINUOUS
420
14704640
100
AcDbLine
 10
770.0
 20
1000.8571428571429
 30
0.0
 11
872.0
 21
1000.8571428571429
 31
0.0
  0
LWPOLYLINE
  5
66
330
17
100
AcDbEntity
  8
DRAWING
  6
CONTINUOUS
420
14704640
100
AcDbPolyline
 90
3
 70
1
 10
770.0
 20
1000.8571428571429
 10
777.0
 20
1003.6571428571428
 10
777.0
 20
998.0571428571429
  0
LWPOLYLINE
  5
67
330
17
100
AcDbEntity
  8
DRAWING
  6
CONTINUOUS
420
14704640
100
AcDbPolyline
 90
3
 70
1
 10
872.0
 20
1000.8571428571429
 10
865.0
 20
998.0571428571429
 10
865.0
 20
1003.6571428571428
  0
TEXT
  5
68
330
17
100
AcDbEntity
  8
TEXT
420
14704640
100
AcDbText
 10
821.0
 20
1010.8571428571429
 30
0.0
 40
10.0
  1
102.0
 72
1
 11
821.0
 21
1010.8571428571429
 31
0.0
100
AcDbText
 73
2
  0
LINE
  5
69
330
17
100
AcDbEntity
  8
DRAWING
  6
CONTINUOUS
420
14704640
100
AcDbLine
 10
872.0
 20
950.8571428571429
 30
0.0
 11
937.0
 21
950.8571428571429
 31
0.0
  0
LINE
  5
6A
330
17
100
AcDbEntity
  8
DRAWING
  6
CONTINUOUS
420
14704640
100
AcDbLine
 10
872.0
 20
896.8571428571429
 30
0.0
 11
937.0
 21
896.8571428571429
 31
0.0
  0
LINE
  5
6B
330
17
100
AcDbEntity
  8
DRAWING
  6
CONTINUOUS
420
14704640
100
AcDbLine
 10
937.0
 20
950.8571428571429
 30
0.0
 11
937.0
 21
896.8571428571429
 31
0.0
  0
LWPOLYLINE
  5
6C
330
17
100
AcDbEntity
  8
DRAWING
  6
CONTINUOUS
420
14704640
100
AcDbPolyline
 90
3
 70
1
 10
937.0
 20
950.8571428571429
 10
939.8
 20
943.8571428571429
 10
934.2
 20
943.8571428571429
  0
LWPOLYLINE
  5
6D
330
17
100
AcDbEntity
  8
DRAWING
  6
CONTINUOUS
420
14704640
100
AcDbPolyline
 90
3
 70
1
 10
937.0
 20
896.8571428571429
 10
934.2
 20
903.8571428571429
 10
939.8
 20
903.8571428571429
  0
TEXT
  5
6E
330
17
100
AcDbEntity
  8
TEXT
420
14704640
100
AcDbText
 10
949.0
 20
923.8571428571429
 30
0.0
 40
10.0
  1
54.0
 50
-90.0
 72
1
 11
949.0
 21
923.8571428571429
 31
0.0
100
AcDbText
 73
2
  0
TEXT
  5
6F
330
17
100
AcDbEntity
  8
TEXT
420
14704640
100
AcDbText
 10
476.0
 20
968.8571428571429
 30
0.0
 40
8.0
  1
W = 600 + 2×((60+60)−4×6.0) = 792.0 mm
 72
1
 11
476.0
 21
968.8571428571429
 31
0.0
100
AcDbText
 73
2
  0
TEXT
  5
70
330
17
100
AcDbEntity
  8
TEXT
420
14704640
100
AcDbText
 10
476.0
 20
955.8571428571429
 30
0.0
 40
8.0
  1
H = (4444÷7.0−(7.0−2)×6.0)+2×60−4×6.0 = 700.9 mm
 72
1
 11
476.0
 21
955.8571428571429
 31
0.0
100
AcDbText
 73
2
  0
TEXT
  5
71
330
17
100
AcDbEntity
  8
TEXT
420
1118481
100
AcDbText
 10
476.0
 20
220.0
 30
0.0
 40
12.0
  1
BOTTOM PLATE  (25001232-BP)
 72
1
 11
476.0
 21
220.0
 31
0.0
100
AcDbText
 73
2
  0
LINE
  5
72
330
17
100
AcDbEntity
  8
DRAWING
  6
CONTINUOUS
420
1118481
100
AcDbLine
 10
411.0
 20
210.0
 30
0.0
 11
541.0
 21
210.0
 31
0.0
  0
TEXT
  5
73
330
17
100
AcDbEntity
  8
COIL_META
420
6710886
100
AcDbText
 10
0.0
 20
-1000000.0
 30
0.0
 40
2.5
  1
COIL_HELVIX_DIMS:{"bottom_plate":60.0,"coil_id":"25001232","coil_w":600.0,"fin_length":4444.0,"first_bend":60.0,"num_splits":7.0,"sheet_t":6.0}
100
AcDbText
  0
ENDSEC
  0
SECTION
  2
OBJECTS
  0
DICTIONARY
  5
A
330
0
100
AcDbDictionary
281
1
  3
ACAD_COLOR
350
B
  3
ACAD_GROUP
350
C
  3
ACAD_LAYOUT
350
D
  3
ACAD_MATERIAL
350
E
  3
ACAD_MLEADERSTYLE
350
F
  3
ACAD_MLINESTYLE
350
10
  3
ACAD_PLOTSETTINGS
350
11
  3
ACAD_PLOTSTYLENAME
350
12
  3
ACAD_SCALELIST
350
14
  3
ACAD_TABLESTYLE
350
15
  3
ACAD_VISUALSTYLE
350
16
  3
EZDXF_META
350
2D
  0
DICTIONARY
  5
B
330
A
100
AcDbDictionary
281
1
  0
DICTIONARY
  5
C
330
A
100
AcDbDictionary
281
1
  0
DICTIONARY
  5
D
330
A
100
AcDbDictionary
281
1
  3
Model
350
1A
  3
Layout1
350
1E
  0
DICTIONARY
  5
E
330
A
100
AcDbDictionary
281
1
  3
ByBlock
350
1F
  3
ByLayer
350
20
  3
Global
350
21
  0
DICTIONARY
  5
F
330
A
100
AcDbDictionary
281
1
  3
Standard
350
2C
  0
DICTIONARY
  5
10
330
A
100
AcDbDictionary
281
1
  3
Standard
350
22
  0
DICTIONARY
  5
11
330
A
100
AcDbDictionary
281
1
  0
ACDBDICTIONARYWDFLT
  5
12
330
A
100
AcDbDictionary
281
1
  3
Normal
350
13
100
AcDbDictionaryWithDefault
340
13
  0
ACDBPLACEHOLDER
  5
13
330
12
  0
DICTIONARY
  5
14
330
A
100
AcDbDictionary
281
1
  0
DICTIONARY
  5
15
330
A
100
AcDbDictionary
281
1
  0
DICTIONARY
  5
16
330
A
100
AcDbDictionary
281
1
  0
LAYOUT
  5
1A
330
D
100
AcDbPlotSettings
  1

  4
A3
  6

 40
7.5
 41
20.0
 42
7.5
 43
20.0
 44
420.0
 45
297.0
 46
0.0
 47
0.0
 48
0.0
 49
0.0
140
0.0
141
0.0
142
1.0
143
1.0
 70
1024
 72
1
 73
0
 74
5
  7

 75
16
 76
0
 77
2
 78
300
147
1.0
148
0.0
149
0.0
100
AcDbLayout
  1
Model
 70
1
 71
0
 10
0.0
 20
0.0
 11
420.0
 21
297.0
 12
0.0
 22
0.0
 32
0.0
 14
1e+20
 24
1e+20
 34
1e+20
 15
-1e+20
 25
-1e+20
 35
-1e+20
146
0.0
 13
0.0
 23
0.0
 33
0.0
 16
1.0
 26
0.0
 36
0.0
 17
0.0
 27
1.0
 37
0.0
 76
1
330
17
  0
LAYOUT
  5
1E
330
D
100
AcDbPlotSettings
  1

  4
A3
  6

 40
7.5
 41
20.0
 42
7.5
 43
20.0
 44
420.0
 45
297.0
 46
0.0
 47
0.0
 48
0.0
 49
0.0
140
0.0
141
0.0
142
1.0
143
1.0
 70
0
 72
1
 73
0
 74
5
  7

 75
16
 76
0
 77
2
 78
300
147
1.0
148
0.0
149
0.0
100
AcDbLayout
  1
Layout1
 70
1
 71
1
 10
0.0
 20
0.0
 11
420.0
 21
297.0
 12
0.0
 22
0.0
 32
0.0
 14
1e+20
 24
1e+20
 34
1e+20
 15
-1e+20
 25
-1e+20
 35
-1e+20
146
0.0
 13
0.0
 23
0.0
 33
0.0
 16
1.0
 26
0.0
 36
0.0
 17
0.0
 27
1.0
 37
0.0
 76
1
330
1B
  0
MATERIAL
  5
1F
102
{ACAD_REACTORS
330
E
102
}
330
E
100
AcDbMaterial
  1
ByBlock
  2

 70
0
 40
1.0
 71
1
 41
1.0
 91
-1023410177
 42
1.0
 72
1
  3

 73
1
 74
1
 75
1
 44
0.5
 73
0
 45
1.0
 46
1.0
 77
1
  4

 78
1
 79
1
170
1
 48
1.0
171
1
  6

172
1
173
1
174
1
140
1.0
141
1.0
175
1
  7

176
1
177
1
178
1
143
1.0
179
1
  8

270
1
271
1
272
1
145
1.0
146
1.0
273
1
  9

274
1
275
1
276
1
 42
1.0
 72
1
  3

 73
1
 74
1
 75
1
 94
63
  0
MATERIAL
  5
20
102
{ACAD_REACTORS
330
E
102
}
330
E
100
AcDbMaterial
  1
ByLayer
  2

 70
0
 40
1.0
 71
1
 41
1.0
 91
-1023410177
 42
1.0
 72
1
  3

 73
1
 74
1
 75
1
 44
0.5
 73
0
 45
1.0
 46
1.0
 77
1
  4

 78
1
 79
1
170
1
 48
1.0
171
1
  6

172
1
173
1
174
1
140
1.0
141
1.0
175
1
  7

176
1
177
1
178
1
143
1.0
179
1
  8

270
1
271
1
272
1
145
1.0
146
1.0
273
1
  9

274
1
275
1
276
1
 42
1.0
 72
1
  3

 73
1
 74
1
 75
1
 94
63
  0
MATERIAL
  5
21
102
{ACAD_REACTORS
330
E
102
}
330
E
100
AcDbMaterial
  1
Global
  2

 70
0
 40
1.0
 71
1
 41
1.0
 91
-1023410177
 42
1.0
 72
1
  3

 73
1
 74
1
 75
1
 44
0.5
 73
0
 45
1.0
 46
1.0
 77
1
  4

 78
1
 79
1
170
1
 48
1.0
171
1
  6

172
1
173
1
174
1
140
1.0
141
1.0
175
1
  7

176
1
177
1
178
1
143
1.0
179
1
  8

270
1
271
1
272
1
145
1.0
146
1.0
273
1
  9

274
1
275
1
276
1
 42
1.0
 72
1
  3

 73
1
 74
1
 75
1
 94
63
  0
MLINESTYLE
  5
22
102
{ACAD_REACTORS
330
10
102
}
330
10
100
AcDbMlineStyle
  2
Standard
 70
0
  3

 62
256
 51
90.0
 52
90.0
 71
2
 49
0.5
 62
256
  6
BYLAYER
 49
-0.5
 62
256
  6
BYLAYER
  0
MLEADERSTYLE
  5
2C
102
{ACAD_REACTORS
330
F
102
}
330
F
100
AcDbMLeaderStyle
179
2
170
2
171
1
172
0
 90
2
 40
0.0
 41
0.0
173
1
 91
-1056964608
 92
-2
290
1
 42
2.0
291
1
 43
8.0
  3
Standard
 44
4.0
300

342
29
174
1
175
1
176
0
178
1
 93
-1056964608
 45
4.0
292
0
297
0
 46
4.0
 94
-1056964608
 47
1.0
 49
1.0
140
1.0
294
1
141
0.0
177
0
142
1.0
295
0
296
0
143
3.75
271
0
272
9
273
9
  0
DICTIONARY
  5
2D
330
A
100
AcDbDictionary
280
1
281
1
  3
CREATED_BY_EZDXF
350
2E
  3
WRITTEN_BY_EZDXF
350
76
  0
DICTIONARYVAR
  5
2E
330
2D
100
DictionaryVariables
280
0
  1
1.4.3 @ 2026-06-11T17:37:25.966950+00:00
  0
DICTIONARYVAR
  5
76
330
2D
100
DictionaryVariables
280
0
  1
1.4.3 @ 2026-06-11T17:37:26.007117+00:00
  0
ENDSEC
  0
EOF
