  0
SECTION
  2
HEADER
  9
$ACADVER
  1
AC1024
  9
$ACADMAINTVER
 70
6
  9
$DWGCODEPAGE
  3
ANSI_1252
  9
$LASTSAVEDBY
  1
ezdxf
  9
$INSBASE
 10
0.0
 20
0.0
 30
0.0
  9
$EXTMIN
 10
1e+20
 20
1e+20
 30
1e+20
  9
$EXTMAX
 10
-1e+20
 20
-1e+20
 30
-1e+20
  9
$LIMMIN
 10
0.0
 20
0.0
  9
$LIMMAX
 10
420.0
 20
297.0
  9
$ORTHOMODE
 70
0
  9
$REGENMODE
 70
1
  9
$FILLMODE
 70
1
  9
$QTEXTMODE
 70
0
  9
$MIRRTEXT
 70
1
  9
$LTSCALE
 40
1.0
  9
$ATTMODE
 70
1
  9
$TEXTSIZE
 40
2.5
  9
$TRACEWID
 40
1.0
  9
$TEXTSTYLE
  7
Standard
  9
$CLAYER
  8
0
  9
$CELTYPE
  6
ByLayer
  9
$CECOLOR
 62
256
  9
$CELTSCALE
 40
1.0
  9
$DISPSILH
 70
0
  9
$DIMSCALE
 40
1.0
  9
$DIMASZ
 40
2.5
  9
$DIMEXO
 40
0.625
  9
$DIMDLI
 40
3.75
  9
$DIMRND
 40
0.0
  9
$DIMDLE
 40
0.0
  9
$DIMEXE
 40
1.25
  9
$DIMTP
 40
0.0
  9
$DIMTM
 40
0.0
  9
$DIMTXT
 40
2.5
  9
$DIMCEN
 40
2.5
  9
$DIMTSZ
 40
0.0
  9
$DIMTOL
 70
0
  9
$DIMLIM
 70
0
  9
$DIMTIH
 70
0
  9
$DIMTOH
 70
0
  9
$DIMSE1
 70
0
  9
$DIMSE2
 70
0
  9
$DIMTAD
 70
1
  9
$DIMZIN
 70
8
  9
$DIMBLK
  1

  9
$DIMASO
 70
1
  9
$DIMSHO
 70
1
  9
$DIMPOST
  1

  9
$DIMAPOST
  1

  9
$DIMALT
 70
0
  9
$DIMALTD
 70
3
  9
$DIMALTF
 40
0.03937007874
  9
$DIMLFAC
 40
1.0
  9
$DIMTOFL
 70
1
  9
$DIMTVP
 40
0.0
  9
$DIMTIX
 70
0
  9
$DIMSOXD
 70
0
  9
$DIMSAH
 70
0
  9
$DIMBLK1
  1

  9
$DIMBLK2
  1

  9
$DIMSTYLE
  2
ISO-25
  9
$DIMCLRD
 70
0
  9
$DIMCLRE
 70
0
  9
$DIMCLRT
 70
0
  9
$DIMTFAC
 40
1.0
  9
$DIMGAP
 40
0.625
  9
$DIMJUST
 70
0
  9
$DIMSD1
 70
0
  9
$DIMSD2
 70
0
  9
$DIMTOLJ
 70
0
  9
$DIMTZIN
 70
8
  9
$DIMALTZ
 70
0
  9
$DIMALTTZ
 70
0
  9
$DIMUPT
 70
0
  9
$DIMDEC
 70
2
  9
$DIMTDEC
 70
2
  9
$DIMALTU
 70
2
  9
$DIMALTTD
 70
3
  9
$DIMTXSTY
  7
Standard
  9
$DIMAUNIT
 70
0
  9
$DIMADEC
 70
0
  9
$DIMALTRND
 40
0.0
  9
$DIMAZIN
 70
0
  9
$DIMDSEP
 70
44
  9
$DIMATFIT
 70
3
  9
$DIMFRAC
 70
0
  9
$DIMLDRBLK
  1

  9
$DIMLUNIT
 70
2
  9
$DIMLWD
 70
-2
  9
$DIMLWE
 70
-2
  9
$DIMTMOVE
 70
0
  9
$DIMFXL
 40
1.0
  9
$DIMFXLON
 70
0
  9
$DIMJOGANG
 40
0.785398163397
  9
$DIMTFILL
 70
0
  9
$DIMTFILLCLR
 70
0
  9
$DIMARCSYM
 70
0
  9
$DIMLTYPE
  6

  9
$DIMLTEX1
  6

  9
$DIMLTEX2
  6

  9
$DIMTXTDIRECTION
 70
0
  9
$LUNITS
 70
2
  9
$LUPREC
 70
4
  9
$SKETCHINC
 40
1.0
  9
$FILLETRAD
 40
10.0
  9
$AUNITS
 70
0
  9
$AUPREC
 70
2
  9
$MENU
  1
.
  9
$ELEVATION
 40
0.0
  9
$PELEVATION
 40
0.0
  9
$THICKNESS
 40
0.0
  9
$LIMCHECK
 70
0
  9
$CHAMFERA
 40
0.0
  9
$CHAMFERB
 40
0.0
  9
$CHAMFERC
 40
0.0
  9
$CHAMFERD
 40
0.0
  9
$SKPOLY
 70
0
  9
$TDCREATE
 40
2461203.400289352
  9
$TDUCREATE
 40
2458532.153996898
  9
$TDUPDATE
 40
2461203.400289352
  9
$TDUUPDATE
 40
2458532.1544311
  9
$TDINDWG
 40
0.0
  9
$TDUSRTIMER
 40
0.0
  9
$USRTIMER
 70
1
  9
$ANGBASE
 50
0.0
  9
$ANGDIR
 70
0
  9
$PDMODE
 70
0
  9
$PDSIZE
 40
0.0
  9
$PLINEWID
 40
0.0
  9
$SPLFRAME
 70
0
  9
$SPLINETYPE
 70
6
  9
$SPLINESEGS
 70
8
  9
$HANDSEED
  5
8E
  9
$SURFTAB1
 70
6
  9
$SURFTAB2
 70
6
  9
$SURFTYPE
 70
6
  9
$SURFU
 70
6
  9
$SURFV
 70
6
  9
$UCSBASE
  2

  9
$UCSNAME
  2

  9
$UCSORG
 10
0.0
 20
0.0
 30
0.0
  9
$UCSXDIR
 10
1.0
 20
0.0
 30
0.0
  9
$UCSYDIR
 10
0.0
 20
1.0
 30
0.0
  9
$UCSORTHOREF
  2

  9
$UCSORTHOVIEW
 70
0
  9
$UCSORGTOP
 10
0.0
 20
0.0
 30
0.0
  9
$UCSORGBOTTOM
 10
0.0
 20
0.0
 30
0.0
  9
$UCSORGLEFT
 10
0.0
 20
0.0
 30
0.0
  9
$UCSORGRIGHT
 10
0.0
 20
0.0
 30
0.0
  9
$UCSORGFRONT
 10
0.0
 20
0.0
 30
0.0
  9
$UCSORGBACK
 10
0.0
 20
0.0
 30
0.0
  9
$PUCSBASE
  2

  9
$PUCSNAME
  2

  9
$PUCSORG
 10
0.0
 20
0.0
 30
0.0
  9
$PUCSXDIR
 10
1.0
 20
0.0
 30
0.0
  9
$PUCSYDIR
 10
0.0
 20
1.0
 30
0.0
  9
$PUCSORTHOREF
  2

  9
$PUCSORTHOVIEW
 70
0
  9
$PUCSORGTOP
 10
0.0
 20
0.0
 30
0.0
  9
$PUCSORGBOTTOM
 10
0.0
 20
0.0
 30
0.0
  9
$PUCSORGLEFT
 10
0.0
 20
0.0
 30
0.0
  9
$PUCSORGRIGHT
 10
0.0
 20
0.0
 30
0.0
  9
$PUCSORGFRONT
 10
0.0
 20
0.0
 30
0.0
  9
$PUCSORGBACK
 10
0.0
 20
0.0
 30
0.0
  9
$USERI1
 70
0
  9
$USERI2
 70
0
  9
$USERI3
 70
0
  9
$USERI4
 70
0
  9
$USERI5
 70
0
  9
$USERR1
 40
0.0
  9
$USERR2
 40
0.0
  9
$USERR3
 40
0.0
  9
$USERR4
 40
0.0
  9
$USERR5
 40
0.0
  9
$WORLDVIEW
 70
1
  9
$SHADEDGE
 70
3
  9
$SHADEDIF
 70
70
  9
$TILEMODE
 70
1
  9
$MAXACTVP
 70
64
  9
$PINSBASE
 10
0.0
 20
0.0
 30
0.0
  9
$PLIMCHECK
 70
0
  9
$PEXTMIN
 10
1e+20
 20
1e+20
 30
1e+20
  9
$PEXTMAX
 10
-1e+20
 20
-1e+20
 30
-1e+20
  9
$PLIMMIN
 10
0.0
 20
0.0
  9
$PLIMMAX
 10
420.0
 20
297.0
  9
$UNITMODE
 70
0
  9
$VISRETAIN
 70
1
  9
$PLINEGEN
 70
0
  9
$PSLTSCALE
 70
1
  9
$TREEDEPTH
 70
3020
  9
$CMLSTYLE
  2
Standard
  9
$CMLJUST
 70
0
  9
$CMLSCALE
 40
20.0
  9
$PROXYGRAPHICS
 70
1
  9
$MEASUREMENT
 70
1
  9
$CELWEIGHT
370
-1
  9
$ENDCAPS
280
0
  9
$JOINSTYLE
280
0
  9
$LWDISPLAY
290
0
  9
$INSUNITS
 70
4
  9
$HYPERLINKBASE
  1

  9
$STYLESHEET
  1

  9
$XEDIT
290
1
  9
$CEPSNTYPE
380
0
  9
$PSTYLEMODE
290
1
  9
$FINGERPRINTGUID
  2
{E0628C23-7E7E-4C90-8480-DA5EB985BC4F}
  9
$VERSIONGUID
  2
{1DEAFA0D-8185-4B80-8639-932961FE235F}
  9
$EXTNAMES
290
1
  9
$PSVPSCALE
 40
0.0
  9
$OLESTARTUP
290
0
  9
$SORTENTS
280
127
  9
$INDEXCTL
280
0
  9
$HIDETEXT
280
1
  9
$XCLIPFRAME
280
1
  9
$HALOGAP
280
0
  9
$OBSCOLOR
 70
257
  9
$OBSLTYPE
280
0
  9
$INTERSECTIONDISPLAY
280
0
  9
$INTERSECTIONCOLOR
 70
257
  9
$DIMASSOC
280
2
  9
$PROJECTNAME
  1

  9
$CAMERADISPLAY
290
0
  9
$LENSLENGTH
 40
50.0
  9
$CAMERAHEIGHT
 40
0.0
  9
$STEPSPERSEC
 40
24.0
  9
$STEPSIZE
 40
100.0
  9
$3DDWFPREC
 40
2.0
  9
$PSOLWIDTH
 40
0.005
  9
$PSOLHEIGHT
 40
0.08
  9
$LOFTANG1
 40
1.570796326795
  9
$LOFTANG2
 40
1.570796326795
  9
$LOFTMAG1
 40
0.0
  9
$LOFTMAG2
 40
0.0
  9
$LOFTPARAM
 70
7
  9
$LOFTNORMALS
280
1
  9
$LATITUDE
 40
37.795
  9
$LONGITUDE
 40
-122.394
  9
$NORTHDIRECTION
 40
0.0
  9
$TIMEZONE
 70
-8000
  9
$LIGHTGLYPHDISPLAY
280
1
  9
$TILEMODELIGHTSYNCH
280
1
  9
$CMATERIAL
347
20
  9
$SOLIDHIST
280
0
  9
$SHOWHIST
280
1
  9
$DWFFRAME
280
2
  9
$DGNFRAME
280
2
  9
$REALWORLDSCALE
290
1
  9
$INTERFERECOLOR
 62
256
  9
$CSHADOW
280
0
  9
$SHADOWPLANELOCATION
 40
0.0
  0
ENDSEC
  0
SECTION
  2
CLASSES
  0
CLASS
  1
ACDBDICTIONARYWDFLT
  2
AcDbDictionaryWithDefault
  3
ObjectDBX Classes
 90
0
 91
0
280
0
281
0
  0
CLASS
  1
SUN
  2
AcDbSun
  3
SCENEOE
 90
1153
 91
0
280
0
281
0
  0
CLASS
  1
VISUALSTYLE
  2
AcDbVisualStyle
  3
ObjectDBX Classes
 90
4095
 91
0
280
0
281
0
  0
CLASS
  1
MATERIAL
  2
AcDbMaterial
  3
ObjectDBX Classes
 90
1153
 91
0
280
0
281
0
  0
CLASS
  1
SCALE
  2
AcDbScale
  3
ObjectDBX Classes
 90
1153
 91
0
280
0
281
0
  0
CLASS
  1
TABLESTYLE
  2
AcDbTableStyle
  3
ObjectDBX Classes
 90
4095
 91
0
280
0
281
0
  0
CLASS
  1
MLEADERSTYLE
  2
AcDbMLeaderStyle
  3
ACDB_MLEADERSTYLE_CLASS
 90
4095
 91
0
280
0
281
0
  0
CLASS
  1
DICTIONARYVAR
  2
AcDbDictionaryVar
  3
ObjectDBX Classes
 90
0
 91
0
280
0
281
0
  0
CLASS
  1
CELLSTYLEMAP
  2
AcDbCellStyleMap
  3
ObjectDBX Classes
 90
1152
 91
0
280
0
281
0
  0
CLASS
  1
MENTALRAYRENDERSETTINGS
  2
AcDbMentalRayRenderSettings
  3
SCENEOE
 90
1024
 91
0
280
0
281
0
  0
CLASS
  1
ACDBDETAILVIEWSTYLE
  2
AcDbDetailViewStyle
  3
ObjectDBX Classes
 90
1025
 91
0
280
0
281
0
  0
CLASS
  1
ACDBSECTIONVIEWSTYLE
  2
AcDbSectionViewStyle
  3
ObjectDBX Classes
 90
1025
 91
0
280
0
281
0
  0
CLASS
  1
RASTERVARIABLES
  2
AcDbRasterVariables
  3
ISM
 90
0
 91
0
280
0
281
0
  0
CLASS
  1
ACDBPLACEHOLDER
  2
AcDbPlaceHolder
  3
ObjectDBX Classes
 90
0
 91
0
280
0
281
0
  0
CLASS
  1
LAYOUT
  2
AcDbLayout
  3
ObjectDBX Classes
 90
0
 91
0
280
0
281
0
  0
ENDSEC
  0
SECTION
  2
TABLES
  0
TABLE
  2
VPORT
  5
8
330
0
100
AcDbSymbolTable
 70
1
  0
VPORT
  5
23
330
8
100
AcDbSymbolTableRecord
100
AcDbViewportTableRecord
  2
*Active
 70
0
 10
0.0
 20
0.0
 11
1.0
 21
1.0
 12
0.0
 22
0.0
 13
0.0
 23
0.0
 14
0.5
 24
0.5
 15
0.5
 25
0.5
 16
0.0
 26
0.0
 36
1.0
 17
0.0
 27
0.0
 37
0.0
 40
1000.0
 41
1.34
 42
50.0
 43
0.0
 44
0.0
 50
0.0
 51
0.0
 71
0
 72
1000
 73
1
 74
3
 75
0
 76
0
 77
0
 78
0
281
0
 65
0
146
0.0
  0
ENDTAB
  0
TABLE
  2
LTYPE
  5
2
330
0
100
AcDbSymbolTable
 70
4
  0
LTYPE
  5
24
330
2
100
AcDbSymbolTableRecord
100
AcDbLinetypeTableRecord
  2
ByBlock
 70
0
  3

 72
65
 73
0
 40
0.0
  0
LTYPE
  5
25
330
2
100
AcDbSymbolTableRecord
100
AcDbLinetypeTableRecord
  2
ByLayer
 70
0
  3

 72
65
 73
0
 40
0.0
  0
LTYPE
  5
26
330
2
100
AcDbSymbolTableRecord
100
AcDbLinetypeTableRecord
  2
Continuous
 70
0
  3

 72
65
 73
0
 40
0.0
  0
LTYPE
  5
32
330
2
100
AcDbSymbolTableRecord
100
AcDbLinetypeTableRecord
  2
DASHED
 70
0
  3
Dashed __ __
 72
65
 73
2
 40
0.5
 49
0.25
 74
0
 49
-0.25
 74
0
  0
ENDTAB
  0
TABLE
  2
LAYER
  5
1
330
0
100
AcDbSymbolTable
 70
5
  0
LAYER
  5
27
330
1
100
AcDbSymbolTableRecord
100
AcDbLayerTableRecord
  2
0
 70
0
 62
7
  6
Continuous
370
-3
390
13
347
21
  0
LAYER
  5
28
330
1
100
AcDbSymbolTableRecord
100
AcDbLayerTableRecord
  2
Defpoints
 70
0
 62
7
  6
Continuous
290
0
370
-3
390
13
347
21
  0
LAYER
  5
2F
330
1
100
AcDbSymbolTableRecord
100
AcDbLayerTableRecord
  2
DRAWING
 70
0
 62
7
  6
Continuous
370
-3
390
13
347
21
  0
LAYER
  5
30
330
1
100
AcDbSymbolTableRecord
100
AcDbLayerTableRecord
  2
TEXT
 70
0
 62
7
  6
Continuous
370
-3
390
13
347
21
  0
LAYER
  5
31
330
1
100
AcDbSymbolTableRecord
100
AcDbLayerTableRecord
  2
COIL_META
 70
0
 62
8
  6
Continuous
370
-3
390
13
347
21
  0
ENDTAB
  0
TABLE
  2
STYLE
  5
5
330
0
100
AcDbSymbolTable
 70
1
  0
STYLE
  5
29
330
5
100
AcDbSymbolTableRecord
100
AcDbTextStyleTableRecord
  2
Standard
 70
0
 40
0.0
 41
1.0
 50
0.0
 71
0
 42
2.5
  3
txt
  4

  0
ENDTAB
  0
TABLE
  2
VIEW
  5
7
330
0
100
AcDbSymbolTable
 70
0
  0
ENDTAB
  0
TABLE
  2
UCS
  5
6
330
0
100
AcDbSymbolTable
 70
0
  0
ENDTAB
  0
TABLE
  2
APPID
  5
3
330
0
100
AcDbSymbolTable
 70
3
  0
APPID
  5
2A
330
3
100
AcDbSymbolTableRecord
100
AcDbRegAppTableRecord
  2
ACAD
 70
0
  0
APPID
  5
8B
330
3
100
AcDbSymbolTableRecord
100
AcDbRegAppTableRecord
  2
HATCHBACKGROUNDCOLOR
 70
0
  0
APPID
  5
8C
330
3
100
AcDbSymbolTableRecord
100
AcDbRegAppTableRecord
  2
EZDXF
 70
0
  0
ENDTAB
  0
TABLE
  2
DIMSTYLE
  5
4
330
0
100
AcDbSymbolTable
 70
1
100
AcDbDimStyleTable
  0
DIMSTYLE
105
2B
330
4
100
AcDbSymbolTableRecord
100
AcDbDimStyleTableRecord
  2
Standard
 70
0
 40
1.0
 41
2.5
 42
0.625
 43
3.75
 44
1.25
 45
0.0
 46
0.0
 47
0.0
 48
0.0
 49
2.5
140
2.5
141
2.5
142
0.0
143
0.03937007874
144
1.0
145
0.0
146
1.0
147
0.625
148
0.0
 69
0
 70
0
 71
0
 72
0
 73
0
 74
0
 75
0
 76
0
 77
1
 78
8
 79
3
170
0
171
3
172
1
173
0
174
0
175
0
176
0
177
0
178
0
179
2
271
2
272
2
273
2
274
3
275
0
276
0
277
2
278
44
279
0
280
0
281
0
282
0
283
0
284
8
285
0
286
0
288
0
289
3
290
0
371
-2
372
-2
  0
ENDTAB
  0
TABLE
  2
BLOCK_RECORD
  5
9
330
0
100
AcDbSymbolTable
 70
2
  0
BLOCK_RECORD
  5
17
330
9
100
AcDbSymbolTableRecord
100
AcDbBlockTableRecord
  2
*Model_Space
340
1A
 70
0
280
1
281
0
  0
BLOCK_RECORD
  5
1B
330
9
100
AcDbSymbolTableRecord
100
AcDbBlockTableRecord
  2
*Paper_Space
340
1E
 70
0
280
1
281
0
  0
ENDTAB
  0
ENDSEC
  0
SECTION
  2
BLOCKS
  0
BLOCK
  5
18
330
17
100
AcDbEntity
  8
0
100
AcDbBlockBegin
  2
*Model_Space
 70
0
 10
0.0
 20
0.0
 30
0.0
  3
*Model_Space
  1

  0
ENDBLK
  5
19
330
17
100
AcDbEntity
  8
0
100
AcDbBlockEnd
  0
BLOCK
  5
1C
330
1B
100
AcDbEntity
  8
0
100
AcDbBlockBegin
  2
*Paper_Space
 70
0
 10
0.0
 20
0.0
 30
0.0
  3
*Paper_Space
  1

  0
ENDBLK
  5
1D
330
1B
100
AcDbEntity
  8
0
100
AcDbBlockEnd
  0
ENDSEC
  0
SECTION
  2
ENTITIES
  0
LINE
  5
33
330
17
100
AcDbEntity
  8
DRAWING
  6
CONTINUOUS
420
1118481
100
AcDbLine
 10
120.0
 20
3200.0
 30
0.0
 11
1066.0
 21
3200.0
 31
0.0
  0
LINE
  5
34
330
17
100
AcDbEntity
  8
DRAWING
  6
CONTINUOUS
420
1118481
100
AcDbLine
 10
1066.0
 20
3200.0
 30
0.0
 11
1066.0
 21
320.0
 31
0.0
  0
LINE
  5
35
330
17
100
AcDbEntity
  8
DRAWING
  6
CONTINUOUS
420
1118481
100
AcDbLine
 10
1066.0
 20
320.0
 30
0.0
 11
120.0
 21
320.0
 31
0.0
  0
LINE
  5
36
330
17
100
AcDbEntity
  8
DRAWING
  6
CONTINUOUS
420
1118481
100
AcDbLine
 10
120.0
 20
320.0
 30
0.0
 11
120.0
 21
3200.0
 31
0.0
  0
LWPOLYLINE
  5
37
330
17
100
AcDbEntity
  8
DRAWING
  6
CONTINUOUS
420
1118481
100
AcDbPolyline
 90
73
 70
1
 10
155.0
 20
3150.0
 10
154.96194698091745
 20
3149.1284425725235
 10
154.84807753012208
 20
3148.2635182233307
 10
154.6592582628907
 20
3147.411809548975
 10
154.39692620785908
 20
3146.579798566743
 10
154.0630778703665
 20
3145.773817382593
 10
153.6602540378444
 20
3145.0
 10
153.19152044288992
 20
3144.2642356364895
 10
152.66044443118977
 20
3143.5721239031345
 10
152.07106781186548
 20
3142.9289321881347
 10
151.4278760968654
 20
3142.3395555688103
 10
150.73576436351047
 20
3141.80847955711
 10
150.0
 20
3141.3397459621556
 10
149.226182617407
 20
3140.9369221296333
 10
148.4202014332567
 20
3140.603073792141
 10
147.5881904510252
 20
3140.3407417371095
 10
146.7364817766693
 20
3140.1519224698777
 10
145.87155742747657
 20
3140.0380530190823
 10
145.0
 20
3140.0
 10
144.12844257252343
 20
3140.0380530190823
 10
143.2635182233307
 20
3140.1519224698777
 10
142.4118095489748
 20
3140.3407417371095
 10
141.5797985667433
 20
3140.603073792141
 10
140.773817382593
 20
3140.9369221296333
 10
140.0
 20
3141.3397459621556
 10
139.26423563648953
 20
3141.80847955711
 10
138.5721239031346
 20
3142.3395555688103
 10
137.92893218813452
 20
3142.9289321881347
 10
137.33955556881023
 20
3143.5721239031345
 10
136.80847955711008
 20
3144.2642356364895
 10
136.3397459621556
 20
3145.0
 10
135.9369221296335
 20
3145.773817382593
 10
135.60307379214092
 20
3146.579798566743
 10
135.3407417371093
 20
3147.411809548975
 10
135.15192246987792
 20
3148.2635182233307
 10
135.03805301908255
 20
3149.1284425725235
 10
135.0
 20
3150.0
 10
135.03805301908255
 20
3150.8715574274765
 10
135.15192246987792
 20
3151.7364817766693
 10
135.3407417371093
 20
3152.588190451025
 10
135.60307379214092
 20
3153.420201433257
 10
135.9369221296335
 20
3154.226182617407
 10
136.3397459621556
 20
3155.0
 10
136.80847955711008
 20
3155.7357643635105
 10
137.33955556881023
 20
3156.4278760968655
 10
137.92893218813452
 20
3157.0710678118653
 10
138.5721239031346
 20
3157.6604444311897
 10
139.26423563648953
 20
3158.19152044289
 10
140.0
 20
3158.6602540378444
 10
140.773817382593
 20
3159.0630778703667
 10
141.5797985667433
 20
3159.396926207859
 10
142.4118095489748
 20
3159.6592582628905
 10
143.2635182233307
 20
3159.8480775301223
 10
144.12844257252343
 20
3159.9619469809177
 10
145.0
 20
3160.0
 10
145.87155742747657
 20
3159.9619469809177
 10
146.7364817766693
 20
3159.8480775301223
 10
147.5881904510252
 20
3159.6592582628905
 10
148.4202014332567
 20
3159.396926207859
 10
149.22618261740698
 20
3159.0630778703667
 10
150.0
 20
3158.6602540378444
 10
150.73576436351047
 20
3158.19152044289
 10
151.4278760968654
 20
3157.6604444311897
 10
152.07106781186548
 20
3157.0710678118653
 10
152.66044443118977
 20
3156.4278760968655
 10
153.19152044288992
 20
3155.7357643635105
 10
153.6602540378444
 20
3155.0
 10
154.0630778703665
 20
3154.226182617407
 10
154.39692620785908
 20
3153.420201433257
 10
154.6592582628907
 20
3152.588190451025
 10
154.84807753012208
 20
3151.7364817766693
 10
154.96194698091745
 20
3150.8715574274765
 10
155.0
 20
3150.0
  0
LWPOLYLINE
  5
38
330
17
100
AcDbEntity
  8
DRAWING
  6
CONTINUOUS
420
1118481
100
AcDbPolyline
 90
73
 70
1
 10
1051.0
 20
3150.0
 10
1050.9619469809174
 20
3149.1284425725235
 10
1050.848077530122
 20
3148.2635182233307
 10
1050.6592582628907
 20
3147.411809548975
 10
1050.396926207859
 20
3146.579798566743
 10
1050.0630778703664
 20
3145.773817382593
 10
1049.6602540378444
 20
3145.0
 10
1049.19152044289
 20
3144.2642356364895
 10
1048.6604444311897
 20
3143.5721239031345
 10
1048.0710678118655
 20
3142.9289321881347
 10
1047.4278760968655
 20
3142.3395555688103
 10
1046.7357643635105
 20
3141.80847955711
 10
1046.0
 20
3141.3397459621556
 10
1045.226182617407
 20
3140.9369221296333
 10
1044.4202014332566
 20
3140.603073792141
 10
1043.5881904510252
 20
3140.3407417371095
 10
1042.7364817766693
 20
3140.1519224698777
 10
1041.8715574274765
 20
3140.0380530190823
 10
1041.0
 20
3140.0
 10
1040.1284425725235
 20
3140.0380530190823
 10
1039.2635182233307
 20
3140.1519224698777
 10
1038.4118095489748
 20
3140.3407417371095
 10
1037.5797985667434
 20
3140.603073792141
 10
1036.773817382593
 20
3140.9369221296333
 10
1036.0
 20
3141.3397459621556
 10
1035.2642356364895
 20
3141.80847955711
 10
1034.5721239031345
 20
3142.3395555688103
 10
1033.9289321881345
 20
3142.9289321881347
 10
1033.3395555688103
 20
3143.5721239031345
 10
1032.80847955711
 20
3144.2642356364895
 10
1032.3397459621556
 20
3145.0
 10
1031.9369221296336
 20
3145.773817382593
 10
1031.603073792141
 20
3146.579798566743
 10
1031.3407417371093
 20
3147.411809548975
 10
1031.151922469878
 20
3148.2635182233307
 10
1031.0380530190826
 20
3149.1284425725235
 10
1031.0
 20
3150.0
 10
1031.0380530190826
 20
3150.8715574274765
 10
1031.151922469878
 20
3151.7364817766693
 10
1031.3407417371093
 20
3152.588190451025
 10
1031.603073792141
 20
3153.420201433257
 10
1031.9369221296336
 20
3154.226182617407
 10
1032.3397459621556
 20
3155.0
 10
1032.80847955711
 20
3155.7357643635105
 10
1033.3395555688103
 20
3156.4278760968655
 10
1033.9289321881345
 20
3157.0710678118653
 10
1034.5721239031345
 20
3157.6604444311897
 10
1035.2642356364895
 20
3158.19152044289
 10
1036.0
 20
3158.6602540378444
 10
1036.773817382593
 20
3159.0630778703667
 10
1037.5797985667434
 20
3159.396926207859
 10
1038.4118095489748
 20
3159.6592582628905
 10
1039.2635182233307
 20
3159.8480775301223
 10
1040.1284425725235
 20
3159.9619469809177
 10
1041.0
 20
3160.0
 10
1041.8715574274765
 20
3159.9619469809177
 10
1042.7364817766693
 20
3159.8480775301223
 10
1043.5881904510252
 20
3159.6592582628905
 10
1044.4202014332566
 20
3159.396926207859
 10
1045.226182617407
 20
3159.0630778703667
 10
1046.0
 20
3158.6602540378444
 10
1046.7357643635105
 20
3158.19152044289
 10
1047.4278760968655
 20
3157.6604444311897
 10
1048.0710678118655
 20
3157.0710678118653
 10
1048.6604444311897
 20
3156.4278760968655
 10
1049.19152044289
 20
3155.7357643635105
 10
1049.6602540378444
 20
3155.0
 10
1050.0630778703664
 20
3154.226182617407
 10
1050.396926207859
 20
3153.420201433257
 10
1050.6592582628907
 20
3152.588190451025
 10
1050.848077530122
 20
3151.7364817766693
 10
1050.9619469809174
 20
3150.8715574274765
 10
1051.0
 20
3150.0
  0
LWPOLYLINE
  5
39
330
17
100
AcDbEntity
  8
DRAWING
  6
CONTINUOUS
420
1118481
100
AcDbPolyline
 90
73
 70
1
 10
148.0
 20
3125.0
 10
147.98858409427524
 20
3124.738532771757
 10
147.95442325903662
 20
3124.4790554669994
 10
147.8977774788672
 20
3124.2235428646923
 10
147.81907786235772
 20
3123.973939570023
 10
147.71892336110994
 20
3123.732145214778
 10
147.59807621135332
 20
3123.5
 10
147.45745613286698
 20
3123.2792706909468
 10
147.29813332935694
 20
3123.0716371709404
 10
147.12132034355963
 20
3122.8786796564405
 10
146.9283628290596
 20
3122.701866670643
 10
146.72072930905313
 20
3122.542543867133
 10
146.5
 20
3122.401923788647
 10
146.26785478522208
 20
3122.28107663889
 10
146.026060429977
 20
3122.1809221376425
 10
145.77645713530757
 20
3122.1022225211327
 10
145.5209445330008
 20
3122.0455767409635
 10
145.26146722824296
 20
3122.011415905725
 10
145.0
 20
3122.0
 10
144.73853277175704
 20
3122.011415905725
 10
144.4790554669992
 20
3122.0455767409635
 10
144.22354286469243
 20
3122.1022225211327
 10
143.973939570023
 20
3122.1809221376425
 10
143.73214521477792
 20
3122.28107663889
 10
143.5
 20
3122.401923788647
 10
143.27927069094687
 20
3122.542543867133
 10
143.0716371709404
 20
3122.701866670643
 10
142.87867965644037
 20
3122.8786796564405
 10
142.70186667064306
 20
3123.0716371709404
 10
142.54254386713302
 20
3123.2792706909468
 10
142.40192378864668
 20
3123.5
 10
142.28107663889006
 20
3123.732145214778
 10
142.18092213764228
 20
3123.973939570023
 10
142.1022225211328
 20
3124.2235428646923
 10
142.04557674096338
 20
3124.4790554669994
 10
142.01141590572476
 20
3124.738532771757
 10
142.0
 20
3125.0
 10
142.01141590572476
 20
3125.261467228243
 10
142.04557674096338
 20
3125.5209445330006
 10
142.1022225211328
 20
3125.7764571353077
 10
142.18092213764228
 20
3126.026060429977
 10
142.28107663889006
 20
3126.267854785222
 10
142.40192378864668
 20
3126.5
 10
142.54254386713302
 20
3126.7207293090532
 10
142.70186667064306
 20
3126.9283628290596
 10
142.87867965644037
 20
3127.1213203435595
 10
143.0716371709404
 20
3127.298133329357
 10
143.27927069094687
 20
3127.457456132867
 10
143.5
 20
3127.598076211353
 10
143.7321452147779
 20
3127.71892336111
 10
143.973939570023
 20
3127.8190778623575
 10
144.22354286469243
 20
3127.8977774788673
 10
144.4790554669992
 20
3127.9544232590365
 10
144.73853277175704
 20
3127.988584094275
 10
145.0
 20
3128.0
 10
145.26146722824296
 20
3127.988584094275
 10
145.5209445330008
 20
3127.9544232590365
 10
145.77645713530757
 20
3127.8977774788673
 10
146.026060429977
 20
3127.8190778623575
 10
146.26785478522208
 20
3127.71892336111
 10
146.5
 20
3127.598076211353
 10
146.72072930905313
 20
3127.457456132867
 10
146.9283628290596
 20
3127.298133329357
 10
147.12132034355963
 20
3127.1213203435595
 10
147.29813332935694
 20
3126.9283628290596
 10
147.45745613286698
 20
3126.7207293090532
 10
147.59807621135332
 20
3126.5
 10
147.71892336110994
 20
3126.267854785222
 10
147.81907786235772
 20
3126.026060429977
 10
147.8977774788672
 20
3125.7764571353077
 10
147.95442325903662
 20
3125.5209445330006
 10
147.98858409427524
 20
3125.261467228243
 10
148.0
 20
3125.0
  0
LWPOLYLINE
  5
3A
330
17
100
AcDbEntity
  8
DRAWING
  6
CONTINUOUS
420
1118481
100
AcDbPolyline
 90
73
 70
1
 10
1044.0
 20
3125.0
 10
1043.9885840942752
 20
3124.738532771757
 10
1043.9544232590367
 20
3124.4790554669994
 10
1043.8977774788673
 20
3124.2235428646923
 10
1043.8190778623577
 20
3123.973939570023
 10
1043.71892336111
 20
3123.732145214778
 10
1043.5980762113534
 20
3123.5
 10
1043.457456132867
 20
3123.2792706909468
 10
1043.298133329357
 20
3123.0716371709404
 10
1043.1213203435595
 20
3122.8786796564405
 10
1042.9283628290596
 20
3122.701866670643
 10
1042.7207293090532
 20
3122.542543867133
 10
1042.5
 20
3122.401923788647
 10
1042.2678547852222
 20
3122.28107663889
 10
1042.026060429977
 20
3122.1809221376425
 10
1041.7764571353075
 20
3122.1022225211327
 10
1041.5209445330008
 20
3122.0455767409635
 10
1041.261467228243
 20
3122.011415905725
 10
1041.0
 20
3122.0
 10
1040.738532771757
 20
3122.011415905725
 10
1040.4790554669992
 20
3122.0455767409635
 10
1040.2235428646925
 20
3122.1022225211327
 10
1039.973939570023
 20
3122.1809221376425
 10
1039.7321452147778
 20
3122.28107663889
 10
1039.5
 20
3122.401923788647
 10
1039.2792706909468
 20
3122.542543867133
 10
1039.0716371709404
 20
3122.701866670643
 10
1038.8786796564405
 20
3122.8786796564405
 10
1038.701866670643
 20
3123.0716371709404
 10
1038.542543867133
 20
3123.2792706909468
 10
1038.4019237886466
 20
3123.5
 10
1038.28107663889
 20
3123.732145214778
 10
1038.1809221376423
 20
3123.973939570023
 10
1038.1022225211327
 20
3124.2235428646923
 10
1038.0455767409633
 20
3124.4790554669994
 10
1038.0114159057248
 20
3124.738532771757
 10
1038.0
 20
3125.0
 10
1038.0114159057248
 20
3125.261467228243
 10
1038.0455767409633
 20
3125.5209445330006
 10
1038.1022225211327
 20
3125.7764571353077
 10
1038.1809221376423
 20
3126.026060429977
 10
1038.28107663889
 20
3126.267854785222
 10
1038.4019237886466
 20
3126.5
 10
1038.542543867133
 20
3126.7207293090532
 10
1038.701866670643
 20
3126.9283628290596
 10
1038.8786796564405
 20
3127.1213203435595
 10
1039.0716371709404
 20
3127.298133329357
 10
1039.2792706909468
 20
3127.457456132867
 10
1039.5
 20
3127.598076211353
 10
1039.7321452147778
 20
3127.71892336111
 10
1039.973939570023
 20
3127.8190778623575
 10
1040.2235428646925
 20
3127.8977774788673
 10
1040.4790554669992
 20
3127.9544232590365
 10
1040.738532771757
 20
3127.988584094275
 10
1041.0
 20
3128.0
 10
1041.261467228243
 20
3127.988584094275
 10
1041.5209445330008
 20
3127.9544232590365
 10
1041.7764571353075
 20
3127.8977774788673
 10
1042.026060429977
 20
3127.8190778623575
 10
1042.2678547852222
 20
3127.71892336111
 10
1042.5
 20
3127.598076211353
 10
1042.7207293090532
 20
3127.457456132867
 10
1042.9283628290596
 20
3127.298133329357
 10
1043.1213203435595
 20
3127.1213203435595
 10
1043.298133329357
 20
3126.9283628290596
 10
1043.457456132867
 20
3126.7207293090532
 10
1043.5980762113534
 20
3126.5
 10
1043.71892336111
 20
3126.267854785222
 10
1043.8190778623577
 20
3126.026060429977
 10
1043.8977774788673
 20
3125.7764571353077
 10
1043.9544232590367
 20
3125.5209445330006
 10
1043.9885840942752
 20
3125.261467228243
 10
1044.0
 20
3125.0
  0
LWPOLYLINE
  5
3B
330
17
100
AcDbEntity
  8
DRAWING
  6
CONTINUOUS
420
1118481
100
AcDbPolyline
 90
73
 70
1
 10
148.0
 20
2975.0
 10
147.98858409427524
 20
2974.738532771757
 10
147.95442325903662
 20
2974.4790554669994
 10
147.8977774788672
 20
2974.2235428646923
 10
147.81907786235772
 20
2973.973939570023
 10
147.71892336110994
 20
2973.732145214778
 10
147.59807621135332
 20
2973.5
 10
147.45745613286698
 20
2973.2792706909468
 10
147.29813332935694
 20
2973.0716371709404
 10
147.12132034355963
 20
2972.8786796564405
 10
146.9283628290596
 20
2972.701866670643
 10
146.72072930905313
 20
2972.542543867133
 10
146.5
 20
2972.401923788647
 10
146.26785478522208
 20
2972.28107663889
 10
146.026060429977
 20
2972.1809221376425
 10
145.77645713530757
 20
2972.1022225211327
 10
145.5209445330008
 20
2972.0455767409635
 10
145.26146722824296
 20
2972.011415905725
 10
145.0
 20
2972.0
 10
144.73853277175704
 20
2972.011415905725
 10
144.4790554669992
 20
2972.0455767409635
 10
144.22354286469243
 20
2972.1022225211327
 10
143.973939570023
 20
2972.1809221376425
 10
143.73214521477792
 20
2972.28107663889
 10
143.5
 20
2972.401923788647
 10
143.27927069094687
 20
2972.542543867133
 10
143.0716371709404
 20
2972.701866670643
 10
142.87867965644037
 20
2972.8786796564405
 10
142.70186667064306
 20
2973.0716371709404
 10
142.54254386713302
 20
2973.2792706909468
 10
142.40192378864668
 20
2973.5
 10
142.28107663889006
 20
2973.732145214778
 10
142.18092213764228
 20
2973.973939570023
 10
142.1022225211328
 20
2974.2235428646923
 10
142.04557674096338
 20
2974.4790554669994
 10
142.01141590572476
 20
2974.738532771757
 10
142.0
 20
2975.0
 10
142.01141590572476
 20
2975.261467228243
 10
142.04557674096338
 20
2975.5209445330006
 10
142.1022225211328
 20
2975.7764571353077
 10
142.18092213764228
 20
2976.026060429977
 10
142.28107663889006
 20
2976.267854785222
 10
142.40192378864668
 20
2976.5
 10
142.54254386713302
 20
2976.7207293090532
 10
142.70186667064306
 20
2976.9283628290596
 10
142.87867965644037
 20
2977.1213203435595
 10
143.0716371709404
 20
2977.298133329357
 10
143.27927069094687
 20
2977.457456132867
 10
143.5
 20
2977.598076211353
 10
143.7321452147779
 20
2977.71892336111
 10
143.973939570023
 20
2977.8190778623575
 10
144.22354286469243
 20
2977.8977774788673
 10
144.4790554669992
 20
2977.9544232590365
 10
144.73853277175704
 20
2977.988584094275
 10
145.0
 20
2978.0
 10
145.26146722824296
 20
2977.988584094275
 10
145.5209445330008
 20
2977.9544232590365
 10
145.77645713530757
 20
2977.8977774788673
 10
146.026060429977
 20
2977.8190778623575
 10
146.26785478522208
 20
2977.71892336111
 10
146.5
 20
2977.598076211353
 10
146.72072930905313
 20
2977.457456132867
 10
146.9283628290596
 20
2977.298133329357
 10
147.12132034355963
 20
2977.1213203435595
 10
147.29813332935694
 20
2976.9283628290596
 10
147.45745613286698
 20
2976.7207293090532
 10
147.59807621135332
 20
2976.5
 10
147.71892336110994
 20
2976.267854785222
 10
147.81907786235772
 20
2976.026060429977
 10
147.8977774788672
 20
2975.7764571353077
 10
147.95442325903662
 20
2975.5209445330006
 10
147.98858409427524
 20
2975.261467228243
 10
148.0
 20
2975.0
  0
LWPOLYLINE
  5
3C
330
17
100
AcDbEntity
  8
DRAWING
  6
CONTINUOUS
420
1118481
100
AcDbPolyline
 90
73
 70
1
 10
1044.0
 20
2975.0
 10
1043.9885840942752
 20
2974.738532771757
 10
1043.9544232590367
 20
2974.4790554669994
 10
1043.8977774788673
 20
2974.2235428646923
 10
1043.8190778623577
 20
2973.973939570023
 10
1043.71892336111
 20
2973.732145214778
 10
1043.5980762113534
 20
2973.5
 10
1043.457456132867
 20
2973.2792706909468
 10
1043.298133329357
 20
2973.0716371709404
 10
1043.1213203435595
 20
2972.8786796564405
 10
1042.9283628290596
 20
2972.701866670643
 10
1042.7207293090532
 20
2972.542543867133
 10
1042.5
 20
2972.401923788647
 10
1042.2678547852222
 20
2972.28107663889
 10
1042.026060429977
 20
2972.1809221376425
 10
1041.7764571353075
 20
2972.1022225211327
 10
1041.5209445330008
 20
2972.0455767409635
 10
1041.261467228243
 20
2972.011415905725
 10
1041.0
 20
2972.0
 10
1040.738532771757
 20
2972.011415905725
 10
1040.4790554669992
 20
2972.0455767409635
 10
1040.2235428646925
 20
2972.1022225211327
 10
1039.973939570023
 20
2972.1809221376425
 10
1039.7321452147778
 20
2972.28107663889
 10
1039.5
 20
2972.401923788647
 10
1039.2792706909468
 20
2972.542543867133
 10
1039.0716371709404
 20
2972.701866670643
 10
1038.8786796564405
 20
2972.8786796564405
 10
1038.701866670643
 20
2973.0716371709404
 10
1038.542543867133
 20
2973.2792706909468
 10
1038.4019237886466
 20
2973.5
 10
1038.28107663889
 20
2973.732145214778
 10
1038.1809221376423
 20
2973.973939570023
 10
1038.1022225211327
 20
2974.2235428646923
 10
1038.0455767409633
 20
2974.4790554669994
 10
1038.0114159057248
 20
2974.738532771757
 10
1038.0
 20
2975.0
 10
1038.0114159057248
 20
2975.261467228243
 10
1038.0455767409633
 20
2975.5209445330006
 10
1038.1022225211327
 20
2975.7764571353077
 10
1038.1809221376423
 20
2976.026060429977
 10
1038.28107663889
 20
2976.267854785222
 10
1038.4019237886466
 20
2976.5
 10
1038.542543867133
 20
2976.7207293090532
 10
1038.701866670643
 20
2976.9283628290596
 10
1038.8786796564405
 20
2977.1213203435595
 10
1039.0716371709404
 20
2977.298133329357
 10
1039.2792706909468
 20
2977.457456132867
 10
1039.5
 20
2977.598076211353
 10
1039.7321452147778
 20
2977.71892336111
 10
1039.973939570023
 20
2977.8190778623575
 10
1040.2235428646925
 20
2977.8977774788673
 10
1040.4790554669992
 20
2977.9544232590365
 10
1040.738532771757
 20
2977.988584094275
 10
1041.0
 20
2978.0
 10
1041.261467228243
 20
2977.988584094275
 10
1041.5209445330008
 20
2977.9544232590365
 10
1041.7764571353075
 20
2977.8977774788673
 10
1042.026060429977
 20
2977.8190778623575
 10
1042.2678547852222
 20
2977.71892336111
 10
1042.5
 20
2977.598076211353
 10
1042.7207293090532
 20
2977.457456132867
 10
1042.9283628290596
 20
2977.298133329357
 10
1043.1213203435595
 20
2977.1213203435595
 10
1043.298133329357
 20
2976.9283628290596
 10
1043.457456132867
 20
2976.7207293090532
 10
1043.5980762113534
 20
2976.5
 10
1043.71892336111
 20
2976.267854785222
 10
1043.8190778623577
 20
2976.026060429977
 10
1043.8977774788673
 20
2975.7764571353077
 10
1043.9544232590367
 20
2975.5209445330006
 10
1043.9885840942752
 20
2975.261467228243
 10
1044.0
 20
2975.0
  0
LWPOLYLINE
  5
3D
330
17
100
AcDbEntity
  8
DRAWING
  6
CONTINUOUS
420
1118481
100
AcDbPolyline
 90
73
 70
1
 10
148.0
 20
2825.0
 10
147.98858409427524
 20
2824.738532771757
 10
147.95442325903662
 20
2824.4790554669994
 10
147.8977774788672
 20
2824.2235428646923
 10
147.81907786235772
 20
2823.973939570023
 10
147.71892336110994
 20
2823.732145214778
 10
147.59807621135332
 20
2823.5
 10
147.45745613286698
 20
2823.2792706909468
 10
147.29813332935694
 20
2823.0716371709404
 10
147.12132034355963
 20
2822.8786796564405
 10
146.9283628290596
 20
2822.701866670643
 10
146.72072930905313
 20
2822.542543867133
 10
146.5
 20
2822.401923788647
 10
146.26785478522208
 20
2822.28107663889
 10
146.026060429977
 20
2822.1809221376425
 10
145.77645713530757
 20
2822.1022225211327
 10
145.5209445330008
 20
2822.0455767409635
 10
145.26146722824296
 20
2822.011415905725
 10
145.0
 20
2822.0
 10
144.73853277175704
 20
2822.011415905725
 10
144.4790554669992
 20
2822.0455767409635
 10
144.22354286469243
 20
2822.1022225211327
 10
143.973939570023
 20
2822.1809221376425
 10
143.73214521477792
 20
2822.28107663889
 10
143.5
 20
2822.401923788647
 10
143.27927069094687
 20
2822.542543867133
 10
143.0716371709404
 20
2822.701866670643
 10
142.87867965644037
 20
2822.8786796564405
 10
142.70186667064306
 20
2823.0716371709404
 10
142.54254386713302
 20
2823.2792706909468
 10
142.40192378864668
 20
2823.5
 10
142.28107663889006
 20
2823.732145214778
 10
142.18092213764228
 20
2823.973939570023
 10
142.1022225211328
 20
2824.2235428646923
 10
142.04557674096338
 20
2824.4790554669994
 10
142.01141590572476
 20
2824.738532771757
 10
142.0
 20
2825.0
 10
142.01141590572476
 20
2825.261467228243
 10
142.04557674096338
 20
2825.5209445330006
 10
142.1022225211328
 20
2825.7764571353077
 10
142.18092213764228
 20
2826.026060429977
 10
142.28107663889006
 20
2826.267854785222
 10
142.40192378864668
 20
2826.5
 10
142.54254386713302
 20
2826.7207293090532
 10
142.70186667064306
 20
2826.9283628290596
 10
142.87867965644037
 20
2827.1213203435595
 10
143.0716371709404
 20
2827.298133329357
 10
143.27927069094687
 20
2827.457456132867
 10
143.5
 20
2827.598076211353
 10
143.7321452147779
 20
2827.71892336111
 10
143.973939570023
 20
2827.8190778623575
 10
144.22354286469243
 20
2827.8977774788673
 10
144.4790554669992
 20
2827.9544232590365
 10
144.73853277175704
 20
2827.988584094275
 10
145.0
 20
2828.0
 10
145.26146722824296
 20
2827.988584094275
 10
145.5209445330008
 20
2827.9544232590365
 10
145.77645713530757
 20
2827.8977774788673
 10
146.026060429977
 20
2827.8190778623575
 10
146.26785478522208
 20
2827.71892336111
 10
146.5
 20
2827.598076211353
 10
146.72072930905313
 20
2827.457456132867
 10
146.9283628290596
 20
2827.298133329357
 10
147.12132034355963
 20
2827.1213203435595
 10
147.29813332935694
 20
2826.9283628290596
 10
147.45745613286698
 20
2826.7207293090532
 10
147.59807621135332
 20
2826.5
 10
147.71892336110994
 20
2826.267854785222
 10
147.81907786235772
 20
2826.026060429977
 10
147.8977774788672
 20
2825.7764571353077
 10
147.95442325903662
 20
2825.5209445330006
 10
147.98858409427524
 20
2825.261467228243
 10
148.0
 20
2825.0
  0
LWPOLYLINE
  5
3E
330
17
100
AcDbEntity
  8
DRAWING
  6
CONTINUOUS
420
1118481
100
AcDbPolyline
 90
73
 70
1
 10
1044.0
 20
2825.0
 10
1043.9885840942752
 20
2824.738532771757
 10
1043.9544232590367
 20
2824.4790554669994
 10
1043.8977774788673
 20
2824.2235428646923
 10
1043.8190778623577
 20
2823.973939570023
 10
1043.71892336111
 20
2823.732145214778
 10
1043.5980762113534
 20
2823.5
 10
1043.457456132867
 20
2823.2792706909468
 10
1043.298133329357
 20
2823.0716371709404
 10
1043.1213203435595
 20
2822.8786796564405
 10
1042.9283628290596
 20
2822.701866670643
 10
1042.7207293090532
 20
2822.542543867133
 10
1042.5
 20
2822.401923788647
 10
1042.2678547852222
 20
2822.28107663889
 10
1042.026060429977
 20
2822.1809221376425
 10
1041.7764571353075
 20
2822.1022225211327
 10
1041.5209445330008
 20
2822.0455767409635
 10
1041.261467228243
 20
2822.011415905725
 10
1041.0
 20
2822.0
 10
1040.738532771757
 20
2822.011415905725
 10
1040.4790554669992
 20
2822.0455767409635
 10
1040.2235428646925
 20
2822.1022225211327
 10
1039.973939570023
 20
2822.1809221376425
 10
1039.7321452147778
 20
2822.28107663889
 10
1039.5
 20
2822.401923788647
 10
1039.2792706909468
 20
2822.542543867133
 10
1039.0716371709404
 20
2822.701866670643
 10
1038.8786796564405
 20
2822.8786796564405
 10
1038.701866670643
 20
2823.0716371709404
 10
1038.542543867133
 20
2823.2792706909468
 10
1038.4019237886466
 20
2823.5
 10
1038.28107663889
 20
2823.732145214778
 10
1038.1809221376423
 20
2823.973939570023
 10
1038.1022225211327
 20
2824.2235428646923
 10
1038.0455767409633
 20
2824.4790554669994
 10
1038.0114159057248
 20
2824.738532771757
 10
1038.0
 20
2825.0
 10
1038.0114159057248
 20
2825.261467228243
 10
1038.0455767409633
 20
2825.5209445330006
 10
1038.1022225211327
 20
2825.7764571353077
 10
1038.1809221376423
 20
2826.026060429977
 10
1038.28107663889
 20
2826.267854785222
 10
1038.4019237886466
 20
2826.5
 10
1038.542543867133
 20
2826.7207293090532
 10
1038.701866670643
 20
2826.9283628290596
 10
1038.8786796564405
 20
2827.1213203435595
 10
1039.0716371709404
 20
2827.298133329357
 10
1039.2792706909468
 20
2827.457456132867
 10
1039.5
 20
2827.598076211353
 10
1039.7321452147778
 20
2827.71892336111
 10
1039.973939570023
 20
2827.8190778623575
 10
1040.2235428646925
 20
2827.8977774788673
 10
1040.4790554669992
 20
2827.9544232590365
 10
1040.738532771757
 20
2827.988584094275
 10
1041.0
 20
2828.0
 10
1041.261467228243
 20
2827.988584094275
 10
1041.5209445330008
 20
2827.9544232590365
 10
1041.7764571353075
 20
2827.8977774788673
 10
1042.026060429977
 20
2827.8190778623575
 10
1042.2678547852222
 20
2827.71892336111
 10
1042.5
 20
2827.598076211353
 10
1042.7207293090532
 20
2827.457456132867
 10
1042.9283628290596
 20
2827.298133329357
 10
1043.1213203435595
 20
2827.1213203435595
 10
1043.298133329357
 20
2826.9283628290596
 10
1043.457456132867
 20
2826.7207293090532
 10
1043.5980762113534
 20
2826.5
 10
1043.71892336111
 20
2826.267854785222
 10
1043.8190778623577
 20
2826.026060429977
 10
1043.8977774788673
 20
2825.7764571353077
 10
1043.9544232590367
 20
2825.5209445330006
 10
1043.9885840942752
 20
2825.261467228243
 10
1044.0
 20
2825.0
  0
LWPOLYLINE
  5
3F
330
17
100
AcDbEntity
  8
DRAWING
  6
CONTINUOUS
420
1118481
100
AcDbPolyline
 90
73
 70
1
 10
148.0
 20
2675.0
 10
147.98858409427524
 20
2674.738532771757
 10
147.95442325903662
 20
2674.479055466999
 10
147.8977774788672
 20
2674.2235428646927
 10
147.81907786235772
 20
2673.973939570023
 10
147.71892336110994
 20
2673.732145214778
 10
147.59807621135332
 20
2673.5
 10
147.45745613286698
 20
2673.2792706909468
 10
147.29813332935694
 20
2673.0716371709404
 10
147.12132034355963
 20
2672.8786796564405
 10
146.9283628290596
 20
2672.701866670643
 10
146.72072930905313
 20
2672.542543867133
 10
146.5
 20
2672.401923788647
 10
146.26785478522208
 20
2672.28107663889
 10
146.026060429977
 20
2672.1809221376425
 10
145.77645713530757
 20
2672.1022225211327
 10
145.5209445330008
 20
2672.0455767409635
 10
145.26146722824296
 20
2672.011415905725
 10
145.0
 20
2672.0
 10
144.73853277175704
 20
2672.011415905725
 10
144.4790554669992
 20
2672.0455767409635
 10
144.22354286469243
 20
2672.1022225211327
 10
143.973939570023
 20
2672.1809221376425
 10
143.73214521477792
 20
2672.28107663889
 10
143.5
 20
2672.401923788647
 10
143.27927069094687
 20
2672.542543867133
 10
143.0716371709404
 20
2672.701866670643
 10
142.87867965644037
 20
2672.8786796564405
 10
142.70186667064306
 20
2673.0716371709404
 10
142.54254386713302
 20
2673.2792706909468
 10
142.40192378864668
 20
2673.5
 10
142.28107663889006
 20
2673.732145214778
 10
142.18092213764228
 20
2673.973939570023
 10
142.1022225211328
 20
2674.2235428646927
 10
142.04557674096338
 20
2674.479055466999
 10
142.01141590572476
 20
2674.738532771757
 10
142.0
 20
2675.0
 10
142.01141590572476
 20
2675.261467228243
 10
142.04557674096338
 20
2675.520944533001
 10
142.1022225211328
 20
2675.7764571353073
 10
142.18092213764228
 20
2676.026060429977
 10
142.28107663889006
 20
2676.267854785222
 10
142.40192378864668
 20
2676.5
 10
142.54254386713302
 20
2676.7207293090532
 10
142.70186667064306
 20
2676.9283628290596
 10
142.87867965644037
 20
2677.1213203435595
 10
143.0716371709404
 20
2677.298133329357
 10
143.27927069094687
 20
2677.457456132867
 10
143.5
 20
2677.598076211353
 10
143.7321452147779
 20
2677.71892336111
 10
143.973939570023
 20
2677.8190778623575
 10
144.22354286469243
 20
2677.8977774788673
 10
144.4790554669992
 20
2677.9544232590365
 10
144.73853277175704
 20
2677.988584094275
 10
145.0
 20
2678.0
 10
145.26146722824296
 20
2677.988584094275
 10
145.5209445330008
 20
2677.9544232590365
 10
145.77645713530757
 20
2677.8977774788673
 10
146.026060429977
 20
2677.8190778623575
 10
146.26785478522208
 20
2677.71892336111
 10
146.5
 20
2677.598076211353
 10
146.72072930905313
 20
2677.457456132867
 10
146.9283628290596
 20
2677.298133329357
 10
147.12132034355963
 20
2677.1213203435595
 10
147.29813332935694
 20
2676.9283628290596
 10
147.45745613286698
 20
2676.7207293090532
 10
147.59807621135332
 20
2676.5
 10
147.71892336110994
 20
2676.267854785222
 10
147.81907786235772
 20
2676.026060429977
 10
147.8977774788672
 20
2675.7764571353073
 10
147.95442325903662
 20
2675.520944533001
 10
147.98858409427524
 20
2675.261467228243
 10
148.0
 20
2675.0
  0
LWPOLYLINE
  5
40
330
17
100
AcDbEntity
  8
DRAWING
  6
CONTINUOUS
420
1118481
100
AcDbPolyline
 90
73
 70
1
 10
1044.0
 20
2675.0
 10
1043.9885840942752
 20
2674.738532771757
 10
1043.9544232590367
 20
2674.479055466999
 10
1043.8977774788673
 20
2674.2235428646927
 10
1043.8190778623577
 20
2673.973939570023
 10
1043.71892336111
 20
2673.732145214778
 10
1043.5980762113534
 20
2673.5
 10
1043.457456132867
 20
2673.2792706909468
 10
1043.298133329357
 20
2673.0716371709404
 10
1043.1213203435595
 20
2672.8786796564405
 10
1042.9283628290596
 20
2672.701866670643
 10
1042.7207293090532
 20
2672.542543867133
 10
1042.5
 20
2672.401923788647
 10
1042.2678547852222
 20
2672.28107663889
 10
1042.026060429977
 20
2672.1809221376425
 10
1041.7764571353075
 20
2672.1022225211327
 10
1041.5209445330008
 20
2672.0455767409635
 10
1041.261467228243
 20
2672.011415905725
 10
1041.0
 20
2672.0
 10
1040.738532771757
 20
2672.011415905725
 10
1040.4790554669992
 20
2672.0455767409635
 10
1040.2235428646925
 20
2672.1022225211327
 10
1039.973939570023
 20
2672.1809221376425
 10
1039.7321452147778
 20
2672.28107663889
 10
1039.5
 20
2672.401923788647
 10
1039.2792706909468
 20
2672.542543867133
 10
1039.0716371709404
 20
2672.701866670643
 10
1038.8786796564405
 20
2672.8786796564405
 10
1038.701866670643
 20
2673.0716371709404
 10
1038.542543867133
 20
2673.2792706909468
 10
1038.4019237886466
 20
2673.5
 10
1038.28107663889
 20
2673.732145214778
 10
1038.1809221376423
 20
2673.973939570023
 10
1038.1022225211327
 20
2674.2235428646927
 10
1038.0455767409633
 20
2674.479055466999
 10
1038.0114159057248
 20
2674.738532771757
 10
1038.0
 20
2675.0
 10
1038.0114159057248
 20
2675.261467228243
 10
1038.0455767409633
 20
2675.520944533001
 10
1038.1022225211327
 20
2675.7764571353073
 10
1038.1809221376423
 20
2676.026060429977
 10
1038.28107663889
 20
2676.267854785222
 10
1038.4019237886466
 20
2676.5
 10
1038.542543867133
 20
2676.7207293090532
 10
1038.701866670643
 20
2676.9283628290596
 10
1038.8786796564405
 20
2677.1213203435595
 10
1039.0716371709404
 20
2677.298133329357
 10
1039.2792706909468
 20
2677.457456132867
 10
1039.5
 20
2677.598076211353
 10
1039.7321452147778
 20
2677.71892336111
 10
1039.973939570023
 20
2677.8190778623575
 10
1040.2235428646925
 20
2677.8977774788673
 10
1040.4790554669992
 20
2677.9544232590365
 10
1040.738532771757
 20
2677.988584094275
 10
1041.0
 20
2678.0
 10
1041.261467228243
 20
2677.988584094275
 10
1041.5209445330008
 20
2677.9544232590365
 10
1041.7764571353075
 20
2677.8977774788673
 10
1042.026060429977
 20
2677.8190778623575
 10
1042.2678547852222
 20
2677.71892336111
 10
1042.5
 20
2677.598076211353
 10
1042.7207293090532
 20
2677.457456132867
 10
1042.9283628290596
 20
2677.298133329357
 10
1043.1213203435595
 20
2677.1213203435595
 10
1043.298133329357
 20
2676.9283628290596
 10
1043.457456132867
 20
2676.7207293090532
 10
1043.5980762113534
 20
2676.5
 10
1043.71892336111
 20
2676.267854785222
 10
1043.8190778623577
 20
2676.026060429977
 10
1043.8977774788673
 20
2675.7764571353073
 10
1043.9544232590367
 20
2675.520944533001
 10
1043.9885840942752
 20
2675.261467228243
 10
1044.0
 20
2675.0
  0
LWPOLYLINE
  5
41
330
17
100
AcDbEntity
  8
DRAWING
  6
CONTINUOUS
420
1118481
100
AcDbPolyline
 90
73
 70
1
 10
148.0
 20
2525.0
 10
147.98858409427524
 20
2524.738532771757
 10
147.95442325903662
 20
2524.479055466999
 10
147.8977774788672
 20
2524.2235428646927
 10
147.81907786235772
 20
2523.973939570023
 10
147.71892336110994
 20
2523.732145214778
 10
147.59807621135332
 20
2523.5
 10
147.45745613286698
 20
2523.2792706909468
 10
147.29813332935694
 20
2523.0716371709404
 10
147.12132034355963
 20
2522.8786796564405
 10
146.9283628290596
 20
2522.701866670643
 10
146.72072930905313
 20
2522.542543867133
 10
146.5
 20
2522.401923788647
 10
146.26785478522208
 20
2522.28107663889
 10
146.026060429977
 20
2522.1809221376425
 10
145.77645713530757
 20
2522.1022225211327
 10
145.5209445330008
 20
2522.0455767409635
 10
145.26146722824296
 20
2522.011415905725
 10
145.0
 20
2522.0
 10
144.73853277175704
 20
2522.011415905725
 10
144.4790554669992
 20
2522.0455767409635
 10
144.22354286469243
 20
2522.1022225211327
 10
143.973939570023
 20
2522.1809221376425
 10
143.73214521477792
 20
2522.28107663889
 10
143.5
 20
2522.401923788647
 10
143.27927069094687
 20
2522.542543867133
 10
143.0716371709404
 20
2522.701866670643
 10
142.87867965644037
 20
2522.8786796564405
 10
142.70186667064306
 20
2523.0716371709404
 10
142.54254386713302
 20
2523.2792706909468
 10
142.40192378864668
 20
2523.5
 10
142.28107663889006
 20
2523.732145214778
 10
142.18092213764228
 20
2523.973939570023
 10
142.1022225211328
 20
2524.2235428646927
 10
142.04557674096338
 20
2524.479055466999
 10
142.01141590572476
 20
2524.738532771757
 10
142.0
 20
2525.0
 10
142.01141590572476
 20
2525.261467228243
 10
142.04557674096338
 20
2525.520944533001
 10
142.1022225211328
 20
2525.7764571353073
 10
142.18092213764228
 20
2526.026060429977
 10
142.28107663889006
 20
2526.267854785222
 10
142.40192378864668
 20
2526.5
 10
142.54254386713302
 20
2526.7207293090532
 10
142.70186667064306
 20
2526.9283628290596
 10
142.87867965644037
 20
2527.1213203435595
 10
143.0716371709404
 20
2527.298133329357
 10
143.27927069094687
 20
2527.457456132867
 10
143.5
 20
2527.598076211353
 10
143.7321452147779
 20
2527.71892336111
 10
143.973939570023
 20
2527.8190778623575
 10
144.22354286469243
 20
2527.8977774788673
 10
144.4790554669992
 20
2527.9544232590365
 10
144.73853277175704
 20
2527.988584094275
 10
145.0
 20
2528.0
 10
145.26146722824296
 20
2527.988584094275
 10
145.5209445330008
 20
2527.9544232590365
 10
145.77645713530757
 20
2527.8977774788673
 10
146.026060429977
 20
2527.8190778623575
 10
146.26785478522208
 20
2527.71892336111
 10
146.5
 20
2527.598076211353
 10
146.72072930905313
 20
2527.457456132867
 10
146.9283628290596
 20
2527.298133329357
 10
147.12132034355963
 20
2527.1213203435595
 10
147.29813332935694
 20
2526.9283628290596
 10
147.45745613286698
 20
2526.7207293090532
 10
147.59807621135332
 20
2526.5
 10
147.71892336110994
 20
2526.267854785222
 10
147.81907786235772
 20
2526.026060429977
 10
147.8977774788672
 20
2525.7764571353073
 10
147.95442325903662
 20
2525.520944533001
 10
147.98858409427524
 20
2525.261467228243
 10
148.0
 20
2525.0
  0
LWPOLYLINE
  5
42
330
17
100
AcDbEntity
  8
DRAWING
  6
CONTINUOUS
420
1118481
100
AcDbPolyline
 90
73
 70
1
 10
1044.0
 20
2525.0
 10
1043.9885840942752
 20
2524.738532771757
 10
1043.9544232590367
 20
2524.479055466999
 10
1043.8977774788673
 20
2524.2235428646927
 10
1043.8190778623577
 20
2523.973939570023
 10
1043.71892336111
 20
2523.732145214778
 10
1043.5980762113534
 20
2523.5
 10
1043.457456132867
 20
2523.2792706909468
 10
1043.298133329357
 20
2523.0716371709404
 10
1043.1213203435595
 20
2522.8786796564405
 10
1042.9283628290596
 20
2522.701866670643
 10
1042.7207293090532
 20
2522.542543867133
 10
1042.5
 20
2522.401923788647
 10
1042.2678547852222
 20
2522.28107663889
 10
1042.026060429977
 20
2522.1809221376425
 10
1041.7764571353075
 20
2522.1022225211327
 10
1041.5209445330008
 20
2522.0455767409635
 10
1041.261467228243
 20
2522.011415905725
 10
1041.0
 20
2522.0
 10
1040.738532771757
 20
2522.011415905725
 10
1040.4790554669992
 20
2522.0455767409635
 10
1040.2235428646925
 20
2522.1022225211327
 10
1039.973939570023
 20
2522.1809221376425
 10
1039.7321452147778
 20
2522.28107663889
 10
1039.5
 20
2522.401923788647
 10
1039.2792706909468
 20
2522.542543867133
 10
1039.0716371709404
 20
2522.701866670643
 10
1038.8786796564405
 20
2522.8786796564405
 10
1038.701866670643
 20
2523.0716371709404
 10
1038.542543867133
 20
2523.2792706909468
 10
1038.4019237886466
 20
2523.5
 10
1038.28107663889
 20
2523.732145214778
 10
1038.1809221376423
 20
2523.973939570023
 10
1038.1022225211327
 20
2524.2235428646927
 10
1038.0455767409633
 20
2524.479055466999
 10
1038.0114159057248
 20
2524.738532771757
 10
1038.0
 20
2525.0
 10
1038.0114159057248
 20
2525.261467228243
 10
1038.0455767409633
 20
2525.520944533001
 10
1038.1022225211327
 20
2525.7764571353073
 10
1038.1809221376423
 20
2526.026060429977
 10
1038.28107663889
 20
2526.267854785222
 10
1038.4019237886466
 20
2526.5
 10
1038.542543867133
 20
2526.7207293090532
 10
1038.701866670643
 20
2526.9283628290596
 10
1038.8786796564405
 20
2527.1213203435595
 10
1039.0716371709404
 20
2527.298133329357
 10
1039.2792706909468
 20
2527.457456132867
 10
1039.5
 20
2527.598076211353
 10
1039.7321452147778
 20
2527.71892336111
 10
1039.973939570023
 20
2527.8190778623575
 10
1040.2235428646925
 20
2527.8977774788673
 10
1040.4790554669992
 20
2527.9544232590365
 10
1040.738532771757
 20
2527.988584094275
 10
1041.0
 20
2528.0
 10
1041.261467228243
 20
2527.988584094275
 10
1041.5209445330008
 20
2527.9544232590365
 10
1041.7764571353075
 20
2527.8977774788673
 10
1042.026060429977
 20
2527.8190778623575
 10
1042.2678547852222
 20
2527.71892336111
 10
1042.5
 20
2527.598076211353
 10
1042.7207293090532
 20
2527.457456132867
 10
1042.9283628290596
 20
2527.298133329357
 10
1043.1213203435595
 20
2527.1213203435595
 10
1043.298133329357
 20
2526.9283628290596
 10
1043.457456132867
 20
2526.7207293090532
 10
1043.5980762113534
 20
2526.5
 10
1043.71892336111
 20
2526.267854785222
 10
1043.8190778623577
 20
2526.026060429977
 10
1043.8977774788673
 20
2525.7764571353073
 10
1043.9544232590367
 20
2525.520944533001
 10
1043.9885840942752
 20
2525.261467228243
 10
1044.0
 20
2525.0
  0
LWPOLYLINE
  5
43
330
17
100
AcDbEntity
  8
DRAWING
  6
CONTINUOUS
420
1118481
100
AcDbPolyline
 90
73
 70
1
 10
148.0
 20
2375.0
 10
147.98858409427524
 20
2374.738532771757
 10
147.95442325903662
 20
2374.479055466999
 10
147.8977774788672
 20
2374.2235428646927
 10
147.81907786235772
 20
2373.973939570023
 10
147.71892336110994
 20
2373.732145214778
 10
147.59807621135332
 20
2373.5
 10
147.45745613286698
 20
2373.2792706909468
 10
147.29813332935694
 20
2373.0716371709404
 10
147.12132034355963
 20
2372.8786796564405
 10
146.9283628290596
 20
2372.701866670643
 10
146.72072930905313
 20
2372.542543867133
 10
146.5
 20
2372.401923788647
 10
146.26785478522208
 20
2372.28107663889
 10
146.026060429977
 20
2372.1809221376425
 10
145.77645713530757
 20
2372.1022225211327
 10
145.5209445330008
 20
2372.0455767409635
 10
145.26146722824296
 20
2372.011415905725
 10
145.0
 20
2372.0
 10
144.73853277175704
 20
2372.011415905725
 10
144.4790554669992
 20
2372.0455767409635
 10
144.22354286469243
 20
2372.1022225211327
 10
143.973939570023
 20
2372.1809221376425
 10
143.73214521477792
 20
2372.28107663889
 10
143.5
 20
2372.401923788647
 10
143.27927069094687
 20
2372.542543867133
 10
143.0716371709404
 20
2372.701866670643
 10
142.87867965644037
 20
2372.8786796564405
 10
142.70186667064306
 20
2373.0716371709404
 10
142.54254386713302
 20
2373.2792706909468
 10
142.40192378864668
 20
2373.5
 10
142.28107663889006
 20
2373.732145214778
 10
142.18092213764228
 20
2373.973939570023
 10
142.1022225211328
 20
2374.2235428646927
 10
142.04557674096338
 20
2374.479055466999
 10
142.01141590572476
 20
2374.738532771757
 10
142.0
 20
2375.0
 10
142.01141590572476
 20
2375.261467228243
 10
142.04557674096338
 20
2375.520944533001
 10
142.1022225211328
 20
2375.7764571353073
 10
142.18092213764228
 20
2376.026060429977
 10
142.28107663889006
 20
2376.267854785222
 10
142.40192378864668
 20
2376.5
 10
142.54254386713302
 20
2376.7207293090532
 10
142.70186667064306
 20
2376.9283628290596
 10
142.87867965644037
 20
2377.1213203435595
 10
143.0716371709404
 20
2377.298133329357
 10
143.27927069094687
 20
2377.457456132867
 10
143.5
 20
2377.598076211353
 10
143.7321452147779
 20
2377.71892336111
 10
143.973939570023
 20
2377.8190778623575
 10
144.22354286469243
 20
2377.8977774788673
 10
144.4790554669992
 20
2377.9544232590365
 10
144.73853277175704
 20
2377.988584094275
 10
145.0
 20
2378.0
 10
145.26146722824296
 20
2377.988584094275
 10
145.5209445330008
 20
2377.9544232590365
 10
145.77645713530757
 20
2377.8977774788673
 10
146.026060429977
 20
2377.8190778623575
 10
146.26785478522208
 20
2377.71892336111
 10
146.5
 20
2377.598076211353
 10
146.72072930905313
 20
2377.457456132867
 10
146.9283628290596
 20
2377.298133329357
 10
147.12132034355963
 20
2377.1213203435595
 10
147.29813332935694
 20
2376.9283628290596
 10
147.45745613286698
 20
2376.7207293090532
 10
147.59807621135332
 20
2376.5
 10
147.71892336110994
 20
2376.267854785222
 10
147.81907786235772
 20
2376.026060429977
 10
147.8977774788672
 20
2375.7764571353073
 10
147.95442325903662
 20
2375.520944533001
 10
147.98858409427524
 20
2375.261467228243
 10
148.0
 20
2375.0
  0
LWPOLYLINE
  5
44
330
17
100
AcDbEntity
  8
DRAWING
  6
CONTINUOUS
420
1118481
100
AcDbPolyline
 90
73
 70
1
 10
1044.0
 20
2375.0
 10
1043.9885840942752
 20
2374.738532771757
 10
1043.9544232590367
 20
2374.479055466999
 10
1043.8977774788673
 20
2374.2235428646927
 10
1043.8190778623577
 20
2373.973939570023
 10
1043.71892336111
 20
2373.732145214778
 10
1043.5980762113534
 20
2373.5
 10
1043.457456132867
 20
2373.2792706909468
 10
1043.298133329357
 20
2373.0716371709404
 10
1043.1213203435595
 20
2372.8786796564405
 10
1042.9283628290596
 20
2372.701866670643
 10
1042.7207293090532
 20
2372.542543867133
 10
1042.5
 20
2372.401923788647
 10
1042.2678547852222
 20
2372.28107663889
 10
1042.026060429977
 20
2372.1809221376425
 10
1041.7764571353075
 20
2372.1022225211327
 10
1041.5209445330008
 20
2372.0455767409635
 10
1041.261467228243
 20
2372.011415905725
 10
1041.0
 20
2372.0
 10
1040.738532771757
 20
2372.011415905725
 10
1040.4790554669992
 20
2372.0455767409635
 10
1040.2235428646925
 20
2372.1022225211327
 10
1039.973939570023
 20
2372.1809221376425
 10
1039.7321452147778
 20
2372.28107663889
 10
1039.5
 20
2372.401923788647
 10
1039.2792706909468
 20
2372.542543867133
 10
1039.0716371709404
 20
2372.701866670643
 10
1038.8786796564405
 20
2372.8786796564405
 10
1038.701866670643
 20
2373.0716371709404
 10
1038.542543867133
 20
2373.2792706909468
 10
1038.4019237886466
 20
2373.5
 10
1038.28107663889
 20
2373.732145214778
 10
1038.1809221376423
 20
2373.973939570023
 10
1038.1022225211327
 20
2374.2235428646927
 10
1038.0455767409633
 20
2374.479055466999
 10
1038.0114159057248
 20
2374.738532771757
 10
1038.0
 20
2375.0
 10
1038.0114159057248
 20
2375.261467228243
 10
1038.0455767409633
 20
2375.520944533001
 10
1038.1022225211327
 20
2375.7764571353073
 10
1038.1809221376423
 20
2376.026060429977
 10
1038.28107663889
 20
2376.267854785222
 10
1038.4019237886466
 20
2376.5
 10
1038.542543867133
 20
2376.7207293090532
 10
1038.701866670643
 20
2376.9283628290596
 10
1038.8786796564405
 20
2377.1213203435595
 10
1039.0716371709404
 20
2377.298133329357
 10
1039.2792706909468
 20
2377.457456132867
 10
1039.5
 20
2377.598076211353
 10
1039.7321452147778
 20
2377.71892336111
 10
1039.973939570023
 20
2377.8190778623575
 10
1040.2235428646925
 20
2377.8977774788673
 10
1040.4790554669992
 20
2377.9544232590365
 10
1040.738532771757
 20
2377.988584094275
 10
1041.0
 20
2378.0
 10
1041.261467228243
 20
2377.988584094275
 10
1041.5209445330008
 20
2377.9544232590365
 10
1041.7764571353075
 20
2377.8977774788673
 10
1042.026060429977
 20
2377.8190778623575
 10
1042.2678547852222
 20
2377.71892336111
 10
1042.5
 20
2377.598076211353
 10
1042.7207293090532
 20
2377.457456132867
 10
1042.9283628290596
 20
2377.298133329357
 10
1043.1213203435595
 20
2377.1213203435595
 10
1043.298133329357
 20
2376.9283628290596
 10
1043.457456132867
 20
2376.7207293090532
 10
1043.5980762113534
 20
2376.5
 10
1043.71892336111
 20
2376.267854785222
 10
1043.8190778623577
 20
2376.026060429977
 10
1043.8977774788673
 20
2375.7764571353073
 10
1043.9544232590367
 20
2375.520944533001
 10
1043.9885840942752
 20
2375.261467228243
 10
1044.0
 20
2375.0
  0
LWPOLYLINE
  5
45
330
17
100
AcDbEntity
  8
DRAWING
  6
CONTINUOUS
420
1118481
100
AcDbPolyline
 90
73
 70
1
 10
148.0
 20
2225.0
 10
147.98858409427524
 20
2224.738532771757
 10
147.95442325903662
 20
2224.479055466999
 10
147.8977774788672
 20
2224.2235428646927
 10
147.81907786235772
 20
2223.973939570023
 10
147.71892336110994
 20
2223.732145214778
 10
147.59807621135332
 20
2223.5
 10
147.45745613286698
 20
2223.2792706909468
 10
147.29813332935694
 20
2223.0716371709404
 10
147.12132034355963
 20
2222.8786796564405
 10
146.9283628290596
 20
2222.701866670643
 10
146.72072930905313
 20
2222.5425438671327
 10
146.5
 20
2222.401923788647
 10
146.26785478522208
 20
2222.28107663889
 10
146.026060429977
 20
2222.1809221376425
 10
145.77645713530757
 20
2222.1022225211327
 10
145.5209445330008
 20
2222.045576740963
 10
145.26146722824296
 20
2222.011415905725
 10
145.0
 20
2222.0
 10
144.73853277175704
 20
2222.011415905725
 10
144.4790554669992
 20
2222.045576740963
 10
144.22354286469243
 20
2222.1022225211327
 10
143.973939570023
 20
2222.1809221376425
 10
143.73214521477792
 20
2222.28107663889
 10
143.5
 20
2222.401923788647
 10
143.27927069094687
 20
2222.5425438671327
 10
143.0716371709404
 20
2222.701866670643
 10
142.87867965644037
 20
2222.8786796564405
 10
142.70186667064306
 20
2223.0716371709404
 10
142.54254386713302
 20
2223.2792706909468
 10
142.40192378864668
 20
2223.5
 10
142.28107663889006
 20
2223.732145214778
 10
142.18092213764228
 20
2223.973939570023
 10
142.1022225211328
 20
2224.2235428646927
 10
142.04557674096338
 20
2224.479055466999
 10
142.01141590572476
 20
2224.738532771757
 10
142.0
 20
2225.0
 10
142.01141590572476
 20
2225.261467228243
 10
142.04557674096338
 20
2225.520944533001
 10
142.1022225211328
 20
2225.7764571353073
 10
142.18092213764228
 20
2226.026060429977
 10
142.28107663889006
 20
2226.267854785222
 10
142.40192378864668
 20
2226.5
 10
142.54254386713302
 20
2226.7207293090532
 10
142.70186667064306
 20
2226.9283628290596
 10
142.87867965644037
 20
2227.1213203435595
 10
143.0716371709404
 20
2227.298133329357
 10
143.27927069094687
 20
2227.4574561328673
 10
143.5
 20
2227.598076211353
 10
143.7321452147779
 20
2227.71892336111
 10
143.973939570023
 20
2227.8190778623575
 10
144.22354286469243
 20
2227.8977774788673
 10
144.4790554669992
 20
2227.954423259037
 10
144.73853277175704
 20
2227.988584094275
 10
145.0
 20
2228.0
 10
145.26146722824296
 20
2227.988584094275
 10
145.5209445330008
 20
2227.954423259037
 10
145.77645713530757
 20
2227.8977774788673
 10
146.026060429977
 20
2227.8190778623575
 10
146.26785478522208
 20
2227.71892336111
 10
146.5
 20
2227.598076211353
 10
146.72072930905313
 20
2227.4574561328673
 10
146.9283628290596
 20
2227.298133329357
 10
147.12132034355963
 20
2227.1213203435595
 10
147.29813332935694
 20
2226.9283628290596
 10
147.45745613286698
 20
2226.7207293090532
 10
147.59807621135332
 20
2226.5
 10
147.71892336110994
 20
2226.267854785222
 10
147.81907786235772
 20
2226.026060429977
 10
147.8977774788672
 20
2225.7764571353073
 10
147.95442325903662
 20
2225.520944533001
 10
147.98858409427524
 20
2225.261467228243
 10
148.0
 20
2225.0
  0
LWPOLYLINE
  5
46
330
17
100
AcDbEntity
  8
DRAWING
  6
CONTINUOUS
420
1118481
100
AcDbPolyline
 90
73
 70
1
 10
1044.0
 20
2225.0
 10
1043.9885840942752
 20
2224.738532771757
 10
1043.9544232590367
 20
2224.479055466999
 10
1043.8977774788673
 20
2224.2235428646927
 10
1043.8190778623577
 20
2223.973939570023
 10
1043.71892336111
 20
2223.732145214778
 10
1043.5980762113534
 20
2223.5
 10
1043.457456132867
 20
2223.2792706909468
 10
1043.298133329357
 20
2223.0716371709404
 10
1043.1213203435595
 20
2222.8786796564405
 10
1042.9283628290596
 20
2222.701866670643
 10
1042.7207293090532
 20
2222.5425438671327
 10
1042.5
 20
2222.401923788647
 10
1042.2678547852222
 20
2222.28107663889
 10
1042.026060429977
 20
2222.1809221376425
 10
1041.7764571353075
 20
2222.1022225211327
 10
1041.5209445330008
 20
2222.045576740963
 10
1041.261467228243
 20
2222.011415905725
 10
1041.0
 20
2222.0
 10
1040.738532771757
 20
2222.011415905725
 10
1040.4790554669992
 20
2222.045576740963
 10
1040.2235428646925
 20
2222.1022225211327
 10
1039.973939570023
 20
2222.1809221376425
 10
1039.7321452147778
 20
2222.28107663889
 10
1039.5
 20
2222.401923788647
 10
1039.2792706909468
 20
2222.5425438671327
 10
1039.0716371709404
 20
2222.701866670643
 10
1038.8786796564405
 20
2222.8786796564405
 10
1038.701866670643
 20
2223.0716371709404
 10
1038.542543867133
 20
2223.2792706909468
 10
1038.4019237886466
 20
2223.5
 10
1038.28107663889
 20
2223.732145214778
 10
1038.1809221376423
 20
2223.973939570023
 10
1038.1022225211327
 20
2224.2235428646927
 10
1038.0455767409633
 20
2224.479055466999
 10
1038.0114159057248
 20
2224.738532771757
 10
1038.0
 20
2225.0
 10
1038.0114159057248
 20
2225.261467228243
 10
1038.0455767409633
 20
2225.520944533001
 10
1038.1022225211327
 20
2225.7764571353073
 10
1038.1809221376423
 20
2226.026060429977
 10
1038.28107663889
 20
2226.267854785222
 10
1038.4019237886466
 20
2226.5
 10
1038.542543867133
 20
2226.7207293090532
 10
1038.701866670643
 20
2226.9283628290596
 10
1038.8786796564405
 20
2227.1213203435595
 10
1039.0716371709404
 20
2227.298133329357
 10
1039.2792706909468
 20
2227.4574561328673
 10
1039.5
 20
2227.598076211353
 10
1039.7321452147778
 20
2227.71892336111
 10
1039.973939570023
 20
2227.8190778623575
 10
1040.2235428646925
 20
2227.8977774788673
 10
1040.4790554669992
 20
2227.954423259037
 10
1040.738532771757
 20
2227.988584094275
 10
1041.0
 20
2228.0
 10
1041.261467228243
 20
2227.988584094275
 10
1041.5209445330008
 20
2227.954423259037
 10
1041.7764571353075
 20
2227.8977774788673
 10
1042.026060429977
 20
2227.8190778623575
 10
1042.2678547852222
 20
2227.71892336111
 10
1042.5
 20
2227.598076211353
 10
1042.7207293090532
 20
2227.4574561328673
 10
1042.9283628290596
 20
2227.298133329357
 10
1043.1213203435595
 20
2227.1213203435595
 10
1043.298133329357
 20
2226.9283628290596
 10
1043.457456132867
 20
2226.7207293090532
 10
1043.5980762113534
 20
2226.5
 10
1043.71892336111
 20
2226.267854785222
 10
1043.8190778623577
 20
2226.026060429977
 10
1043.8977774788673
 20
2225.7764571353073
 10
1043.9544232590367
 20
2225.520944533001
 10
1043.9885840942752
 20
2225.261467228243
 10
1044.0
 20
2225.0
  0
LWPOLYLINE
  5
47
330
17
100
AcDbEntity
  8
DRAWING
  6
CONTINUOUS
420
1118481
100
AcDbPolyline
 90
73
 70
1
 10
148.0
 20
2075.0
 10
147.98858409427524
 20
2074.738532771757
 10
147.95442325903662
 20
2074.479055466999
 10
147.8977774788672
 20
2074.2235428646927
 10
147.81907786235772
 20
2073.973939570023
 10
147.71892336110994
 20
2073.732145214778
 10
147.59807621135332
 20
2073.5
 10
147.45745613286698
 20
2073.2792706909468
 10
147.29813332935694
 20
2073.0716371709404
 10
147.12132034355963
 20
2072.8786796564405
 10
146.9283628290596
 20
2072.701866670643
 10
146.72072930905313
 20
2072.5425438671327
 10
146.5
 20
2072.401923788647
 10
146.26785478522208
 20
2072.28107663889
 10
146.026060429977
 20
2072.1809221376425
 10
145.77645713530757
 20
2072.1022225211327
 10
145.5209445330008
 20
2072.045576740963
 10
145.26146722824296
 20
2072.011415905725
 10
145.0
 20
2072.0
 10
144.73853277175704
 20
2072.011415905725
 10
144.4790554669992
 20
2072.045576740963
 10
144.22354286469243
 20
2072.1022225211327
 10
143.973939570023
 20
2072.1809221376425
 10
143.73214521477792
 20
2072.28107663889
 10
143.5
 20
2072.401923788647
 10
143.27927069094687
 20
2072.5425438671327
 10
143.0716371709404
 20
2072.701866670643
 10
142.87867965644037
 20
2072.8786796564405
 10
142.70186667064306
 20
2073.0716371709404
 10
142.54254386713302
 20
2073.2792706909468
 10
142.40192378864668
 20
2073.5
 10
142.28107663889006
 20
2073.732145214778
 10
142.18092213764228
 20
2073.973939570023
 10
142.1022225211328
 20
2074.2235428646927
 10
142.04557674096338
 20
2074.479055466999
 10
142.01141590572476
 20
2074.738532771757
 10
142.0
 20
2075.0
 10
142.01141590572476
 20
2075.261467228243
 10
142.04557674096338
 20
2075.520944533001
 10
142.1022225211328
 20
2075.7764571353073
 10
142.18092213764228
 20
2076.026060429977
 10
142.28107663889006
 20
2076.267854785222
 10
142.40192378864668
 20
2076.5
 10
142.54254386713302
 20
2076.7207293090532
 10
142.70186667064306
 20
2076.9283628290596
 10
142.87867965644037
 20
2077.1213203435595
 10
143.0716371709404
 20
2077.298133329357
 10
143.27927069094687
 20
2077.4574561328673
 10
143.5
 20
2077.598076211353
 10
143.7321452147779
 20
2077.71892336111
 10
143.973939570023
 20
2077.8190778623575
 10
144.22354286469243
 20
2077.8977774788673
 10
144.4790554669992
 20
2077.954423259037
 10
144.73853277175704
 20
2077.988584094275
 10
145.0
 20
2078.0
 10
145.26146722824296
 20
2077.988584094275
 10
145.5209445330008
 20
2077.954423259037
 10
145.77645713530757
 20
2077.8977774788673
 10
146.026060429977
 20
2077.8190778623575
 10
146.26785478522208
 20
2077.71892336111
 10
146.5
 20
2077.598076211353
 10
146.72072930905313
 20
2077.4574561328673
 10
146.9283628290596
 20
2077.298133329357
 10
147.12132034355963
 20
2077.1213203435595
 10
147.29813332935694
 20
2076.9283628290596
 10
147.45745613286698
 20
2076.7207293090532
 10
147.59807621135332
 20
2076.5
 10
147.71892336110994
 20
2076.267854785222
 10
147.81907786235772
 20
2076.026060429977
 10
147.8977774788672
 20
2075.7764571353073
 10
147.95442325903662
 20
2075.520944533001
 10
147.98858409427524
 20
2075.261467228243
 10
148.0
 20
2075.0
  0
LWPOLYLINE
  5
48
330
17
100
AcDbEntity
  8
DRAWING
  6
CONTINUOUS
420
1118481
100
AcDbPolyline
 90
73
 70
1
 10
1044.0
 20
2075.0
 10
1043.9885840942752
 20
2074.738532771757
 10
1043.9544232590367
 20
2074.479055466999
 10
1043.8977774788673
 20
2074.2235428646927
 10
1043.8190778623577
 20
2073.973939570023
 10
1043.71892336111
 20
2073.732145214778
 10
1043.5980762113534
 20
2073.5
 10
1043.457456132867
 20
2073.2792706909468
 10
1043.298133329357
 20
2073.0716371709404
 10
1043.1213203435595
 20
2072.8786796564405
 10
1042.9283628290596
 20
2072.701866670643
 10
1042.7207293090532
 20
2072.5425438671327
 10
1042.5
 20
2072.401923788647
 10
1042.2678547852222
 20
2072.28107663889
 10
1042.026060429977
 20
2072.1809221376425
 10
1041.7764571353075
 20
2072.1022225211327
 10
1041.5209445330008
 20
2072.045576740963
 10
1041.261467228243
 20
2072.011415905725
 10
1041.0
 20
2072.0
 10
1040.738532771757
 20
2072.011415905725
 10
1040.4790554669992
 20
2072.045576740963
 10
1040.2235428646925
 20
2072.1022225211327
 10
1039.973939570023
 20
2072.1809221376425
 10
1039.7321452147778
 20
2072.28107663889
 10
1039.5
 20
2072.401923788647
 10
1039.2792706909468
 20
2072.5425438671327
 10
1039.0716371709404
 20
2072.701866670643
 10
1038.8786796564405
 20
2072.8786796564405
 10
1038.701866670643
 20
2073.0716371709404
 10
1038.542543867133
 20
2073.2792706909468
 10
1038.4019237886466
 20
2073.5
 10
1038.28107663889
 20
2073.732145214778
 10
1038.1809221376423
 20
2073.973939570023
 10
1038.1022225211327
 20
2074.2235428646927
 10
1038.0455767409633
 20
2074.479055466999
 10
1038.0114159057248
 20
2074.738532771757
 10
1038.0
 20
2075.0
 10
1038.0114159057248
 20
2075.261467228243
 10
1038.0455767409633
 20
2075.520944533001
 10
1038.1022225211327
 20
2075.7764571353073
 10
1038.1809221376423
 20
2076.026060429977
 10
1038.28107663889
 20
2076.267854785222
 10
1038.4019237886466
 20
2076.5
 10
1038.542543867133
 20
2076.7207293090532
 10
1038.701866670643
 20
2076.9283628290596
 10
1038.8786796564405
 20
2077.1213203435595
 10
1039.0716371709404
 20
2077.298133329357
 10
1039.2792706909468
 20
2077.4574561328673
 10
1039.5
 20
2077.598076211353
 10
1039.7321452147778
 20
2077.71892336111
 10
1039.973939570023
 20
2077.8190778623575
 10
1040.2235428646925
 20
2077.8977774788673
 10
1040.4790554669992
 20
2077.954423259037
 10
1040.738532771757
 20
2077.988584094275
 10
1041.0
 20
2078.0
 10
1041.261467228243
 20
2077.988584094275
 10
1041.5209445330008
 20
2077.954423259037
 10
1041.7764571353075
 20
2077.8977774788673
 10
1042.026060429977
 20
2077.8190778623575
 10
1042.2678547852222
 20
2077.71892336111
 10
1042.5
 20
2077.598076211353
 10
1042.7207293090532
 20
2077.4574561328673
 10
1042.9283628290596
 20
2077.298133329357
 10
1043.1213203435595
 20
2077.1213203435595
 10
1043.298133329357
 20
2076.9283628290596
 10
1043.457456132867
 20
2076.7207293090532
 10
1043.5980762113534
 20
2076.5
 10
1043.71892336111
 20
2076.267854785222
 10
1043.8190778623577
 20
2076.026060429977
 10
1043.8977774788673
 20
2075.7764571353073
 10
1043.9544232590367
 20
2075.520944533001
 10
1043.9885840942752
 20
2075.261467228243
 10
1044.0
 20
2075.0
  0
LWPOLYLINE
  5
49
330
17
100
AcDbEntity
  8
DRAWING
  6
CONTINUOUS
420
1118481
100
AcDbPolyline
 90
73
 70
1
 10
148.0
 20
1925.0
 10
147.98858409427524
 20
1924.738532771757
 10
147.95442325903662
 20
1924.4790554669992
 10
147.8977774788672
 20
1924.2235428646925
 10
147.81907786235772
 20
1923.973939570023
 10
147.71892336110994
 20
1923.7321452147778
 10
147.59807621135332
 20
1923.5
 10
147.45745613286698
 20
1923.2792706909468
 10
147.29813332935694
 20
1923.0716371709404
 10
147.12132034355963
 20
1922.8786796564405
 10
146.9283628290596
 20
1922.701866670643
 10
146.72072930905313
 20
1922.542543867133
 10
146.5
 20
1922.4019237886466
 10
146.26785478522208
 20
1922.28107663889
 10
146.026060429977
 20
1922.1809221376423
 10
145.77645713530757
 20
1922.1022225211327
 10
145.5209445330008
 20
1922.0455767409633
 10
145.26146722824296
 20
1922.0114159057248
 10
145.0
 20
1922.0
 10
144.73853277175704
 20
1922.0114159057248
 10
144.4790554669992
 20
1922.0455767409633
 10
144.22354286469243
 20
1922.1022225211327
 10
143.973939570023
 20
1922.1809221376423
 10
143.73214521477792
 20
1922.28107663889
 10
143.5
 20
1922.4019237886466
 10
143.27927069094687
 20
1922.542543867133
 10
143.0716371709404
 20
1922.701866670643
 10
142.87867965644037
 20
1922.8786796564405
 10
142.70186667064306
 20
1923.0716371709404
 10
142.54254386713302
 20
1923.2792706909468
 10
142.40192378864668
 20
1923.5
 10
142.28107663889006
 20
1923.7321452147778
 10
142.18092213764228
 20
1923.973939570023
 10
142.1022225211328
 20
1924.2235428646925
 10
142.04557674096338
 20
1924.4790554669992
 10
142.01141590572476
 20
1924.738532771757
 10
142.0
 20
1925.0
 10
142.01141590572476
 20
1925.261467228243
 10
142.04557674096338
 20
1925.5209445330008
 10
142.1022225211328
 20
1925.7764571353075
 10
142.18092213764228
 20
1926.026060429977
 10
142.28107663889006
 20
1926.2678547852222
 10
142.40192378864668
 20
1926.5
 10
142.54254386713302
 20
1926.7207293090532
 10
142.70186667064306
 20
1926.9283628290596
 10
142.87867965644037
 20
1927.1213203435595
 10
143.0716371709404
 20
1927.298133329357
 10
143.27927069094687
 20
1927.457456132867
 10
143.5
 20
1927.5980762113534
 10
143.7321452147779
 20
1927.71892336111
 10
143.973939570023
 20
1927.8190778623577
 10
144.22354286469243
 20
1927.8977774788673
 10
144.4790554669992
 20
1927.9544232590367
 10
144.73853277175704
 20
1927.9885840942752
 10
145.0
 20
1928.0
 10
145.26146722824296
 20
1927.9885840942752
 10
145.5209445330008
 20
1927.9544232590367
 10
145.77645713530757
 20
1927.8977774788673
 10
146.026060429977
 20
1927.8190778623577
 10
146.26785478522208
 20
1927.71892336111
 10
146.5
 20
1927.5980762113534
 10
146.72072930905313
 20
1927.457456132867
 10
146.9283628290596
 20
1927.298133329357
 10
147.12132034355963
 20
1927.1213203435595
 10
147.29813332935694
 20
1926.9283628290596
 10
147.45745613286698
 20
1926.7207293090532
 10
147.59807621135332
 20
1926.5
 10
147.71892336110994
 20
1926.2678547852222
 10
147.81907786235772
 20
1926.026060429977
 10
147.8977774788672
 20
1925.7764571353075
 10
147.95442325903662
 20
1925.5209445330008
 10
147.98858409427524
 20
1925.261467228243
 10
148.0
 20
1925.0
  0
LWPOLYLINE
  5
4A
330
17
100
AcDbEntity
  8
DRAWING
  6
CONTINUOUS
420
1118481
100
AcDbPolyline
 90
73
 70
1
 10
1044.0
 20
1925.0
 10
1043.9885840942752
 20
1924.738532771757
 10
1043.9544232590367
 20
1924.4790554669992
 10
1043.8977774788673
 20
1924.2235428646925
 10
1043.8190778623577
 20
1923.973939570023
 10
1043.71892336111
 20
1923.7321452147778
 10
1043.5980762113534
 20
1923.5
 10
1043.457456132867
 20
1923.2792706909468
 10
1043.298133329357
 20
1923.0716371709404
 10
1043.1213203435595
 20
1922.8786796564405
 10
1042.9283628290596
 20
1922.701866670643
 10
1042.7207293090532
 20
1922.542543867133
 10
1042.5
 20
1922.4019237886466
 10
1042.2678547852222
 20
1922.28107663889
 10
1042.026060429977
 20
1922.1809221376423
 10
1041.7764571353075
 20
1922.1022225211327
 10
1041.5209445330008
 20
1922.0455767409633
 10
1041.261467228243
 20
1922.0114159057248
 10
1041.0
 20
1922.0
 10
1040.738532771757
 20
1922.0114159057248
 10
1040.4790554669992
 20
1922.0455767409633
 10
1040.2235428646925
 20
1922.1022225211327
 10
1039.973939570023
 20
1922.1809221376423
 10
1039.7321452147778
 20
1922.28107663889
 10
1039.5
 20
1922.4019237886466
 10
1039.2792706909468
 20
1922.542543867133
 10
1039.0716371709404
 20
1922.701866670643
 10
1038.8786796564405
 20
1922.8786796564405
 10
1038.701866670643
 20
1923.0716371709404
 10
1038.542543867133
 20
1923.2792706909468
 10
1038.4019237886466
 20
1923.5
 10
1038.28107663889
 20
1923.7321452147778
 10
1038.1809221376423
 20
1923.973939570023
 10
1038.1022225211327
 20
1924.2235428646925
 10
1038.0455767409633
 20
1924.4790554669992
 10
1038.0114159057248
 20
1924.738532771757
 10
1038.0
 20
1925.0
 10
1038.0114159057248
 20
1925.261467228243
 10
1038.0455767409633
 20
1925.5209445330008
 10
1038.1022225211327
 20
1925.7764571353075
 10
1038.1809221376423
 20
1926.026060429977
 10
1038.28107663889
 20
1926.2678547852222
 10
1038.4019237886466
 20
1926.5
 10
1038.542543867133
 20
1926.7207293090532
 10
1038.701866670643
 20
1926.9283628290596
 10
1038.8786796564405
 20
1927.1213203435595
 10
1039.0716371709404
 20
1927.298133329357
 10
1039.2792706909468
 20
1927.457456132867
 10
1039.5
 20
1927.5980762113534
 10
1039.7321452147778
 20
1927.71892336111
 10
1039.973939570023
 20
1927.8190778623577
 10
1040.2235428646925
 20
1927.8977774788673
 10
1040.4790554669992
 20
1927.9544232590367
 10
1040.738532771757
 20
1927.9885840942752
 10
1041.0
 20
1928.0
 10
1041.261467228243
 20
1927.9885840942752
 10
1041.5209445330008
 20
1927.9544232590367
 10
1041.7764571353075
 20
1927.8977774788673
 10
1042.026060429977
 20
1927.8190778623577
 10
1042.2678547852222
 20
1927.71892336111
 10
1042.5
 20
1927.5980762113534
 10
1042.7207293090532
 20
1927.457456132867
 10
1042.9283628290596
 20
1927.298133329357
 10
1043.1213203435595
 20
1927.1213203435595
 10
1043.298133329357
 20
1926.9283628290596
 10
1043.457456132867
 20
1926.7207293090532
 10
1043.5980762113534
 20
1926.5
 10
1043.71892336111
 20
1926.2678547852222
 10
1043.8190778623577
 20
1926.026060429977
 10
1043.8977774788673
 20
1925.7764571353075
 10
1043.9544232590367
 20
1925.5209445330008
 10
1043.9885840942752
 20
1925.261467228243
 10
1044.0
 20
1925.0
  0
LWPOLYLINE
  5
4B
330
17
100
AcDbEntity
  8
DRAWING
  6
CONTINUOUS
420
1118481
100
AcDbPolyline
 90
73
 70
1
 10
148.0
 20
1775.0
 10
147.98858409427524
 20
1774.738532771757
 10
147.95442325903662
 20
1774.4790554669992
 10
147.8977774788672
 20
1774.2235428646925
 10
147.81907786235772
 20
1773.973939570023
 10
147.71892336110994
 20
1773.7321452147778
 10
147.59807621135332
 20
1773.5
 10
147.45745613286698
 20
1773.2792706909468
 10
147.29813332935694
 20
1773.0716371709404
 10
147.12132034355963
 20
1772.8786796564405
 10
146.9283628290596
 20
1772.701866670643
 10
146.72072930905313
 20
1772.542543867133
 10
146.5
 20
1772.4019237886466
 10
146.26785478522208
 20
1772.28107663889
 10
146.026060429977
 20
1772.1809221376423
 10
145.77645713530757
 20
1772.1022225211327
 10
145.5209445330008
 20
1772.0455767409633
 10
145.26146722824296
 20
1772.0114159057248
 10
145.0
 20
1772.0
 10
144.73853277175704
 20
1772.0114159057248
 10
144.4790554669992
 20
1772.0455767409633
 10
144.22354286469243
 20
1772.1022225211327
 10
143.973939570023
 20
1772.1809221376423
 10
143.73214521477792
 20
1772.28107663889
 10
143.5
 20
1772.4019237886466
 10
143.27927069094687
 20
1772.542543867133
 10
143.0716371709404
 20
1772.701866670643
 10
142.87867965644037
 20
1772.8786796564405
 10
142.70186667064306
 20
1773.0716371709404
 10
142.54254386713302
 20
1773.2792706909468
 10
142.40192378864668
 20
1773.5
 10
142.28107663889006
 20
1773.7321452147778
 10
142.18092213764228
 20
1773.973939570023
 10
142.1022225211328
 20
1774.2235428646925
 10
142.04557674096338
 20
1774.4790554669992
 10
142.01141590572476
 20
1774.738532771757
 10
142.0
 20
1775.0
 10
142.01141590572476
 20
1775.261467228243
 10
142.04557674096338
 20
1775.5209445330008
 10
142.1022225211328
 20
1775.7764571353075
 10
142.18092213764228
 20
1776.026060429977
 10
142.28107663889006
 20
1776.2678547852222
 10
142.40192378864668
 20
1776.5
 10
142.54254386713302
 20
1776.7207293090532
 10
142.70186667064306
 20
1776.9283628290596
 10
142.87867965644037
 20
1777.1213203435595
 10
143.0716371709404
 20
1777.298133329357
 10
143.27927069094687
 20
1777.457456132867
 10
143.5
 20
1777.5980762113534
 10
143.7321452147779
 20
1777.71892336111
 10
143.973939570023
 20
1777.8190778623577
 10
144.22354286469243
 20
1777.8977774788673
 10
144.4790554669992
 20
1777.9544232590367
 10
144.73853277175704
 20
1777.9885840942752
 10
145.0
 20
1778.0
 10
145.26146722824296
 20
1777.9885840942752
 10
145.5209445330008
 20
1777.9544232590367
 10
145.77645713530757
 20
1777.8977774788673
 10
146.026060429977
 20
1777.8190778623577
 10
146.26785478522208
 20
1777.71892336111
 10
146.5
 20
1777.5980762113534
 10
146.72072930905313
 20
1777.457456132867
 10
146.9283628290596
 20
1777.298133329357
 10
147.12132034355963
 20
1777.1213203435595
 10
147.29813332935694
 20
1776.9283628290596
 10
147.45745613286698
 20
1776.7207293090532
 10
147.59807621135332
 20
1776.5
 10
147.71892336110994
 20
1776.2678547852222
 10
147.81907786235772
 20
1776.026060429977
 10
147.8977774788672
 20
1775.7764571353075
 10
147.95442325903662
 20
1775.5209445330008
 10
147.98858409427524
 20
1775.261467228243
 10
148.0
 20
1775.0
  0
LWPOLYLINE
  5
4C
330
17
100
AcDbEntity
  8
DRAWING
  6
CONTINUOUS
420
1118481
100
AcDbPolyline
 90
73
 70
1
 10
1044.0
 20
1775.0
 10
1043.9885840942752
 20
1774.738532771757
 10
1043.9544232590367
 20
1774.4790554669992
 10
1043.8977774788673
 20
1774.2235428646925
 10
1043.8190778623577
 20
1773.973939570023
 10
1043.71892336111
 20
1773.7321452147778
 10
1043.5980762113534
 20
1773.5
 10
1043.457456132867
 20
1773.2792706909468
 10
1043.298133329357
 20
1773.0716371709404
 10
1043.1213203435595
 20
1772.8786796564405
 10
1042.9283628290596
 20
1772.701866670643
 10
1042.7207293090532
 20
1772.542543867133
 10
1042.5
 20
1772.4019237886466
 10
1042.2678547852222
 20
1772.28107663889
 10
1042.026060429977
 20
1772.1809221376423
 10
1041.7764571353075
 20
1772.1022225211327
 10
1041.5209445330008
 20
1772.0455767409633
 10
1041.261467228243
 20
1772.0114159057248
 10
1041.0
 20
1772.0
 10
1040.738532771757
 20
1772.0114159057248
 10
1040.4790554669992
 20
1772.0455767409633
 10
1040.2235428646925
 20
1772.1022225211327
 10
1039.973939570023
 20
1772.1809221376423
 10
1039.7321452147778
 20
1772.28107663889
 10
1039.5
 20
1772.4019237886466
 10
1039.2792706909468
 20
1772.542543867133
 10
1039.0716371709404
 20
1772.701866670643
 10
1038.8786796564405
 20
1772.8786796564405
 10
1038.701866670643
 20
1773.0716371709404
 10
1038.542543867133
 20
1773.2792706909468
 10
1038.4019237886466
 20
1773.5
 10
1038.28107663889
 20
1773.7321452147778
 10
1038.1809221376423
 20
1773.973939570023
 10
1038.1022225211327
 20
1774.2235428646925
 10
1038.0455767409633
 20
1774.4790554669992
 10
1038.0114159057248
 20
1774.738532771757
 10
1038.0
 20
1775.0
 10
1038.0114159057248
 20
1775.261467228243
 10
1038.0455767409633
 20
1775.5209445330008
 10
1038.1022225211327
 20
1775.7764571353075
 10
1038.1809221376423
 20
1776.026060429977
 10
1038.28107663889
 20
1776.2678547852222
 10
1038.4019237886466
 20
1776.5
 10
1038.542543867133
 20
1776.7207293090532
 10
1038.701866670643
 20
1776.9283628290596
 10
1038.8786796564405
 20
1777.1213203435595
 10
1039.0716371709404
 20
1777.298133329357
 10
1039.2792706909468
 20
1777.457456132867
 10
1039.5
 20
1777.5980762113534
 10
1039.7321452147778
 20
1777.71892336111
 10
1039.973939570023
 20
1777.8190778623577
 10
1040.2235428646925
 20
1777.8977774788673
 10
1040.4790554669992
 20
1777.9544232590367
 10
1040.738532771757
 20
1777.9885840942752
 10
1041.0
 20
1778.0
 10
1041.261467228243
 20
1777.9885840942752
 10
1041.5209445330008
 20
1777.9544232590367
 10
1041.7764571353075
 20
1777.8977774788673
 10
1042.026060429977
 20
1777.8190778623577
 10
1042.2678547852222
 20
1777.71892336111
 10
1042.5
 20
1777.5980762113534
 10
1042.7207293090532
 20
1777.457456132867
 10
1042.9283628290596
 20
1777.298133329357
 10
1043.1213203435595
 20
1777.1213203435595
 10
1043.298133329357
 20
1776.9283628290596
 10
1043.457456132867
 20
1776.7207293090532
 10
1043.5980762113534
 20
1776.5
 10
1043.71892336111
 20
1776.2678547852222
 10
1043.8190778623577
 20
1776.026060429977
 10
1043.8977774788673
 20
1775.7764571353075
 10
1043.9544232590367
 20
1775.5209445330008
 10
1043.9885840942752
 20
1775.261467228243
 10
1044.0
 20
1775.0
  0
LWPOLYLINE
  5
4D
330
17
100
AcDbEntity
  8
DRAWING
  6
CONTINUOUS
420
1118481
100
AcDbPolyline
 90
73
 70
1
 10
148.0
 20
1625.0
 10
147.98858409427524
 20
1624.738532771757
 10
147.95442325903662
 20
1624.4790554669992
 10
147.8977774788672
 20
1624.2235428646925
 10
147.81907786235772
 20
1623.973939570023
 10
147.71892336110994
 20
1623.7321452147778
 10
147.59807621135332
 20
1623.5
 10
147.45745613286698
 20
1623.2792706909468
 10
147.29813332935694
 20
1623.0716371709404
 10
147.12132034355963
 20
1622.8786796564405
 10
146.9283628290596
 20
1622.701866670643
 10
146.72072930905313
 20
1622.542543867133
 10
146.5
 20
1622.4019237886466
 10
146.26785478522208
 20
1622.28107663889
 10
146.026060429977
 20
1622.1809221376423
 10
145.77645713530757
 20
1622.1022225211327
 10
145.5209445330008
 20
1622.0455767409633
 10
145.26146722824296
 20
1622.0114159057248
 10
145.0
 20
1622.0
 10
144.73853277175704
 20
1622.0114159057248
 10
144.4790554669992
 20
1622.0455767409633
 10
144.22354286469243
 20
1622.1022225211327
 10
143.973939570023
 20
1622.1809221376423
 10
143.73214521477792
 20
1622.28107663889
 10
143.5
 20
1622.4019237886466
 10
143.27927069094687
 20
1622.542543867133
 10
143.0716371709404
 20
1622.701866670643
 10
142.87867965644037
 20
1622.8786796564405
 10
142.70186667064306
 20
1623.0716371709404
 10
142.54254386713302
 20
1623.2792706909468
 10
142.40192378864668
 20
1623.5
 10
142.28107663889006
 20
1623.7321452147778
 10
142.18092213764228
 20
1623.973939570023
 10
142.1022225211328
 20
1624.2235428646925
 10
142.04557674096338
 20
1624.4790554669992
 10
142.01141590572476
 20
1624.738532771757
 10
142.0
 20
1625.0
 10
142.01141590572476
 20
1625.261467228243
 10
142.04557674096338
 20
1625.5209445330008
 10
142.1022225211328
 20
1625.7764571353075
 10
142.18092213764228
 20
1626.026060429977
 10
142.28107663889006
 20
1626.2678547852222
 10
142.40192378864668
 20
1626.5
 10
142.54254386713302
 20
1626.7207293090532
 10
142.70186667064306
 20
1626.9283628290596
 10
142.87867965644037
 20
1627.1213203435595
 10
143.0716371709404
 20
1627.298133329357
 10
143.27927069094687
 20
1627.457456132867
 10
143.5
 20
1627.5980762113534
 10
143.7321452147779
 20
1627.71892336111
 10
143.973939570023
 20
1627.8190778623577
 10
144.22354286469243
 20
1627.8977774788673
 10
144.4790554669992
 20
1627.9544232590367
 10
144.73853277175704
 20
1627.9885840942752
 10
145.0
 20
1628.0
 10
145.26146722824296
 20
1627.9885840942752
 10
145.5209445330008
 20
1627.9544232590367
 10
145.77645713530757
 20
1627.8977774788673
 10
146.026060429977
 20
1627.8190778623577
 10
146.26785478522208
 20
1627.71892336111
 10
146.5
 20
1627.5980762113534
 10
146.72072930905313
 20
1627.457456132867
 10
146.9283628290596
 20
1627.298133329357
 10
147.12132034355963
 20
1627.1213203435595
 10
147.29813332935694
 20
1626.9283628290596
 10
147.45745613286698
 20
1626.7207293090532
 10
147.59807621135332
 20
1626.5
 10
147.71892336110994
 20
1626.2678547852222
 10
147.81907786235772
 20
1626.026060429977
 10
147.8977774788672
 20
1625.7764571353075
 10
147.95442325903662
 20
1625.5209445330008
 10
147.98858409427524
 20
1625.261467228243
 10
148.0
 20
1625.0
  0
LWPOLYLINE
  5
4E
330
17
100
AcDbEntity
  8
DRAWING
  6
CONTINUOUS
420
1118481
100
AcDbPolyline
 90
73
 70
1
 10
1044.0
 20
1625.0
 10
1043.9885840942752
 20
1624.738532771757
 10
1043.9544232590367
 20
1624.4790554669992
 10
1043.8977774788673
 20
1624.2235428646925
 10
1043.8190778623577
 20
1623.973939570023
 10
1043.71892336111
 20
1623.7321452147778
 10
1043.5980762113534
 20
1623.5
 10
1043.457456132867
 20
1623.2792706909468
 10
1043.298133329357
 20
1623.0716371709404
 10
1043.1213203435595
 20
1622.8786796564405
 10
1042.9283628290596
 20
1622.701866670643
 10
1042.7207293090532
 20
1622.542543867133
 10
1042.5
 20
1622.4019237886466
 10
1042.2678547852222
 20
1622.28107663889
 10
1042.026060429977
 20
1622.1809221376423
 10
1041.7764571353075
 20
1622.1022225211327
 10
1041.5209445330008
 20
1622.0455767409633
 10
1041.261467228243
 20
1622.0114159057248
 10
1041.0
 20
1622.0
 10
1040.738532771757
 20
1622.0114159057248
 10
1040.4790554669992
 20
1622.0455767409633
 10
1040.2235428646925
 20
1622.1022225211327
 10
1039.973939570023
 20
1622.1809221376423
 10
1039.7321452147778
 20
1622.28107663889
 10
1039.5
 20
1622.4019237886466
 10
1039.2792706909468
 20
1622.542543867133
 10
1039.0716371709404
 20
1622.701866670643
 10
1038.8786796564405
 20
1622.8786796564405
 10
1038.701866670643
 20
1623.0716371709404
 10
1038.542543867133
 20
1623.2792706909468
 10
1038.4019237886466
 20
1623.5
 10
1038.28107663889
 20
1623.7321452147778
 10
1038.1809221376423
 20
1623.973939570023
 10
1038.1022225211327
 20
1624.2235428646925
 10
1038.0455767409633
 20
1624.4790554669992
 10
1038.0114159057248
 20
1624.738532771757
 10
1038.0
 20
1625.0
 10
1038.0114159057248
 20
1625.261467228243
 10
1038.0455767409633
 20
1625.5209445330008
 10
1038.1022225211327
 20
1625.7764571353075
 10
1038.1809221376423
 20
1626.026060429977
 10
1038.28107663889
 20
1626.2678547852222
 10
1038.4019237886466
 20
1626.5
 10
1038.542543867133
 20
1626.7207293090532
 10
1038.701866670643
 20
1626.9283628290596
 10
1038.8786796564405
 20
1627.1213203435595
 10
1039.0716371709404
 20
1627.298133329357
 10
1039.2792706909468
 20
1627.457456132867
 10
1039.5
 20
1627.5980762113534
 10
1039.7321452147778
 20
1627.71892336111
 10
1039.973939570023
 20
1627.8190778623577
 10
1040.2235428646925
 20
1627.8977774788673
 10
1040.4790554669992
 20
1627.9544232590367
 10
1040.738532771757
 20
1627.9885840942752
 10
1041.0
 20
1628.0
 10
1041.261467228243
 20
1627.9885840942752
 10
1041.5209445330008
 20
1627.9544232590367
 10
1041.7764571353075
 20
1627.8977774788673
 10
1042.026060429977
 20
1627.8190778623577
 10
1042.2678547852222
 20
1627.71892336111
 10
1042.5
 20
1627.5980762113534
 10
1042.7207293090532
 20
1627.457456132867
 10
1042.9283628290596
 20
1627.298133329357
 10
1043.1213203435595
 20
1627.1213203435595
 10
1043.298133329357
 20
1626.9283628290596
 10
1043.457456132867
 20
1626.7207293090532
 10
1043.5980762113534
 20
1626.5
 10
1043.71892336111
 20
1626.2678547852222
 10
1043.8190778623577
 20
1626.026060429977
 10
1043.8977774788673
 20
1625.7764571353075
 10
1043.9544232590367
 20
1625.5209445330008
 10
1043.9885840942752
 20
1625.261467228243
 10
1044.0
 20
1625.0
  0
LWPOLYLINE
  5
4F
330
17
100
AcDbEntity
  8
DRAWING
  6
CONTINUOUS
420
1118481
100
AcDbPolyline
 90
73
 70
1
 10
148.0
 20
1475.0
 10
147.98858409427524
 20
1474.738532771757
 10
147.95442325903662
 20
1474.4790554669992
 10
147.8977774788672
 20
1474.2235428646925
 10
147.81907786235772
 20
1473.973939570023
 10
147.71892336110994
 20
1473.7321452147778
 10
147.59807621135332
 20
1473.5
 10
147.45745613286698
 20
1473.2792706909468
 10
147.29813332935694
 20
1473.0716371709404
 10
147.12132034355963
 20
1472.8786796564405
 10
146.9283628290596
 20
1472.701866670643
 10
146.72072930905313
 20
1472.542543867133
 10
146.5
 20
1472.4019237886466
 10
146.26785478522208
 20
1472.28107663889
 10
146.026060429977
 20
1472.1809221376423
 10
145.77645713530757
 20
1472.1022225211327
 10
145.5209445330008
 20
1472.0455767409633
 10
145.26146722824296
 20
1472.0114159057248
 10
145.0
 20
1472.0
 10
144.73853277175704
 20
1472.0114159057248
 10
144.4790554669992
 20
1472.0455767409633
 10
144.22354286469243
 20
1472.1022225211327
 10
143.973939570023
 20
1472.1809221376423
 10
143.73214521477792
 20
1472.28107663889
 10
143.5
 20
1472.4019237886466
 10
143.27927069094687
 20
1472.542543867133
 10
143.0716371709404
 20
1472.701866670643
 10
142.87867965644037
 20
1472.8786796564405
 10
142.70186667064306
 20
1473.0716371709404
 10
142.54254386713302
 20
1473.2792706909468
 10
142.40192378864668
 20
1473.5
 10
142.28107663889006
 20
1473.7321452147778
 10
142.18092213764228
 20
1473.973939570023
 10
142.1022225211328
 20
1474.2235428646925
 10
142.04557674096338
 20
1474.4790554669992
 10
142.01141590572476
 20
1474.738532771757
 10
142.0
 20
1475.0
 10
142.01141590572476
 20
1475.261467228243
 10
142.04557674096338
 20
1475.5209445330008
 10
142.1022225211328
 20
1475.7764571353075
 10
142.18092213764228
 20
1476.026060429977
 10
142.28107663889006
 20
1476.2678547852222
 10
142.40192378864668
 20
1476.5
 10
142.54254386713302
 20
1476.7207293090532
 10
142.70186667064306
 20
1476.9283628290596
 10
142.87867965644037
 20
1477.1213203435595
 10
143.0716371709404
 20
1477.298133329357
 10
143.27927069094687
 20
1477.457456132867
 10
143.5
 20
1477.5980762113534
 10
143.7321452147779
 20
1477.71892336111
 10
143.973939570023
 20
1477.8190778623577
 10
144.22354286469243
 20
1477.8977774788673
 10
144.4790554669992
 20
1477.9544232590367
 10
144.73853277175704
 20
1477.9885840942752
 10
145.0
 20
1478.0
 10
145.26146722824296
 20
1477.9885840942752
 10
145.5209445330008
 20
1477.9544232590367
 10
145.77645713530757
 20
1477.8977774788673
 10
146.026060429977
 20
1477.8190778623577
 10
146.26785478522208
 20
1477.71892336111
 10
146.5
 20
1477.5980762113534
 10
146.72072930905313
 20
1477.457456132867
 10
146.9283628290596
 20
1477.298133329357
 10
147.12132034355963
 20
1477.1213203435595
 10
147.29813332935694
 20
1476.9283628290596
 10
147.45745613286698
 20
1476.7207293090532
 10
147.59807621135332
 20
1476.5
 10
147.71892336110994
 20
1476.2678547852222
 10
147.81907786235772
 20
1476.026060429977
 10
147.8977774788672
 20
1475.7764571353075
 10
147.95442325903662
 20
1475.5209445330008
 10
147.98858409427524
 20
1475.261467228243
 10
148.0
 20
1475.0
  0
LWPOLYLINE
  5
50
330
17
100
AcDbEntity
  8
DRAWING
  6
CONTINUOUS
420
1118481
100
AcDbPolyline
 90
73
 70
1
 10
1044.0
 20
1475.0
 10
1043.9885840942752
 20
1474.738532771757
 10
1043.9544232590367
 20
1474.4790554669992
 10
1043.8977774788673
 20
1474.2235428646925
 10
1043.8190778623577
 20
1473.973939570023
 10
1043.71892336111
 20
1473.7321452147778
 10
1043.5980762113534
 20
1473.5
 10
1043.457456132867
 20
1473.2792706909468
 10
1043.298133329357
 20
1473.0716371709404
 10
1043.1213203435595
 20
1472.8786796564405
 10
1042.9283628290596
 20
1472.701866670643
 10
1042.7207293090532
 20
1472.542543867133
 10
1042.5
 20
1472.4019237886466
 10
1042.2678547852222
 20
1472.28107663889
 10
1042.026060429977
 20
1472.1809221376423
 10
1041.7764571353075
 20
1472.1022225211327
 10
1041.5209445330008
 20
1472.0455767409633
 10
1041.261467228243
 20
1472.0114159057248
 10
1041.0
 20
1472.0
 10
1040.738532771757
 20
1472.0114159057248
 10
1040.4790554669992
 20
1472.0455767409633
 10
1040.2235428646925
 20
1472.1022225211327
 10
1039.973939570023
 20
1472.1809221376423
 10
1039.7321452147778
 20
1472.28107663889
 10
1039.5
 20
1472.4019237886466
 10
1039.2792706909468
 20
1472.542543867133
 10
1039.0716371709404
 20
1472.701866670643
 10
1038.8786796564405
 20
1472.8786796564405
 10
1038.701866670643
 20
1473.0716371709404
 10
1038.542543867133
 20
1473.2792706909468
 10
1038.4019237886466
 20
1473.5
 10
1038.28107663889
 20
1473.7321452147778
 10
1038.1809221376423
 20
1473.973939570023
 10
1038.1022225211327
 20
1474.2235428646925
 10
1038.0455767409633
 20
1474.4790554669992
 10
1038.0114159057248
 20
1474.738532771757
 10
1038.0
 20
1475.0
 10
1038.0114159057248
 20
1475.261467228243
 10
1038.0455767409633
 20
1475.5209445330008
 10
1038.1022225211327
 20
1475.7764571353075
 10
1038.1809221376423
 20
1476.026060429977
 10
1038.28107663889
 20
1476.2678547852222
 10
1038.4019237886466
 20
1476.5
 10
1038.542543867133
 20
1476.7207293090532
 10
1038.701866670643
 20
1476.9283628290596
 10
1038.8786796564405
 20
1477.1213203435595
 10
1039.0716371709404
 20
1477.298133329357
 10
1039.2792706909468
 20
1477.457456132867
 10
1039.5
 20
1477.5980762113534
 10
1039.7321452147778
 20
1477.71892336111
 10
1039.973939570023
 20
1477.8190778623577
 10
1040.2235428646925
 20
1477.8977774788673
 10
1040.4790554669992
 20
1477.9544232590367
 10
1040.738532771757
 20
1477.9885840942752
 10
1041.0
 20
1478.0
 10
1041.261467228243
 20
1477.9885840942752
 10
1041.5209445330008
 20
1477.9544232590367
 10
1041.7764571353075
 20
1477.8977774788673
 10
1042.026060429977
 20
1477.8190778623577
 10
1042.2678547852222
 20
1477.71892336111
 10
1042.5
 20
1477.5980762113534
 10
1042.7207293090532
 20
1477.457456132867
 10
1042.9283628290596
 20
1477.298133329357
 10
1043.1213203435595
 20
1477.1213203435595
 10
1043.298133329357
 20
1476.9283628290596
 10
1043.457456132867
 20
1476.7207293090532
 10
1043.5980762113534
 20
1476.5
 10
1043.71892336111
 20
1476.2678547852222
 10
1043.8190778623577
 20
1476.026060429977
 10
1043.8977774788673
 20
1475.7764571353075
 10
1043.9544232590367
 20
1475.5209445330008
 10
1043.9885840942752
 20
1475.261467228243
 10
1044.0
 20
1475.0
  0
LWPOLYLINE
  5
51
330
17
100
AcDbEntity
  8
DRAWING
  6
CONTINUOUS
420
1118481
100
AcDbPolyline
 90
73
 70
1
 10
148.0
 20
1325.0
 10
147.98858409427524
 20
1324.738532771757
 10
147.95442325903662
 20
1324.4790554669992
 10
147.8977774788672
 20
1324.2235428646925
 10
147.81907786235772
 20
1323.973939570023
 10
147.71892336110994
 20
1323.7321452147778
 10
147.59807621135332
 20
1323.5
 10
147.45745613286698
 20
1323.2792706909468
 10
147.29813332935694
 20
1323.0716371709404
 10
147.12132034355963
 20
1322.8786796564405
 10
146.9283628290596
 20
1322.701866670643
 10
146.72072930905313
 20
1322.542543867133
 10
146.5
 20
1322.4019237886466
 10
146.26785478522208
 20
1322.28107663889
 10
146.026060429977
 20
1322.1809221376423
 10
145.77645713530757
 20
1322.1022225211327
 10
145.5209445330008
 20
1322.0455767409633
 10
145.26146722824296
 20
1322.0114159057248
 10
145.0
 20
1322.0
 10
144.73853277175704
 20
1322.0114159057248
 10
144.4790554669992
 20
1322.0455767409633
 10
144.22354286469243
 20
1322.1022225211327
 10
143.973939570023
 20
1322.1809221376423
 10
143.73214521477792
 20
1322.28107663889
 10
143.5
 20
1322.4019237886466
 10
143.27927069094687
 20
1322.542543867133
 10
143.0716371709404
 20
1322.701866670643
 10
142.87867965644037
 20
1322.8786796564405
 10
142.70186667064306
 20
1323.0716371709404
 10
142.54254386713302
 20
1323.2792706909468
 10
142.40192378864668
 20
1323.5
 10
142.28107663889006
 20
1323.7321452147778
 10
142.18092213764228
 20
1323.973939570023
 10
142.1022225211328
 20
1324.2235428646925
 10
142.04557674096338
 20
1324.4790554669992
 10
142.01141590572476
 20
1324.738532771757
 10
142.0
 20
1325.0
 10
142.01141590572476
 20
1325.261467228243
 10
142.04557674096338
 20
1325.5209445330008
 10
142.1022225211328
 20
1325.7764571353075
 10
142.18092213764228
 20
1326.026060429977
 10
142.28107663889006
 20
1326.2678547852222
 10
142.40192378864668
 20
1326.5
 10
142.54254386713302
 20
1326.7207293090532
 10
142.70186667064306
 20
1326.9283628290596
 10
142.87867965644037
 20
1327.1213203435595
 10
143.0716371709404
 20
1327.298133329357
 10
143.27927069094687
 20
1327.457456132867
 10
143.5
 20
1327.5980762113534
 10
143.7321452147779
 20
1327.71892336111
 10
143.973939570023
 20
1327.8190778623577
 10
144.22354286469243
 20
1327.8977774788673
 10
144.4790554669992
 20
1327.9544232590367
 10
144.73853277175704
 20
1327.9885840942752
 10
145.0
 20
1328.0
 10
145.26146722824296
 20
1327.9885840942752
 10
145.5209445330008
 20
1327.9544232590367
 10
145.77645713530757
 20
1327.8977774788673
 10
146.026060429977
 20
1327.8190778623577
 10
146.26785478522208
 20
1327.71892336111
 10
146.5
 20
1327.5980762113534
 10
146.72072930905313
 20
1327.457456132867
 10
146.9283628290596
 20
1327.298133329357
 10
147.12132034355963
 20
1327.1213203435595
 10
147.29813332935694
 20
1326.9283628290596
 10
147.45745613286698
 20
1326.7207293090532
 10
147.59807621135332
 20
1326.5
 10
147.71892336110994
 20
1326.2678547852222
 10
147.81907786235772
 20
1326.026060429977
 10
147.8977774788672
 20
1325.7764571353075
 10
147.95442325903662
 20
1325.5209445330008
 10
147.98858409427524
 20
1325.261467228243
 10
148.0
 20
1325.0
  0
LWPOLYLINE
  5
52
330
17
100
AcDbEntity
  8
DRAWING
  6
CONTINUOUS
420
1118481
100
AcDbPolyline
 90
73
 70
1
 10
1044.0
 20
1325.0
 10
1043.9885840942752
 20
1324.738532771757
 10
1043.9544232590367
 20
1324.4790554669992
 10
1043.8977774788673
 20
1324.2235428646925
 10
1043.8190778623577
 20
1323.973939570023
 10
1043.71892336111
 20
1323.7321452147778
 10
1043.5980762113534
 20
1323.5
 10
1043.457456132867
 20
1323.2792706909468
 10
1043.298133329357
 20
1323.0716371709404
 10
1043.1213203435595
 20
1322.8786796564405
 10
1042.9283628290596
 20
1322.701866670643
 10
1042.7207293090532
 20
1322.542543867133
 10
1042.5
 20
1322.4019237886466
 10
1042.2678547852222
 20
1322.28107663889
 10
1042.026060429977
 20
1322.1809221376423
 10
1041.7764571353075
 20
1322.1022225211327
 10
1041.5209445330008
 20
1322.0455767409633
 10
1041.261467228243
 20
1322.0114159057248
 10
1041.0
 20
1322.0
 10
1040.738532771757
 20
1322.0114159057248
 10
1040.4790554669992
 20
1322.0455767409633
 10
1040.2235428646925
 20
1322.1022225211327
 10
1039.973939570023
 20
1322.1809221376423
 10
1039.7321452147778
 20
1322.28107663889
 10
1039.5
 20
1322.4019237886466
 10
1039.2792706909468
 20
1322.542543867133
 10
1039.0716371709404
 20
1322.701866670643
 10
1038.8786796564405
 20
1322.8786796564405
 10
1038.701866670643
 20
1323.0716371709404
 10
1038.542543867133
 20
1323.2792706909468
 10
1038.4019237886466
 20
1323.5
 10
1038.28107663889
 20
1323.7321452147778
 10
1038.1809221376423
 20
1323.973939570023
 10
1038.1022225211327
 20
1324.2235428646925
 10
1038.0455767409633
 20
1324.4790554669992
 10
1038.0114159057248
 20
1324.738532771757
 10
1038.0
 20
1325.0
 10
1038.0114159057248
 20
1325.261467228243
 10
1038.0455767409633
 20
1325.5209445330008
 10
1038.1022225211327
 20
1325.7764571353075
 10
1038.1809221376423
 20
1326.026060429977
 10
1038.28107663889
 20
1326.2678547852222
 10
1038.4019237886466
 20
1326.5
 10
1038.542543867133
 20
1326.7207293090532
 10
1038.701866670643
 20
1326.9283628290596
 10
1038.8786796564405
 20
1327.1213203435595
 10
1039.0716371709404
 20
1327.298133329357
 10
1039.2792706909468
 20
1327.457456132867
 10
1039.5
 20
1327.5980762113534
 10
1039.7321452147778
 20
1327.71892336111
 10
1039.973939570023
 20
1327.8190778623577
 10
1040.2235428646925
 20
1327.8977774788673
 10
1040.4790554669992
 20
1327.9544232590367
 10
1040.738532771757
 20
1327.9885840942752
 10
1041.0
 20
1328.0
 10
1041.261467228243
 20
1327.9885840942752
 10
1041.5209445330008
 20
1327.9544232590367
 10
1041.7764571353075
 20
1327.8977774788673
 10
1042.026060429977
 20
1327.8190778623577
 10
1042.2678547852222
 20
1327.71892336111
 10
1042.5
 20
1327.5980762113534
 10
1042.7207293090532
 20
1327.457456132867
 10
1042.9283628290596
 20
1327.298133329357
 10
1043.1213203435595
 20
1327.1213203435595
 10
1043.298133329357
 20
1326.9283628290596
 10
1043.457456132867
 20
1326.7207293090532
 10
1043.5980762113534
 20
1326.5
 10
1043.71892336111
 20
1326.2678547852222
 10
1043.8190778623577
 20
1326.026060429977
 10
1043.8977774788673
 20
1325.7764571353075
 10
1043.9544232590367
 20
1325.5209445330008
 10
1043.9885840942752
 20
1325.261467228243
 10
1044.0
 20
1325.0
  0
LWPOLYLINE
  5
53
330
17
100
AcDbEntity
  8
DRAWING
  6
CONTINUOUS
420
1118481
100
AcDbPolyline
 90
73
 70
1
 10
148.0
 20
1175.0
 10
147.98858409427524
 20
1174.738532771757
 10
147.95442325903662
 20
1174.4790554669994
 10
147.8977774788672
 20
1174.2235428646923
 10
147.81907786235772
 20
1173.973939570023
 10
147.71892336110994
 20
1173.732145214778
 10
147.59807621135332
 20
1173.5
 10
147.45745613286698
 20
1173.2792706909468
 10
147.29813332935694
 20
1173.0716371709404
 10
147.12132034355963
 20
1172.8786796564405
 10
146.9283628290596
 20
1172.701866670643
 10
146.72072930905313
 20
1172.5425438671332
 10
146.5
 20
1172.4019237886469
 10
146.26785478522208
 20
1172.2810766388902
 10
146.026060429977
 20
1172.1809221376425
 10
145.77645713530757
 20
1172.1022225211327
 10
145.5209445330008
 20
1172.0455767409635
 10
145.26146722824296
 20
1172.0114159057248
 10
145.0
 20
1172.0
 10
144.73853277175704
 20
1172.0114159057248
 10
144.4790554669992
 20
1172.0455767409635
 10
144.22354286469243
 20
1172.1022225211327
 10
143.973939570023
 20
1172.1809221376425
 10
143.73214521477792
 20
1172.2810766388902
 10
143.5
 20
1172.4019237886469
 10
143.27927069094687
 20
1172.5425438671332
 10
143.0716371709404
 20
1172.701866670643
 10
142.87867965644037
 20
1172.8786796564405
 10
142.70186667064306
 20
1173.0716371709404
 10
142.54254386713302
 20
1173.2792706909468
 10
142.40192378864668
 20
1173.5
 10
142.28107663889006
 20
1173.732145214778
 10
142.18092213764228
 20
1173.973939570023
 10
142.1022225211328
 20
1174.2235428646923
 10
142.04557674096338
 20
1174.4790554669994
 10
142.01141590572476
 20
1174.738532771757
 10
142.0
 20
1175.0
 10
142.01141590572476
 20
1175.261467228243
 10
142.04557674096338
 20
1175.5209445330006
 10
142.1022225211328
 20
1175.7764571353077
 10
142.18092213764228
 20
1176.026060429977
 10
142.28107663889006
 20
1176.267854785222
 10
142.40192378864668
 20
1176.5
 10
142.54254386713302
 20
1176.7207293090532
 10
142.70186667064306
 20
1176.9283628290596
 10
142.87867965644037
 20
1177.1213203435595
 10
143.0716371709404
 20
1177.298133329357
 10
143.27927069094687
 20
1177.4574561328668
 10
143.5
 20
1177.5980762113531
 10
143.7321452147779
 20
1177.7189233611098
 10
143.973939570023
 20
1177.8190778623575
 10
144.22354286469243
 20
1177.8977774788673
 10
144.4790554669992
 20
1177.9544232590365
 10
144.73853277175704
 20
1177.9885840942752
 10
145.0
 20
1178.0
 10
145.26146722824296
 20
1177.9885840942752
 10
145.5209445330008
 20
1177.9544232590365
 10
145.77645713530757
 20
1177.8977774788673
 10
146.026060429977
 20
1177.8190778623575
 10
146.26785478522208
 20
1177.7189233611098
 10
146.5
 20
1177.5980762113531
 10
146.72072930905313
 20
1177.4574561328668
 10
146.9283628290596
 20
1177.298133329357
 10
147.12132034355963
 20
1177.1213203435595
 10
147.29813332935694
 20
1176.9283628290596
 10
147.45745613286698
 20
1176.7207293090532
 10
147.59807621135332
 20
1176.5
 10
147.71892336110994
 20
1176.267854785222
 10
147.81907786235772
 20
1176.026060429977
 10
147.8977774788672
 20
1175.7764571353077
 10
147.95442325903662
 20
1175.5209445330006
 10
147.98858409427524
 20
1175.261467228243
 10
148.0
 20
1175.0
  0
LWPOLYLINE
  5
54
330
17
100
AcDbEntity
  8
DRAWING
  6
CONTINUOUS
420
1118481
100
AcDbPolyline
 90
73
 70
1
 10
1044.0
 20
1175.0
 10
1043.9885840942752
 20
1174.738532771757
 10
1043.9544232590367
 20
1174.4790554669994
 10
1043.8977774788673
 20
1174.2235428646923
 10
1043.8190778623577
 20
1173.973939570023
 10
1043.71892336111
 20
1173.732145214778
 10
1043.5980762113534
 20
1173.5
 10
1043.457456132867
 20
1173.2792706909468
 10
1043.298133329357
 20
1173.0716371709404
 10
1043.1213203435595
 20
1172.8786796564405
 10
1042.9283628290596
 20
1172.701866670643
 10
1042.7207293090532
 20
1172.5425438671332
 10
1042.5
 20
1172.4019237886469
 10
1042.2678547852222
 20
1172.2810766388902
 10
1042.026060429977
 20
1172.1809221376425
 10
1041.7764571353075
 20
1172.1022225211327
 10
1041.5209445330008
 20
1172.0455767409635
 10
1041.261467228243
 20
1172.0114159057248
 10
1041.0
 20
1172.0
 10
1040.738532771757
 20
1172.0114159057248
 10
1040.4790554669992
 20
1172.0455767409635
 10
1040.2235428646925
 20
1172.1022225211327
 10
1039.973939570023
 20
1172.1809221376425
 10
1039.7321452147778
 20
1172.2810766388902
 10
1039.5
 20
1172.4019237886469
 10
1039.2792706909468
 20
1172.5425438671332
 10
1039.0716371709404
 20
1172.701866670643
 10
1038.8786796564405
 20
1172.8786796564405
 10
1038.701866670643
 20
1173.0716371709404
 10
1038.542543867133
 20
1173.2792706909468
 10
1038.4019237886466
 20
1173.5
 10
1038.28107663889
 20
1173.732145214778
 10
1038.1809221376423
 20
1173.973939570023
 10
1038.1022225211327
 20
1174.2235428646923
 10
1038.0455767409633
 20
1174.4790554669994
 10
1038.0114159057248
 20
1174.738532771757
 10
1038.0
 20
1175.0
 10
1038.0114159057248
 20
1175.261467228243
 10
1038.0455767409633
 20
1175.5209445330006
 10
1038.1022225211327
 20
1175.7764571353077
 10
1038.1809221376423
 20
1176.026060429977
 10
1038.28107663889
 20
1176.267854785222
 10
1038.4019237886466
 20
1176.5
 10
1038.542543867133
 20
1176.7207293090532
 10
1038.701866670643
 20
1176.9283628290596
 10
1038.8786796564405
 20
1177.1213203435595
 10
1039.0716371709404
 20
1177.298133329357
 10
1039.2792706909468
 20
1177.4574561328668
 10
1039.5
 20
1177.5980762113531
 10
1039.7321452147778
 20
1177.7189233611098
 10
1039.973939570023
 20
1177.8190778623575
 10
1040.2235428646925
 20
1177.8977774788673
 10
1040.4790554669992
 20
1177.9544232590365
 10
1040.738532771757
 20
1177.9885840942752
 10
1041.0
 20
1178.0
 10
1041.261467228243
 20
1177.9885840942752
 10
1041.5209445330008
 20
1177.9544232590365
 10
1041.7764571353075
 20
1177.8977774788673
 10
1042.026060429977
 20
1177.8190778623575
 10
1042.2678547852222
 20
1177.7189233611098
 10
1042.5
 20
1177.5980762113531
 10
1042.7207293090532
 20
1177.4574561328668
 10
1042.9283628290596
 20
1177.298133329357
 10
1043.1213203435595
 20
1177.1213203435595
 10
1043.298133329357
 20
1176.9283628290596
 10
1043.457456132867
 20
1176.7207293090532
 10
1043.5980762113534
 20
1176.5
 10
1043.71892336111
 20
1176.267854785222
 10
1043.8190778623577
 20
1176.026060429977
 10
1043.8977774788673
 20
1175.7764571353077
 10
1043.9544232590367
 20
1175.5209445330006
 10
1043.9885840942752
 20
1175.261467228243
 10
1044.0
 20
1175.0
  0
LWPOLYLINE
  5
55
330
17
100
AcDbEntity
  8
DRAWING
  6
CONTINUOUS
420
1118481
100
AcDbPolyline
 90
73
 70
1
 10
148.0
 20
1025.0
 10
147.98858409427524
 20
1024.738532771757
 10
147.95442325903662
 20
1024.4790554669994
 10
147.8977774788672
 20
1024.2235428646923
 10
147.81907786235772
 20
1023.973939570023
 10
147.71892336110994
 20
1023.732145214778
 10
147.59807621135332
 20
1023.5
 10
147.45745613286698
 20
1023.2792706909468
 10
147.29813332935694
 20
1023.0716371709404
 10
147.12132034355963
 20
1022.8786796564405
 10
146.9283628290596
 20
1022.7018666706431
 10
146.72072930905313
 20
1022.5425438671332
 10
146.5
 20
1022.4019237886469
 10
146.26785478522208
 20
1022.2810766388902
 10
146.026060429977
 20
1022.1809221376425
 10
145.77645713530757
 20
1022.1022225211327
 10
145.5209445330008
 20
1022.0455767409635
 10
145.26146722824296
 20
1022.0114159057248
 10
145.0
 20
1022.0
 10
144.73853277175704
 20
1022.0114159057248
 10
144.4790554669992
 20
1022.0455767409635
 10
144.22354286469243
 20
1022.1022225211327
 10
143.973939570023
 20
1022.1809221376425
 10
143.73214521477792
 20
1022.2810766388902
 10
143.5
 20
1022.4019237886469
 10
143.27927069094687
 20
1022.5425438671332
 10
143.0716371709404
 20
1022.7018666706431
 10
142.87867965644037
 20
1022.8786796564405
 10
142.70186667064306
 20
1023.0716371709404
 10
142.54254386713302
 20
1023.2792706909468
 10
142.40192378864668
 20
1023.5
 10
142.28107663889006
 20
1023.732145214778
 10
142.18092213764228
 20
1023.973939570023
 10
142.1022225211328
 20
1024.2235428646923
 10
142.04557674096338
 20
1024.4790554669994
 10
142.01141590572476
 20
1024.738532771757
 10
142.0
 20
1025.0
 10
142.01141590572476
 20
1025.261467228243
 10
142.04557674096338
 20
1025.5209445330006
 10
142.1022225211328
 20
1025.7764571353077
 10
142.18092213764228
 20
1026.026060429977
 10
142.28107663889006
 20
1026.267854785222
 10
142.40192378864668
 20
1026.5
 10
142.54254386713302
 20
1026.7207293090532
 10
142.70186667064306
 20
1026.9283628290596
 10
142.87867965644037
 20
1027.1213203435595
 10
143.0716371709404
 20
1027.298133329357
 10
143.27927069094687
 20
1027.4574561328668
 10
143.5
 20
1027.5980762113531
 10
143.7321452147779
 20
1027.7189233611098
 10
143.973939570023
 20
1027.8190778623575
 10
144.22354286469243
 20
1027.8977774788673
 10
144.4790554669992
 20
1027.9544232590365
 10
144.73853277175704
 20
1027.9885840942752
 10
145.0
 20
1028.0
 10
145.26146722824296
 20
1027.9885840942752
 10
145.5209445330008
 20
1027.9544232590365
 10
145.77645713530757
 20
1027.8977774788673
 10
146.026060429977
 20
1027.8190778623575
 10
146.26785478522208
 20
1027.7189233611098
 10
146.5
 20
1027.5980762113531
 10
146.72072930905313
 20
1027.4574561328668
 10
146.9283628290596
 20
1027.298133329357
 10
147.12132034355963
 20
1027.1213203435595
 10
147.29813332935694
 20
1026.9283628290596
 10
147.45745613286698
 20
1026.7207293090532
 10
147.59807621135332
 20
1026.5
 10
147.71892336110994
 20
1026.267854785222
 10
147.81907786235772
 20
1026.026060429977
 10
147.8977774788672
 20
1025.7764571353077
 10
147.95442325903662
 20
1025.5209445330006
 10
147.98858409427524
 20
1025.261467228243
 10
148.0
 20
1025.0
  0
LWPOLYLINE
  5
56
330
17
100
AcDbEntity
  8
DRAWING
  6
CONTINUOUS
420
1118481
100
AcDbPolyline
 90
73
 70
1
 10
1044.0
 20
1025.0
 10
1043.9885840942752
 20
1024.738532771757
 10
1043.9544232590367
 20
1024.4790554669994
 10
1043.8977774788673
 20
1024.2235428646923
 10
1043.8190778623577
 20
1023.973939570023
 10
1043.71892336111
 20
1023.732145214778
 10
1043.5980762113534
 20
1023.5
 10
1043.457456132867
 20
1023.2792706909468
 10
1043.298133329357
 20
1023.0716371709404
 10
1043.1213203435595
 20
1022.8786796564405
 10
1042.9283628290596
 20
1022.7018666706431
 10
1042.7207293090532
 20
1022.5425438671332
 10
1042.5
 20
1022.4019237886469
 10
1042.2678547852222
 20
1022.2810766388902
 10
1042.026060429977
 20
1022.1809221376425
 10
1041.7764571353075
 20
1022.1022225211327
 10
1041.5209445330008
 20
1022.0455767409635
 10
1041.261467228243
 20
1022.0114159057248
 10
1041.0
 20
1022.0
 10
1040.738532771757
 20
1022.0114159057248
 10
1040.4790554669992
 20
1022.0455767409635
 10
1040.2235428646925
 20
1022.1022225211327
 10
1039.973939570023
 20
1022.1809221376425
 10
1039.7321452147778
 20
1022.2810766388902
 10
1039.5
 20
1022.4019237886469
 10
1039.2792706909468
 20
1022.5425438671332
 10
1039.0716371709404
 20
1022.7018666706431
 10
1038.8786796564405
 20
1022.8786796564405
 10
1038.701866670643
 20
1023.0716371709404
 10
1038.542543867133
 20
1023.2792706909468
 10
1038.4019237886466
 20
1023.5
 10
1038.28107663889
 20
1023.732145214778
 10
1038.1809221376423
 20
1023.973939570023
 10
1038.1022225211327
 20
1024.2235428646923
 10
1038.0455767409633
 20
1024.4790554669994
 10
1038.0114159057248
 20
1024.738532771757
 10
1038.0
 20
1025.0
 10
1038.0114159057248
 20
1025.261467228243
 10
1038.0455767409633
 20
1025.5209445330006
 10
1038.1022225211327
 20
1025.7764571353077
 10
1038.1809221376423
 20
1026.026060429977
 10
1038.28107663889
 20
1026.267854785222
 10
1038.4019237886466
 20
1026.5
 10
1038.542543867133
 20
1026.7207293090532
 10
1038.701866670643
 20
1026.9283628290596
 10
1038.8786796564405
 20
1027.1213203435595
 10
1039.0716371709404
 20
1027.298133329357
 10
1039.2792706909468
 20
1027.4574561328668
 10
1039.5
 20
1027.5980762113531
 10
1039.7321452147778
 20
1027.7189233611098
 10
1039.973939570023
 20
1027.8190778623575
 10
1040.2235428646925
 20
1027.8977774788673
 10
1040.4790554669992
 20
1027.9544232590365
 10
1040.738532771757
 20
1027.9885840942752
 10
1041.0
 20
1028.0
 10
1041.261467228243
 20
1027.9885840942752
 10
1041.5209445330008
 20
1027.9544232590365
 10
1041.7764571353075
 20
1027.8977774788673
 10
1042.026060429977
 20
1027.8190778623575
 10
1042.2678547852222
 20
1027.7189233611098
 10
1042.5
 20
1027.5980762113531
 10
1042.7207293090532
 20
1027.4574561328668
 10
1042.9283628290596
 20
1027.298133329357
 10
1043.1213203435595
 20
1027.1213203435595
 10
1043.298133329357
 20
1026.9283628290596
 10
1043.457456132867
 20
1026.7207293090532
 10
1043.5980762113534
 20
1026.5
 10
1043.71892336111
 20
1026.267854785222
 10
1043.8190778623577
 20
1026.026060429977
 10
1043.8977774788673
 20
1025.7764571353077
 10
1043.9544232590367
 20
1025.5209445330006
 10
1043.9885840942752
 20
1025.261467228243
 10
1044.0
 20
1025.0
  0
LWPOLYLINE
  5
57
330
17
100
AcDbEntity
  8
DRAWING
  6
CONTINUOUS
420
1118481
100
AcDbPolyline
 90
73
 70
1
 10
148.0
 20
875.0
 10
147.98858409427524
 20
874.738532771757
 10
147.95442325903662
 20
874.4790554669994
 10
147.8977774788672
 20
874.2235428646923
 10
147.81907786235772
 20
873.973939570023
 10
147.71892336110994
 20
873.732145214778
 10
147.59807621135332
 20
873.5
 10
147.45745613286698
 20
873.2792706909468
 10
147.29813332935694
 20
873.0716371709404
 10
147.12132034355963
 20
872.8786796564405
 10
146.9283628290596
 20
872.7018666706431
 10
146.72072930905313
 20
872.5425438671332
 10
146.5
 20
872.4019237886469
 10
146.26785478522208
 20
872.2810766388902
 10
146.026060429977
 20
872.1809221376425
 10
145.77645713530757
 20
872.1022225211327
 10
145.5209445330008
 20
872.0455767409635
 10
145.26146722824296
 20
872.0114159057248
 10
145.0
 20
872.0
 10
144.73853277175704
 20
872.0114159057248
 10
144.4790554669992
 20
872.0455767409635
 10
144.22354286469243
 20
872.1022225211327
 10
143.973939570023
 20
872.1809221376425
 10
143.73214521477792
 20
872.2810766388902
 10
143.5
 20
872.4019237886469
 10
143.27927069094687
 20
872.5425438671332
 10
143.0716371709404
 20
872.7018666706431
 10
142.87867965644037
 20
872.8786796564405
 10
142.70186667064306
 20
873.0716371709404
 10
142.54254386713302
 20
873.2792706909468
 10
142.40192378864668
 20
873.5
 10
142.28107663889006
 20
873.732145214778
 10
142.18092213764228
 20
873.973939570023
 10
142.1022225211328
 20
874.2235428646923
 10
142.04557674096338
 20
874.4790554669994
 10
142.01141590572476
 20
874.738532771757
 10
142.0
 20
875.0
 10
142.01141590572476
 20
875.261467228243
 10
142.04557674096338
 20
875.5209445330006
 10
142.1022225211328
 20
875.7764571353077
 10
142.18092213764228
 20
876.026060429977
 10
142.28107663889006
 20
876.267854785222
 10
142.40192378864668
 20
876.5
 10
142.54254386713302
 20
876.7207293090532
 10
142.70186667064306
 20
876.9283628290596
 10
142.87867965644037
 20
877.1213203435595
 10
143.0716371709404
 20
877.2981333293569
 10
143.27927069094687
 20
877.4574561328668
 10
143.5
 20
877.5980762113531
 10
143.7321452147779
 20
877.7189233611098
 10
143.973939570023
 20
877.8190778623575
 10
144.22354286469243
 20
877.8977774788673
 10
144.4790554669992
 20
877.9544232590365
 10
144.73853277175704
 20
877.9885840942752
 10
145.0
 20
878.0
 10
145.26146722824296
 20
877.9885840942752
 10
145.5209445330008
 20
877.9544232590365
 10
145.77645713530757
 20
877.8977774788673
 10
146.026060429977
 20
877.8190778623575
 10
146.26785478522208
 20
877.7189233611098
 10
146.5
 20
877.5980762113531
 10
146.72072930905313
 20
877.4574561328668
 10
146.9283628290596
 20
877.2981333293569
 10
147.12132034355963
 20
877.1213203435595
 10
147.29813332935694
 20
876.9283628290596
 10
147.45745613286698
 20
876.7207293090532
 10
147.59807621135332
 20
876.5
 10
147.71892336110994
 20
876.267854785222
 10
147.81907786235772
 20
876.026060429977
 10
147.8977774788672
 20
875.7764571353077
 10
147.95442325903662
 20
875.5209445330006
 10
147.98858409427524
 20
875.261467228243
 10
148.0
 20
875.0
  0
LWPOLYLINE
  5
58
330
17
100
AcDbEntity
  8
DRAWING
  6
CONTINUOUS
420
1118481
100
AcDbPolyline
 90
73
 70
1
 10
1044.0
 20
875.0
 10
1043.9885840942752
 20
874.738532771757
 10
1043.9544232590367
 20
874.4790554669994
 10
1043.8977774788673
 20
874.2235428646923
 10
1043.8190778623577
 20
873.973939570023
 10
1043.71892336111
 20
873.732145214778
 10
1043.5980762113534
 20
873.5
 10
1043.457456132867
 20
873.2792706909468
 10
1043.298133329357
 20
873.0716371709404
 10
1043.1213203435595
 20
872.8786796564405
 10
1042.9283628290596
 20
872.7018666706431
 10
1042.7207293090532
 20
872.5425438671332
 10
1042.5
 20
872.4019237886469
 10
1042.2678547852222
 20
872.2810766388902
 10
1042.026060429977
 20
872.1809221376425
 10
1041.7764571353075
 20
872.1022225211327
 10
1041.5209445330008
 20
872.0455767409635
 10
1041.261467228243
 20
872.0114159057248
 10
1041.0
 20
872.0
 10
1040.738532771757
 20
872.0114159057248
 10
1040.4790554669992
 20
872.0455767409635
 10
1040.2235428646925
 20
872.1022225211327
 10
1039.973939570023
 20
872.1809221376425
 10
1039.7321452147778
 20
872.2810766388902
 10
1039.5
 20
872.4019237886469
 10
1039.2792706909468
 20
872.5425438671332
 10
1039.0716371709404
 20
872.7018666706431
 10
1038.8786796564405
 20
872.8786796564405
 10
1038.701866670643
 20
873.0716371709404
 10
1038.542543867133
 20
873.2792706909468
 10
1038.4019237886466
 20
873.5
 10
1038.28107663889
 20
873.732145214778
 10
1038.1809221376423
 20
873.973939570023
 10
1038.1022225211327
 20
874.2235428646923
 10
1038.0455767409633
 20
874.4790554669994
 10
1038.0114159057248
 20
874.738532771757
 10
1038.0
 20
875.0
 10
1038.0114159057248
 20
875.261467228243
 10
1038.0455767409633
 20
875.5209445330006
 10
1038.1022225211327
 20
875.7764571353077
 10
1038.1809221376423
 20
876.026060429977
 10
1038.28107663889
 20
876.267854785222
 10
1038.4019237886466
 20
876.5
 10
1038.542543867133
 20
876.7207293090532
 10
1038.701866670643
 20
876.9283628290596
 10
1038.8786796564405
 20
877.1213203435595
 10
1039.0716371709404
 20
877.2981333293569
 10
1039.2792706909468
 20
877.4574561328668
 10
1039.5
 20
877.5980762113531
 10
1039.7321452147778
 20
877.7189233611098
 10
1039.973939570023
 20
877.8190778623575
 10
1040.2235428646925
 20
877.8977774788673
 10
1040.4790554669992
 20
877.9544232590365
 10
1040.738532771757
 20
877.9885840942752
 10
1041.0
 20
878.0
 10
1041.261467228243
 20
877.9885840942752
 10
1041.5209445330008
 20
877.9544232590365
 10
1041.7764571353075
 20
877.8977774788673
 10
1042.026060429977
 20
877.8190778623575
 10
1042.2678547852222
 20
877.7189233611098
 10
1042.5
 20
877.5980762113531
 10
1042.7207293090532
 20
877.4574561328668
 10
1042.9283628290596
 20
877.2981333293569
 10
1043.1213203435595
 20
877.1213203435595
 10
1043.298133329357
 20
876.9283628290596
 10
1043.457456132867
 20
876.7207293090532
 10
1043.5980762113534
 20
876.5
 10
1043.71892336111
 20
876.267854785222
 10
1043.8190778623577
 20
876.026060429977
 10
1043.8977774788673
 20
875.7764571353077
 10
1043.9544232590367
 20
875.5209445330006
 10
1043.9885840942752
 20
875.261467228243
 10
1044.0
 20
875.0
  0
LWPOLYLINE
  5
59
330
17
100
AcDbEntity
  8
DRAWING
  6
CONTINUOUS
420
1118481
100
AcDbPolyline
 90
73
 70
1
 10
148.0
 20
725.0
 10
147.98858409427524
 20
724.738532771757
 10
147.95442325903662
 20
724.4790554669994
 10
147.8977774788672
 20
724.2235428646923
 10
147.81907786235772
 20
723.973939570023
 10
147.71892336110994
 20
723.732145214778
 10
147.59807621135332
 20
723.5
 10
147.45745613286698
 20
723.2792706909468
 10
147.29813332935694
 20
723.0716371709404
 10
147.12132034355963
 20
722.8786796564405
 10
146.9283628290596
 20
722.7018666706431
 10
146.72072930905313
 20
722.5425438671332
 10
146.5
 20
722.4019237886469
 10
146.26785478522208
 20
722.2810766388902
 10
146.026060429977
 20
722.1809221376425
 10
145.77645713530757
 20
722.1022225211327
 10
145.5209445330008
 20
722.0455767409635
 10
145.26146722824296
 20
722.0114159057248
 10
145.0
 20
722.0
 10
144.73853277175704
 20
722.0114159057248
 10
144.4790554669992
 20
722.0455767409635
 10
144.22354286469243
 20
722.1022225211327
 10
143.973939570023
 20
722.1809221376425
 10
143.73214521477792
 20
722.2810766388902
 10
143.5
 20
722.4019237886469
 10
143.27927069094687
 20
722.5425438671332
 10
143.0716371709404
 20
722.7018666706431
 10
142.87867965644037
 20
722.8786796564405
 10
142.70186667064306
 20
723.0716371709404
 10
142.54254386713302
 20
723.2792706909468
 10
142.40192378864668
 20
723.5
 10
142.28107663889006
 20
723.732145214778
 10
142.18092213764228
 20
723.973939570023
 10
142.1022225211328
 20
724.2235428646923
 10
142.04557674096338
 20
724.4790554669994
 10
142.01141590572476
 20
724.738532771757
 10
142.0
 20
725.0
 10
142.01141590572476
 20
725.261467228243
 10
142.04557674096338
 20
725.5209445330006
 10
142.1022225211328
 20
725.7764571353077
 10
142.18092213764228
 20
726.026060429977
 10
142.28107663889006
 20
726.267854785222
 10
142.40192378864668
 20
726.5
 10
142.54254386713302
 20
726.7207293090532
 10
142.70186667064306
 20
726.9283628290596
 10
142.87867965644037
 20
727.1213203435595
 10
143.0716371709404
 20
727.2981333293569
 10
143.27927069094687
 20
727.4574561328668
 10
143.5
 20
727.5980762113531
 10
143.7321452147779
 20
727.7189233611098
 10
143.973939570023
 20
727.8190778623575
 10
144.22354286469243
 20
727.8977774788673
 10
144.4790554669992
 20
727.9544232590365
 10
144.73853277175704
 20
727.9885840942752
 10
145.0
 20
728.0
 10
145.26146722824296
 20
727.9885840942752
 10
145.5209445330008
 20
727.9544232590365
 10
145.77645713530757
 20
727.8977774788673
 10
146.026060429977
 20
727.8190778623575
 10
146.26785478522208
 20
727.7189233611098
 10
146.5
 20
727.5980762113531
 10
146.72072930905313
 20
727.4574561328668
 10
146.9283628290596
 20
727.2981333293569
 10
147.12132034355963
 20
727.1213203435595
 10
147.29813332935694
 20
726.9283628290596
 10
147.45745613286698
 20
726.7207293090532
 10
147.59807621135332
 20
726.5
 10
147.71892336110994
 20
726.267854785222
 10
147.81907786235772
 20
726.026060429977
 10
147.8977774788672
 20
725.7764571353077
 10
147.95442325903662
 20
725.5209445330006
 10
147.98858409427524
 20
725.261467228243
 10
148.0
 20
725.0
  0
LWPOLYLINE
  5
5A
330
17
100
AcDbEntity
  8
DRAWING
  6
CONTINUOUS
420
1118481
100
AcDbPolyline
 90
73
 70
1
 10
1044.0
 20
725.0
 10
1043.9885840942752
 20
724.738532771757
 10
1043.9544232590367
 20
724.4790554669994
 10
1043.8977774788673
 20
724.2235428646923
 10
1043.8190778623577
 20
723.973939570023
 10
1043.71892336111
 20
723.732145214778
 10
1043.5980762113534
 20
723.5
 10
1043.457456132867
 20
723.2792706909468
 10
1043.298133329357
 20
723.0716371709404
 10
1043.1213203435595
 20
722.8786796564405
 10
1042.9283628290596
 20
722.7018666706431
 10
1042.7207293090532
 20
722.5425438671332
 10
1042.5
 20
722.4019237886469
 10
1042.2678547852222
 20
722.2810766388902
 10
1042.026060429977
 20
722.1809221376425
 10
1041.7764571353075
 20
722.1022225211327
 10
1041.5209445330008
 20
722.0455767409635
 10
1041.261467228243
 20
722.0114159057248
 10
1041.0
 20
722.0
 10
1040.738532771757
 20
722.0114159057248
 10
1040.4790554669992
 20
722.0455767409635
 10
1040.2235428646925
 20
722.1022225211327
 10
1039.973939570023
 20
722.1809221376425
 10
1039.7321452147778
 20
722.2810766388902
 10
1039.5
 20
722.4019237886469
 10
1039.2792706909468
 20
722.5425438671332
 10
1039.0716371709404
 20
722.7018666706431
 10
1038.8786796564405
 20
722.8786796564405
 10
1038.701866670643
 20
723.0716371709404
 10
1038.542543867133
 20
723.2792706909468
 10
1038.4019237886466
 20
723.5
 10
1038.28107663889
 20
723.732145214778
 10
1038.1809221376423
 20
723.973939570023
 10
1038.1022225211327
 20
724.2235428646923
 10
1038.0455767409633
 20
724.4790554669994
 10
1038.0114159057248
 20
724.738532771757
 10
1038.0
 20
725.0
 10
1038.0114159057248
 20
725.261467228243
 10
1038.0455767409633
 20
725.5209445330006
 10
1038.1022225211327
 20
725.7764571353077
 10
1038.1809221376423
 20
726.026060429977
 10
1038.28107663889
 20
726.267854785222
 10
1038.4019237886466
 20
726.5
 10
1038.542543867133
 20
726.7207293090532
 10
1038.701866670643
 20
726.9283628290596
 10
1038.8786796564405
 20
727.1213203435595
 10
1039.0716371709404
 20
727.2981333293569
 10
1039.2792706909468
 20
727.4574561328668
 10
1039.5
 20
727.5980762113531
 10
1039.7321452147778
 20
727.7189233611098
 10
1039.973939570023
 20
727.8190778623575
 10
1040.2235428646925
 20
727.8977774788673
 10
1040.4790554669992
 20
727.9544232590365
 10
1040.738532771757
 20
727.9885840942752
 10
1041.0
 20
728.0
 10
1041.261467228243
 20
727.9885840942752
 10
1041.5209445330008
 20
727.9544232590365
 10
1041.7764571353075
 20
727.8977774788673
 10
1042.026060429977
 20
727.8190778623575
 10
1042.2678547852222
 20
727.7189233611098
 10
1042.5
 20
727.5980762113531
 10
1042.7207293090532
 20
727.4574561328668
 10
1042.9283628290596
 20
727.2981333293569
 10
1043.1213203435595
 20
727.1213203435595
 10
1043.298133329357
 20
726.9283628290596
 10
1043.457456132867
 20
726.7207293090532
 10
1043.5980762113534
 20
726.5
 10
1043.71892336111
 20
726.267854785222
 10
1043.8190778623577
 20
726.026060429977
 10
1043.8977774788673
 20
725.7764571353077
 10
1043.9544232590367
 20
725.5209445330006
 10
1043.9885840942752
 20
725.261467228243
 10
1044.0
 20
725.0
  0
LWPOLYLINE
  5
5B
330
17
100
AcDbEntity
  8
DRAWING
  6
CONTINUOUS
420
1118481
100
AcDbPolyline
 90
73
 70
1
 10
148.0
 20
575.0
 10
147.98858409427524
 20
574.738532771757
 10
147.95442325903662
 20
574.4790554669994
 10
147.8977774788672
 20
574.2235428646923
 10
147.81907786235772
 20
573.973939570023
 10
147.71892336110994
 20
573.732145214778
 10
147.59807621135332
 20
573.5
 10
147.45745613286698
 20
573.2792706909468
 10
147.29813332935694
 20
573.0716371709404
 10
147.12132034355963
 20
572.8786796564405
 10
146.9283628290596
 20
572.7018666706431
 10
146.72072930905313
 20
572.5425438671332
 10
146.5
 20
572.4019237886469
 10
146.26785478522208
 20
572.2810766388902
 10
146.026060429977
 20
572.1809221376425
 10
145.77645713530757
 20
572.1022225211327
 10
145.5209445330008
 20
572.0455767409635
 10
145.26146722824296
 20
572.0114159057248
 10
145.0
 20
572.0
 10
144.73853277175704
 20
572.0114159057248
 10
144.4790554669992
 20
572.0455767409635
 10
144.22354286469243
 20
572.1022225211327
 10
143.973939570023
 20
572.1809221376425
 10
143.73214521477792
 20
572.2810766388902
 10
143.5
 20
572.4019237886469
 10
143.27927069094687
 20
572.5425438671332
 10
143.0716371709404
 20
572.7018666706431
 10
142.87867965644037
 20
572.8786796564405
 10
142.70186667064306
 20
573.0716371709404
 10
142.54254386713302
 20
573.2792706909468
 10
142.40192378864668
 20
573.5
 10
142.28107663889006
 20
573.732145214778
 10
142.18092213764228
 20
573.973939570023
 10
142.1022225211328
 20
574.2235428646923
 10
142.04557674096338
 20
574.4790554669994
 10
142.01141590572476
 20
574.738532771757
 10
142.0
 20
575.0
 10
142.01141590572476
 20
575.261467228243
 10
142.04557674096338
 20
575.5209445330006
 10
142.1022225211328
 20
575.7764571353077
 10
142.18092213764228
 20
576.026060429977
 10
142.28107663889006
 20
576.267854785222
 10
142.40192378864668
 20
576.5
 10
142.54254386713302
 20
576.7207293090532
 10
142.70186667064306
 20
576.9283628290596
 10
142.87867965644037
 20
577.1213203435595
 10
143.0716371709404
 20
577.2981333293569
 10
143.27927069094687
 20
577.4574561328668
 10
143.5
 20
577.5980762113531
 10
143.7321452147779
 20
577.7189233611098
 10
143.973939570023
 20
577.8190778623575
 10
144.22354286469243
 20
577.8977774788673
 10
144.4790554669992
 20
577.9544232590365
 10
144.73853277175704
 20
577.9885840942752
 10
145.0
 20
578.0
 10
145.26146722824296
 20
577.9885840942752
 10
145.5209445330008
 20
577.9544232590365
 10
145.77645713530757
 20
577.8977774788673
 10
146.026060429977
 20
577.8190778623575
 10
146.26785478522208
 20
577.7189233611098
 10
146.5
 20
577.5980762113531
 10
146.72072930905313
 20
577.4574561328668
 10
146.9283628290596
 20
577.2981333293569
 10
147.12132034355963
 20
577.1213203435595
 10
147.29813332935694
 20
576.9283628290596
 10
147.45745613286698
 20
576.7207293090532
 10
147.59807621135332
 20
576.5
 10
147.71892336110994
 20
576.267854785222
 10
147.81907786235772
 20
576.026060429977
 10
147.8977774788672
 20
575.7764571353077
 10
147.95442325903662
 20
575.5209445330006
 10
147.98858409427524
 20
575.261467228243
 10
148.0
 20
575.0
  0
LWPOLYLINE
  5
5C
330
17
100
AcDbEntity
  8
DRAWING
  6
CONTINUOUS
420
1118481
100
AcDbPolyline
 90
73
 70
1
 10
1044.0
 20
575.0
 10
1043.9885840942752
 20
574.738532771757
 10
1043.9544232590367
 20
574.4790554669994
 10
1043.8977774788673
 20
574.2235428646923
 10
1043.8190778623577
 20
573.973939570023
 10
1043.71892336111
 20
573.732145214778
 10
1043.5980762113534
 20
573.5
 10
1043.457456132867
 20
573.2792706909468
 10
1043.298133329357
 20
573.0716371709404
 10
1043.1213203435595
 20
572.8786796564405
 10
1042.9283628290596
 20
572.7018666706431
 10
1042.7207293090532
 20
572.5425438671332
 10
1042.5
 20
572.4019237886469
 10
1042.2678547852222
 20
572.2810766388902
 10
1042.026060429977
 20
572.1809221376425
 10
1041.7764571353075
 20
572.1022225211327
 10
1041.5209445330008
 20
572.0455767409635
 10
1041.261467228243
 20
572.0114159057248
 10
1041.0
 20
572.0
 10
1040.738532771757
 20
572.0114159057248
 10
1040.4790554669992
 20
572.0455767409635
 10
1040.2235428646925
 20
572.1022225211327
 10
1039.973939570023
 20
572.1809221376425
 10
1039.7321452147778
 20
572.2810766388902
 10
1039.5
 20
572.4019237886469
 10
1039.2792706909468
 20
572.5425438671332
 10
1039.0716371709404
 20
572.7018666706431
 10
1038.8786796564405
 20
572.8786796564405
 10
1038.701866670643
 20
573.0716371709404
 10
1038.542543867133
 20
573.2792706909468
 10
1038.4019237886466
 20
573.5
 10
1038.28107663889
 20
573.732145214778
 10
1038.1809221376423
 20
573.973939570023
 10
1038.1022225211327
 20
574.2235428646923
 10
1038.0455767409633
 20
574.4790554669994
 10
1038.0114159057248
 20
574.738532771757
 10
1038.0
 20
575.0
 10
1038.0114159057248
 20
575.261467228243
 10
1038.0455767409633
 20
575.5209445330006
 10
1038.1022225211327
 20
575.7764571353077
 10
1038.1809221376423
 20
576.026060429977
 10
1038.28107663889
 20
576.267854785222
 10
1038.4019237886466
 20
576.5
 10
1038.542543867133
 20
576.7207293090532
 10
1038.701866670643
 20
576.9283628290596
 10
1038.8786796564405
 20
577.1213203435595
 10
1039.0716371709404
 20
577.2981333293569
 10
1039.2792706909468
 20
577.4574561328668
 10
1039.5
 20
577.5980762113531
 10
1039.7321452147778
 20
577.7189233611098
 10
1039.973939570023
 20
577.8190778623575
 10
1040.2235428646925
 20
577.8977774788673
 10
1040.4790554669992
 20
577.9544232590365
 10
1040.738532771757
 20
577.9885840942752
 10
1041.0
 20
578.0
 10
1041.261467228243
 20
577.9885840942752
 10
1041.5209445330008
 20
577.9544232590365
 10
1041.7764571353075
 20
577.8977774788673
 10
1042.026060429977
 20
577.8190778623575
 10
1042.2678547852222
 20
577.7189233611098
 10
1042.5
 20
577.5980762113531
 10
1042.7207293090532
 20
577.4574561328668
 10
1042.9283628290596
 20
577.2981333293569
 10
1043.1213203435595
 20
577.1213203435595
 10
1043.298133329357
 20
576.9283628290596
 10
1043.457456132867
 20
576.7207293090532
 10
1043.5980762113534
 20
576.5
 10
1043.71892336111
 20
576.267854785222
 10
1043.8190778623577
 20
576.026060429977
 10
1043.8977774788673
 20
575.7764571353077
 10
1043.9544232590367
 20
575.5209445330006
 10
1043.9885840942752
 20
575.261467228243
 10
1044.0
 20
575.0
  0
LWPOLYLINE
  5
5D
330
17
100
AcDbEntity
  8
DRAWING
  6
CONTINUOUS
420
1118481
100
AcDbPolyline
 90
73
 70
1
 10
148.0
 20
425.0
 10
147.98858409427524
 20
424.73853277175704
 10
147.95442325903662
 20
424.4790554669994
 10
147.8977774788672
 20
424.22354286469226
 10
147.81907786235772
 20
423.97393957002305
 10
147.71892336110994
 20
423.73214521477803
 10
147.59807621135332
 20
423.5
 10
147.45745613286698
 20
423.27927069094676
 10
147.29813332935694
 20
423.07163717094045
 10
147.12132034355963
 20
422.87867965644045
 10
146.9283628290596
 20
422.7018666706431
 10
146.72072930905313
 20
422.5425438671332
 10
146.5
 20
422.40192378864685
 10
146.26785478522208
 20
422.2810766388902
 10
146.026060429977
 20
422.1809221376425
 10
145.77645713530757
 20
422.1022225211327
 10
145.5209445330008
 20
422.0455767409635
 10
145.26146722824296
 20
422.0114159057248
 10
145.0
 20
422.0
 10
144.73853277175704
 20
422.0114159057248
 10
144.4790554669992
 20
422.0455767409635
 10
144.22354286469243
 20
422.1022225211327
 10
143.973939570023
 20
422.1809221376425
 10
143.73214521477792
 20
422.2810766388902
 10
143.5
 20
422.40192378864685
 10
143.27927069094687
 20
422.5425438671332
 10
143.0716371709404
 20
422.7018666706431
 10
142.87867965644037
 20
422.87867965644045
 10
142.70186667064306
 20
423.07163717094045
 10
142.54254386713302
 20
423.27927069094676
 10
142.40192378864668
 20
423.5
 10
142.28107663889006
 20
423.73214521477803
 10
142.18092213764228
 20
423.97393957002305
 10
142.1022225211328
 20
424.22354286469226
 10
142.04557674096338
 20
424.4790554669994
 10
142.01141590572476
 20
424.73853277175704
 10
142.0
 20
425.0
 10
142.01141590572476
 20
425.26146722824296
 10
142.04557674096338
 20
425.5209445330006
 10
142.1022225211328
 20
425.77645713530774
 10
142.18092213764228
 20
426.02606042997695
 10
142.28107663889006
 20
426.26785478522197
 10
142.40192378864668
 20
426.5
 10
142.54254386713302
 20
426.72072930905324
 10
142.70186667064306
 20
426.92836282905955
 10
142.87867965644037
 20
427.12132034355955
 10
143.0716371709404
 20
427.2981333293569
 10
143.27927069094687
 20
427.4574561328668
 10
143.5
 20
427.59807621135315
 10
143.7321452147779
 20
427.7189233611098
 10
143.973939570023
 20
427.8190778623575
 10
144.22354286469243
 20
427.8977774788673
 10
144.4790554669992
 20
427.9544232590365
 10
144.73853277175704
 20
427.9885840942752
 10
145.0
 20
428.0
 10
145.26146722824296
 20
427.9885840942752
 10
145.5209445330008
 20
427.9544232590365
 10
145.77645713530757
 20
427.8977774788673
 10
146.026060429977
 20
427.8190778623575
 10
146.26785478522208
 20
427.7189233611098
 10
146.5
 20
427.59807621135315
 10
146.72072930905313
 20
427.4574561328668
 10
146.9283628290596
 20
427.2981333293569
 10
147.12132034355963
 20
427.12132034355955
 10
147.29813332935694
 20
426.92836282905955
 10
147.45745613286698
 20
426.72072930905324
 10
147.59807621135332
 20
426.5
 10
147.71892336110994
 20
426.26785478522197
 10
147.81907786235772
 20
426.02606042997695
 10
147.8977774788672
 20
425.77645713530774
 10
147.95442325903662
 20
425.5209445330006
 10
147.98858409427524
 20
425.26146722824296
 10
148.0
 20
425.0
  0
LWPOLYLINE
  5
5E
330
17
100
AcDbEntity
  8
DRAWING
  6
CONTINUOUS
420
1118481
100
AcDbPolyline
 90
73
 70
1
 10
1044.0
 20
425.0
 10
1043.9885840942752
 20
424.73853277175704
 10
1043.9544232590367
 20
424.4790554669994
 10
1043.8977774788673
 20
424.22354286469226
 10
1043.8190778623577
 20
423.97393957002305
 10
1043.71892336111
 20
423.73214521477803
 10
1043.5980762113534
 20
423.5
 10
1043.457456132867
 20
423.27927069094676
 10
1043.298133329357
 20
423.07163717094045
 10
1043.1213203435595
 20
422.87867965644045
 10
1042.9283628290596
 20
422.7018666706431
 10
1042.7207293090532
 20
422.5425438671332
 10
1042.5
 20
422.40192378864685
 10
1042.2678547852222
 20
422.2810766388902
 10
1042.026060429977
 20
422.1809221376425
 10
1041.7764571353075
 20
422.1022225211327
 10
1041.5209445330008
 20
422.0455767409635
 10
1041.261467228243
 20
422.0114159057248
 10
1041.0
 20
422.0
 10
1040.738532771757
 20
422.0114159057248
 10
1040.4790554669992
 20
422.0455767409635
 10
1040.2235428646925
 20
422.1022225211327
 10
1039.973939570023
 20
422.1809221376425
 10
1039.7321452147778
 20
422.2810766388902
 10
1039.5
 20
422.40192378864685
 10
1039.2792706909468
 20
422.5425438671332
 10
1039.0716371709404
 20
422.7018666706431
 10
1038.8786796564405
 20
422.87867965644045
 10
1038.701866670643
 20
423.07163717094045
 10
1038.542543867133
 20
423.27927069094676
 10
1038.4019237886466
 20
423.5
 10
1038.28107663889
 20
423.73214521477803
 10
1038.1809221376423
 20
423.97393957002305
 10
1038.1022225211327
 20
424.22354286469226
 10
1038.0455767409633
 20
424.4790554669994
 10
1038.0114159057248
 20
424.73853277175704
 10
1038.0
 20
425.0
 10
1038.0114159057248
 20
425.26146722824296
 10
1038.0455767409633
 20
425.5209445330006
 10
1038.1022225211327
 20
425.77645713530774
 10
1038.1809221376423
 20
426.02606042997695
 10
1038.28107663889
 20
426.26785478522197
 10
1038.4019237886466
 20
426.5
 10
1038.542543867133
 20
426.72072930905324
 10
1038.701866670643
 20
426.92836282905955
 10
1038.8786796564405
 20
427.12132034355955
 10
1039.0716371709404
 20
427.2981333293569
 10
1039.2792706909468
 20
427.4574561328668
 10
1039.5
 20
427.59807621135315
 10
1039.7321452147778
 20
427.7189233611098
 10
1039.973939570023
 20
427.8190778623575
 10
1040.2235428646925
 20
427.8977774788673
 10
1040.4790554669992
 20
427.9544232590365
 10
1040.738532771757
 20
427.9885840942752
 10
1041.0
 20
428.0
 10
1041.261467228243
 20
427.9885840942752
 10
1041.5209445330008
 20
427.9544232590365
 10
1041.7764571353075
 20
427.8977774788673
 10
1042.026060429977
 20
427.8190778623575
 10
1042.2678547852222
 20
427.7189233611098
 10
1042.5
 20
427.59807621135315
 10
1042.7207293090532
 20
427.4574561328668
 10
1042.9283628290596
 20
427.2981333293569
 10
1043.1213203435595
 20
427.12132034355955
 10
1043.298133329357
 20
426.92836282905955
 10
1043.457456132867
 20
426.72072930905324
 10
1043.5980762113534
 20
426.5
 10
1043.71892336111
 20
426.26785478522197
 10
1043.8190778623577
 20
426.02606042997695
 10
1043.8977774788673
 20
425.77645713530774
 10
1043.9544232590367
 20
425.5209445330006
 10
1043.9885840942752
 20
425.26146722824296
 10
1044.0
 20
425.0
  0
LINE
  5
5F
330
17
100
AcDbEntity
  8
DRAWING
  6
CONTINUOUS
420
16738816
100
AcDbLine
 10
120.0
 20
3200.0
 30
0.0
 11
120.0
 21
3245.0
 31
0.0
  0
LINE
  5
60
330
17
100
AcDbEntity
  8
DRAWING
  6
CONTINUOUS
420
16738816
100
AcDbLine
 10
1066.0
 20
3200.0
 30
0.0
 11
1066.0
 21
3245.0
 31
0.0
  0
LINE
  5
61
330
17
100
AcDbEntity
  8
DRAWING
  6
CONTINUOUS
420
16738816
100
AcDbLine
 10
120.0
 20
3245.0
 30
0.0
 11
1066.0
 21
3245.0
 31
0.0
  0
LWPOLYLINE
  5
62
330
17
100
AcDbEntity
  8
DRAWING
  6
CONTINUOUS
420
16738816
100
AcDbPolyline
 90
3
 70
1
 10
120.0
 20
3245.0
 10
127.5
 20
3248.375
 10
127.5
 20
3241.625
  0
LWPOLYLINE
  5
63
330
17
100
AcDbEntity
  8
DRAWING
  6
CONTINUOUS
420
16738816
100
AcDbPolyline
 90
3
 70
1
 10
1066.0
 20
3245.0
 10
1058.5
 20
3241.625
 10
1058.5
 20
3248.375
  0
TEXT
  5
64
330
17
100
AcDbEntity
  8
TEXT
420
16738816
100
AcDbText
 10
593.0
 20
3257.0
 30
0.0
 40
10.0
  1
946
 72
1
 11
593.0
 21
3257.0
 31
0.0
100
AcDbText
 73
2
  0
LINE
  5
65
330
17
100
AcDbEntity
  8
DRAWING
  6
CONTINUOUS
420
16738816
100
AcDbLine
 10
1068.0
 20
3200.0
 30
0.0
 11
1116.0
 21
3200.0
 31
0.0
  0
LINE
  5
66
330
17
100
AcDbEntity
  8
DRAWING
  6
CONTINUOUS
420
16738816
100
AcDbLine
 10
1068.0
 20
320.0
 30
0.0
 11
1116.0
 21
320.0
 31
0.0
  0
LINE
  5
67
330
17
100
AcDbEntity
  8
DRAWING
  6
CONTINUOUS
420
16738816
100
AcDbLine
 10
1116.0
 20
3200.0
 30
0.0
 11
1116.0
 21
320.0
 31
0.0
  0
LWPOLYLINE
  5
68
330
17
100
AcDbEntity
  8
DRAWING
  6
CONTINUOUS
420
16738816
100
AcDbPolyline
 90
3
 70
1
 10
1116.0
 20
3200.0
 10
1119.375
 20
3192.5
 10
1112.625
 20
3192.5
  0
LWPOLYLINE
  5
69
330
17
100
AcDbEntity
  8
DRAWING
  6
CONTINUOUS
420
16738816
100
AcDbPolyline
 90
3
 70
1
 10
1116.0
 20
320.0
 10
1112.625
 20
327.5
 10
1119.375
 20
327.5
  0
TEXT
  5
6A
330
17
100
AcDbEntity
  8
TEXT
420
16738816
100
AcDbText
 10
1128.0
 20
1760.0
 30
0.0
 40
10.0
  1
2880
 50
-90.0
 72
1
 11
1128.0
 21
1760.0
 31
0.0
100
AcDbText
 73
2
  0
LINE
  5
6B
330
17
100
AcDbEntity
  8
DRAWING
  6
CONTINUOUS
420
16738816
100
AcDbLine
 10
118.0
 20
3200.0
 30
0.0
 11
70.0
 21
3200.0
 31
0.0
  0
LINE
  5
6C
330
17
100
AcDbEntity
  8
DRAWING
  6
CONTINUOUS
420
16738816
100
AcDbLine
 10
118.0
 20
3150.0
 30
0.0
 11
70.0
 21
3150.0
 31
0.0
  0
LINE
  5
6D
330
17
100
AcDbEntity
  8
DRAWING
  6
CONTINUOUS
420
16738816
100
AcDbLine
 10
70.0
 20
3200.0
 30
0.0
 11
70.0
 21
3150.0
 31
0.0
  0
LWPOLYLINE
  5
6E
330
17
100
AcDbEntity
  8
DRAWING
  6
CONTINUOUS
420
16738816
100
AcDbPolyline
 90
3
 70
1
 10
70.0
 20
3200.0
 10
73.375
 20
3192.5
 10
66.625
 20
3192.5
  0
LWPOLYLINE
  5
6F
330
17
100
AcDbEntity
  8
DRAWING
  6
CONTINUOUS
420
16738816
100
AcDbPolyline
 90
3
 70
1
 10
70.0
 20
3150.0
 10
66.625
 20
3157.5
 10
73.375
 20
3157.5
  0
TEXT
  5
70
330
17
100
AcDbEntity
  8
TEXT
420
16738816
100
AcDbText
 10
58.0
 20
3175.0
 30
0.0
 40
10.0
  1
50
 50
90.0
 72
1
 11
58.0
 21
3175.0
 31
0.0
100
AcDbText
 73
2
  0
LINE
  5
71
330
17
100
AcDbEntity
  8
DRAWING
  6
CONTINUOUS
420
16738816
100
AcDbLine
 10
120.0
 20
320.0
 30
0.0
 11
120.0
 21
275.0
 31
0.0
  0
LINE
  5
72
330
17
100
AcDbEntity
  8
DRAWING
  6
CONTINUOUS
420
16738816
100
AcDbLine
 10
145.0
 20
320.0
 30
0.0
 11
145.0
 21
275.0
 31
0.0
  0
LINE
  5
73
330
17
100
AcDbEntity
  8
DRAWING
  6
CONTINUOUS
420
16738816
100
AcDbLine
 10
120.0
 20
275.0
 30
0.0
 11
145.0
 21
275.0
 31
0.0
  0
LWPOLYLINE
  5
74
330
17
100
AcDbEntity
  8
DRAWING
  6
CONTINUOUS
420
16738816
100
AcDbPolyline
 90
3
 70
1
 10
120.0
 20
275.0
 10
127.5
 20
278.375
 10
127.5
 20
271.625
  0
LWPOLYLINE
  5
75
330
17
100
AcDbEntity
  8
DRAWING
  6
CONTINUOUS
420
16738816
100
AcDbPolyline
 90
3
 70
1
 10
145.0
 20
275.0
 10
137.5
 20
271.625
 10
137.5
 20
278.375
  0
TEXT
  5
76
330
17
100
AcDbEntity
  8
TEXT
420
16738816
100
AcDbText
 10
132.5
 20
262.0
 30
0.0
 40
10.0
  1
25.0
 72
1
 11
132.5
 21
262.0
 31
0.0
100
AcDbText
 73
2
  0
LINE
  5
77
330
17
100
AcDbEntity
  8
DRAWING
  6
CONTINUOUS
420
16738816
100
AcDbLine
 10
1068.0
 20
3125.0
 30
0.0
 11
1156.0
 21
3125.0
 31
0.0
  0
LINE
  5
78
330
17
100
AcDbEntity
  8
DRAWING
  6
CONTINUOUS
420
16738816
100
AcDbLine
 10
1068.0
 20
2975.0
 30
0.0
 11
1156.0
 21
2975.0
 31
0.0
  0
LINE
  5
79
330
17
100
AcDbEntity
  8
DRAWING
  6
CONTINUOUS
420
16738816
100
AcDbLine
 10
1156.0
 20
3125.0
 30
0.0
 11
1156.0
 21
2975.0
 31
0.0
  0
LWPOLYLINE
  5
7A
330
17
100
AcDbEntity
  8
DRAWING
  6
CONTINUOUS
420
16738816
100
AcDbPolyline
 90
3
 70
1
 10
1156.0
 20
3125.0
 10
1159.375
 20
3117.5
 10
1152.625
 20
3117.5
  0
LWPOLYLINE
  5
7B
330
17
100
AcDbEntity
  8
DRAWING
  6
CONTINUOUS
420
16738816
100
AcDbPolyline
 90
3
 70
1
 10
1156.0
 20
2975.0
 10
1152.625
 20
2982.5
 10
1159.375
 20
2982.5
  0
TEXT
  5
7C
330
17
100
AcDbEntity
  8
TEXT
420
16738816
100
AcDbText
 10
1168.0
 20
3050.0
 30
0.0
 40
10.0
  1
150
 50
-90.0
 72
1
 11
1168.0
 21
3050.0
 31
0.0
100
AcDbText
 73
2
  0
TEXT
  5
7D
330
17
100
AcDbEntity
  8
TEXT
420
16738816
100
AcDbText
 10
593.0
 20
3231.0
 30
0.0
 40
9.0
  1
Blank-off holes: 19 × ø6 @ 150mm pitch
 72
1
 11
593.0
 21
3231.0
 31
0.0
100
AcDbText
 73
2
  0
TEXT
  5
7E
330
17
100
AcDbEntity
  8
TEXT
420
16738816
100
AcDbText
 10
593.0
 20
3215.0
 30
0.0
 40
9.0
  1
Lifting holes: 2 × ø20 | Side dist = Header Side Plate / 2 = 25.0 mm
 72
1
 11
593.0
 21
3215.0
 31
0.0
100
AcDbText
 73
2
  0
TEXT
  5
7F
330
17
100
AcDbEntity
  8
TEXT
420
1118481
100
AcDbText
 10
593.0
 20
255.0
 30
0.0
 40
13.0
  1
BLANK-OFF PLATE  (25001232-BO)
 72
1
 11
593.0
 21
255.0
 31
0.0
100
AcDbText
 73
2
  0
LINE
  5
80
330
17
100
AcDbEntity
  8
DRAWING
  6
CONTINUOUS
420
1118481
100
AcDbLine
 10
533.0
 20
243.0
 30
0.0
 11
653.0
 21
243.0
 31
0.0
  0
TEXT
  5
81
330
17
100
AcDbEntity
  8
TEXT
420
1118481
100
AcDbText
 10
350.0
 20
210.0
 30
0.0
 40
10.0
  1
Job Order No.: 252600912
 72
1
 11
350.0
 21
210.0
 31
0.0
100
AcDbText
 73
2
  0
TEXT
  5
82
330
17
100
AcDbEntity
  8
TEXT
420
1118481
100
AcDbText
 10
350.0
 20
188.0
 30
0.0
 40
10.0
  1
Coil Unique ID: 25001232
 72
1
 11
350.0
 21
188.0
 31
0.0
100
AcDbText
 73
2
  0
TEXT
  5
83
330
17
100
AcDbEntity
  8
TEXT
420
1118481
100
AcDbText
 10
350.0
 20
166.0
 30
0.0
 40
10.0
  1
Coil Type: CHW
 72
1
 11
350.0
 21
166.0
 31
0.0
100
AcDbText
 73
2
  0
TEXT
  5
84
330
17
100
AcDbEntity
  8
TEXT
420
1118481
100
AcDbText
 10
350.0
 20
144.0
 30
0.0
 40
10.0
  1
Connection: LHS
 72
1
 11
350.0
 21
144.0
 31
0.0
100
AcDbText
 73
2
  0
TEXT
  5
85
330
17
100
AcDbEntity
  8
TEXT
420
1118481
100
AcDbText
 10
350.0
 20
122.0
 30
0.0
 40
10.0
  1
File Name: 25001232-BO
 72
1
 11
350.0
 21
122.0
 31
0.0
100
AcDbText
 73
2
  0
TEXT
  5
86
330
17
100
AcDbEntity
  8
TEXT
420
1118481
100
AcDbText
 10
350.0
 20
81.0
 30
0.0
 40
11.0
  1
Notes:-
 72
1
 11
350.0
 21
81.0
 31
0.0
100
AcDbText
 73
2
  0
TEXT
  5
87
330
17
100
AcDbEntity
  8
TEXT
420
1118481
100
AcDbText
 10
420.0
 20
57.0
 30
0.0
 40
10.0
  1
1. FIN MATERIAL SHOULD BE PLAIN ALUMINIUM (0.11MM THICKNESS).
 72
1
 11
420.0
 21
57.0
 31
0.0
100
AcDbText
 73
2
  0
TEXT
  5
88
330
17
100
AcDbEntity
  8
TEXT
420
1118481
100
AcDbText
 10
420.0
 20
33.0
 30
0.0
 40
10.0
  1
2. CASING MATERIAL SHOULD BE G.I. - 3.00MM THICKNESS.
 72
1
 11
420.0
 21
33.0
 31
0.0
100
AcDbText
 73
2
  0
TEXT
  5
89
330
17
100
AcDbEntity
  8
TEXT
420
1118481
100
AcDbText
 10
420.0
 20
9.0
 30
0.0
 40
10.0
  1
3. 5/8" COPPER TUBE WALL THICKNESS SHOULD BE 0.4 MM.
 72
1
 11
420.0
 21
9.0
 31
0.0
100
AcDbText
 73
2
  0
TEXT
  5
8A
330
17
100
AcDbEntity
  8
COIL_META
420
6710886
100
AcDbText
 10
0.0
 20
-1000000.0
 30
0.0
 40
2.5
  1
COIL_HELVIX_DIMS:{"blank_off_bend":12.0,"bottom_plate":40.0,"circle_diameter":8.4,"coil_type":"CHW","coil_unique_id":"25001232","connection_side":"LHS","core_width":790.0,"fin_length_override":1330.0,"first_bend_blank_off":12.0,"first_bend_bottom_plate":12.0,"first_bend_header_side":40.0,"first_bend_intermediate_plate":12.0,"first_bend_return_side":12.0,"first_bend_top_plate":12.0,"fpi":13.0,"front_header_band_width":185.0,"front_total_height":2880.0,"front_total_width":1445.0,"header_box_height":354.0,"header_dia":12.7,"header_extension_length":260.0,"job_order_no":"252600912","left_panel_width":50.0,"left_pipe_length":185.0,"left_pipe_offset":170.0,"nozzle_projection":75.0,"number_of_circuits":13.0,"number_of_rows":6.0,"pitch_horizontal":59.0,"pitch_vertical":80.0,"right_cap_thickness":12.0,"right_panel_width":65.0,"sheet_metal_thickness":3.0,"side_plate_inner_circle_dia":14.5,"side_plate_outer_circle_dia":15.88,"top_bottom_margin":40.0,"top_feature_circle_1_dia":15.88,"top_feature_circle_2_dia":14.5,"top_feature_pipe_length":33.0,"top_feature_pitch_horizontal":59.0,"top_feature_pitch_vertical":80.0,"top_feature_tube_dia":15.88,"top_feature_tube_height":295.0,"top_intermediate_length":1580.0,"top_plate":40.0,"top_small_offset_1":56.2,"top_small_offset_2":56.2,"top_total_length":1750.0,"tube_dia_inch":0.625,"tubes_per_row":35.0}
100
AcDbText
  0
ENDSEC
  0
SECTION
  2
OBJECTS
  0
DICTIONARY
  5
A
330
0
100
AcDbDictionary
281
1
  3
ACAD_COLOR
350
B
  3
ACAD_GROUP
350
C
  3
ACAD_LAYOUT
350
D
  3
ACAD_MATERIAL
350
E
  3
ACAD_MLEADERSTYLE
350
F
  3
ACAD_MLINESTYLE
350
10
  3
ACAD_PLOTSETTINGS
350
11
  3
ACAD_PLOTSTYLENAME
350
12
  3
ACAD_SCALELIST
350
14
  3
ACAD_TABLESTYLE
350
15
  3
ACAD_VISUALSTYLE
350
16
  3
EZDXF_META
350
2D
  0
DICTIONARY
  5
B
330
A
100
AcDbDictionary
281
1
  0
DICTIONARY
  5
C
330
A
100
AcDbDictionary
281
1
  0
DICTIONARY
  5
D
330
A
100
AcDbDictionary
281
1
  3
Model
350
1A
  3
Layout1
350
1E
  0
DICTIONARY
  5
E
330
A
100
AcDbDictionary
281
1
  3
ByBlock
350
1F
  3
ByLayer
350
20
  3
Global
350
21
  0
DICTIONARY
  5
F
330
A
100
AcDbDictionary
281
1
  3
Standard
350
2C
  0
DICTIONARY
  5
10
330
A
100
AcDbDictionary
281
1
  3
Standard
350
22
  0
DICTIONARY
  5
11
330
A
100
AcDbDictionary
281
1
  0
ACDBDICTIONARYWDFLT
  5
12
330
A
100
AcDbDictionary
281
1
  3
Normal
350
13
100
AcDbDictionaryWithDefault
340
13
  0
ACDBPLACEHOLDER
  5
13
330
12
  0
DICTIONARY
  5
14
330
A
100
AcDbDictionary
281
1
  0
DICTIONARY
  5
15
330
A
100
AcDbDictionary
281
1
  0
DICTIONARY
  5
16
330
A
100
AcDbDictionary
281
1
  0
LAYOUT
  5
1A
330
D
100
AcDbPlotSettings
  1

  4
A3
  6

 40
7.5
 41
20.0
 42
7.5
 43
20.0
 44
420.0
 45
297.0
 46
0.0
 47
0.0
 48
0.0
 49
0.0
140
0.0
141
0.0
142
1.0
143
1.0
 70
1024
 72
1
 73
0
 74
5
  7

 75
16
 76
0
 77
2
 78
300
147
1.0
148
0.0
149
0.0
100
AcDbLayout
  1
Model
 70
1
 71
0
 10
0.0
 20
0.0
 11
420.0
 21
297.0
 12
0.0
 22
0.0
 32
0.0
 14
1e+20
 24
1e+20
 34
1e+20
 15
-1e+20
 25
-1e+20
 35
-1e+20
146
0.0
 13
0.0
 23
0.0
 33
0.0
 16
1.0
 26
0.0
 36
0.0
 17
0.0
 27
1.0
 37
0.0
 76
1
330
17
  0
LAYOUT
  5
1E
330
D
100
AcDbPlotSettings
  1

  4
A3
  6

 40
7.5
 41
20.0
 42
7.5
 43
20.0
 44
420.0
 45
297.0
 46
0.0
 47
0.0
 48
0.0
 49
0.0
140
0.0
141
0.0
142
1.0
143
1.0
 70
0
 72
1
 73
0
 74
5
  7

 75
16
 76
0
 77
2
 78
300
147
1.0
148
0.0
149
0.0
100
AcDbLayout
  1
Layout1
 70
1
 71
1
 10
0.0
 20
0.0
 11
420.0
 21
297.0
 12
0.0
 22
0.0
 32
0.0
 14
1e+20
 24
1e+20
 34
1e+20
 15
-1e+20
 25
-1e+20
 35
-1e+20
146
0.0
 13
0.0
 23
0.0
 33
0.0
 16
1.0
 26
0.0
 36
0.0
 17
0.0
 27
1.0
 37
0.0
 76
1
330
1B
  0
MATERIAL
  5
1F
102
{ACAD_REACTORS
330
E
102
}
330
E
100
AcDbMaterial
  1
ByBlock
  2

 70
0
 40
1.0
 71
1
 41
1.0
 91
-1023410177
 42
1.0
 72
1
  3

 73
1
 74
1
 75
1
 44
0.5
 73
0
 45
1.0
 46
1.0
 77
1
  4

 78
1
 79
1
170
1
 48
1.0
171
1
  6

172
1
173
1
174
1
140
1.0
141
1.0
175
1
  7

176
1
177
1
178
1
143
1.0
179
1
  8

270
1
271
1
272
1
145
1.0
146
1.0
273
1
  9

274
1
275
1
276
1
 42
1.0
 72
1
  3

 73
1
 74
1
 75
1
 94
63
  0
MATERIAL
  5
20
102
{ACAD_REACTORS
330
E
102
}
330
E
100
AcDbMaterial
  1
ByLayer
  2

 70
0
 40
1.0
 71
1
 41
1.0
 91
-1023410177
 42
1.0
 72
1
  3

 73
1
 74
1
 75
1
 44
0.5
 73
0
 45
1.0
 46
1.0
 77
1
  4

 78
1
 79
1
170
1
 48
1.0
171
1
  6

172
1
173
1
174
1
140
1.0
141
1.0
175
1
  7

176
1
177
1
178
1
143
1.0
179
1
  8

270
1
271
1
272
1
145
1.0
146
1.0
273
1
  9

274
1
275
1
276
1
 42
1.0
 72
1
  3

 73
1
 74
1
 75
1
 94
63
  0
MATERIAL
  5
21
102
{ACAD_REACTORS
330
E
102
}
330
E
100
AcDbMaterial
  1
Global
  2

 70
0
 40
1.0
 71
1
 41
1.0
 91
-1023410177
 42
1.0
 72
1
  3

 73
1
 74
1
 75
1
 44
0.5
 73
0
 45
1.0
 46
1.0
 77
1
  4

 78
1
 79
1
170
1
 48
1.0
171
1
  6

172
1
173
1
174
1
140
1.0
141
1.0
175
1
  7

176
1
177
1
178
1
143
1.0
179
1
  8

270
1
271
1
272
1
145
1.0
146
1.0
273
1
  9

274
1
275
1
276
1
 42
1.0
 72
1
  3

 73
1
 74
1
 75
1
 94
63
  0
MLINESTYLE
  5
22
102
{ACAD_REACTORS
330
10
102
}
330
10
100
AcDbMlineStyle
  2
Standard
 70
0
  3

 62
256
 51
90.0
 52
90.0
 71
2
 49
0.5
 62
256
  6
BYLAYER
 49
-0.5
 62
256
  6
BYLAYER
  0
MLEADERSTYLE
  5
2C
102
{ACAD_REACTORS
330
F
102
}
330
F
100
AcDbMLeaderStyle
179
2
170
2
171
1
172
0
 90
2
 40
0.0
 41
0.0
173
1
 91
-1056964608
 92
-2
290
1
 42
2.0
291
1
 43
8.0
  3
Standard
 44
4.0
300

342
29
174
1
175
1
176
0
178
1
 93
-1056964608
 45
4.0
292
0
297
0
 46
4.0
 94
-1056964608
 47
1.0
 49
1.0
140
1.0
294
1
141
0.0
177
0
142
1.0
295
0
296
0
143
3.75
271
0
272
9
273
9
  0
DICTIONARY
  5
2D
330
A
100
AcDbDictionary
280
1
281
1
  3
CREATED_BY_EZDXF
350
2E
  3
WRITTEN_BY_EZDXF
350
8D
  0
DICTIONARYVAR
  5
2E
330
2D
100
DictionaryVariables
280
0
  1
1.4.3 @ 2026-06-11T17:36:25.866615+00:00
  0
DICTIONARYVAR
  5
8D
330
2D
100
DictionaryVariables
280
0
  1
1.4.3 @ 2026-06-11T17:36:25.916176+00:00
  0
ENDSEC
  0
EOF
