  0
SECTION
  2
HEADER
  9
$ACADVER
  1
AC1024
  9
$ACADMAINTVER
 70
6
  9
$DWGCODEPAGE
  3
ANSI_1252
  9
$LASTSAVEDBY
  1
ezdxf
  9
$INSBASE
 10
0.0
 20
0.0
 30
0.0
  9
$EXTMIN
 10
1e+20
 20
1e+20
 30
1e+20
  9
$EXTMAX
 10
-1e+20
 20
-1e+20
 30
-1e+20
  9
$LIMMIN
 10
0.0
 20
0.0
  9
$LIMMAX
 10
420.0
 20
297.0
  9
$ORTHOMODE
 70
0
  9
$REGENMODE
 70
1
  9
$FILLMODE
 70
1
  9
$QTEXTMODE
 70
0
  9
$MIRRTEXT
 70
1
  9
$LTSCALE
 40
1.0
  9
$ATTMODE
 70
1
  9
$TEXTSIZE
 40
2.5
  9
$TRACEWID
 40
1.0
  9
$TEXTSTYLE
  7
Standard
  9
$CLAYER
  8
0
  9
$CELTYPE
  6
ByLayer
  9
$CECOLOR
 62
256
  9
$CELTSCALE
 40
1.0
  9
$DISPSILH
 70
0
  9
$DIMSCALE
 40
1.0
  9
$DIMASZ
 40
2.5
  9
$DIMEXO
 40
0.625
  9
$DIMDLI
 40
3.75
  9
$DIMRND
 40
0.0
  9
$DIMDLE
 40
0.0
  9
$DIMEXE
 40
1.25
  9
$DIMTP
 40
0.0
  9
$DIMTM
 40
0.0
  9
$DIMTXT
 40
2.5
  9
$DIMCEN
 40
2.5
  9
$DIMTSZ
 40
0.0
  9
$DIMTOL
 70
0
  9
$DIMLIM
 70
0
  9
$DIMTIH
 70
0
  9
$DIMTOH
 70
0
  9
$DIMSE1
 70
0
  9
$DIMSE2
 70
0
  9
$DIMTAD
 70
1
  9
$DIMZIN
 70
8
  9
$DIMBLK
  1

  9
$DIMASO
 70
1
  9
$DIMSHO
 70
1
  9
$DIMPOST
  1

  9
$DIMAPOST
  1

  9
$DIMALT
 70
0
  9
$DIMALTD
 70
3
  9
$DIMALTF
 40
0.03937007874
  9
$DIMLFAC
 40
1.0
  9
$DIMTOFL
 70
1
  9
$DIMTVP
 40
0.0
  9
$DIMTIX
 70
0
  9
$DIMSOXD
 70
0
  9
$DIMSAH
 70
0
  9
$DIMBLK1
  1

  9
$DIMBLK2
  1

  9
$DIMSTYLE
  2
ISO-25
  9
$DIMCLRD
 70
0
  9
$DIMCLRE
 70
0
  9
$DIMCLRT
 70
0
  9
$DIMTFAC
 40
1.0
  9
$DIMGAP
 40
0.625
  9
$DIMJUST
 70
0
  9
$DIMSD1
 70
0
  9
$DIMSD2
 70
0
  9
$DIMTOLJ
 70
0
  9
$DIMTZIN
 70
8
  9
$DIMALTZ
 70
0
  9
$DIMALTTZ
 70
0
  9
$DIMUPT
 70
0
  9
$DIMDEC
 70
2
  9
$DIMTDEC
 70
2
  9
$DIMALTU
 70
2
  9
$DIMALTTD
 70
3
  9
$DIMTXSTY
  7
Standard
  9
$DIMAUNIT
 70
0
  9
$DIMADEC
 70
0
  9
$DIMALTRND
 40
0.0
  9
$DIMAZIN
 70
0
  9
$DIMDSEP
 70
44
  9
$DIMATFIT
 70
3
  9
$DIMFRAC
 70
0
  9
$DIMLDRBLK
  1

  9
$DIMLUNIT
 70
2
  9
$DIMLWD
 70
-2
  9
$DIMLWE
 70
-2
  9
$DIMTMOVE
 70
0
  9
$DIMFXL
 40
1.0
  9
$DIMFXLON
 70
0
  9
$DIMJOGANG
 40
0.785398163397
  9
$DIMTFILL
 70
0
  9
$DIMTFILLCLR
 70
0
  9
$DIMARCSYM
 70
0
  9
$DIMLTYPE
  6

  9
$DIMLTEX1
  6

  9
$DIMLTEX2
  6

  9
$DIMTXTDIRECTION
 70
0
  9
$LUNITS
 70
2
  9
$LUPREC
 70
4
  9
$SKETCHINC
 40
1.0
  9
$FILLETRAD
 40
10.0
  9
$AUNITS
 70
0
  9
$AUPREC
 70
2
  9
$MENU
  1
.
  9
$ELEVATION
 40
0.0
  9
$PELEVATION
 40
0.0
  9
$THICKNESS
 40
0.0
  9
$LIMCHECK
 70
0
  9
$CHAMFERA
 40
0.0
  9
$CHAMFERB
 40
0.0
  9
$CHAMFERC
 40
0.0
  9
$CHAMFERD
 40
0.0
  9
$SKPOLY
 70
0
  9
$TDCREATE
 40
2461203.403738426
  9
$TDUCREATE
 40
2458532.153996898
  9
$TDUPDATE
 40
2461203.403738426
  9
$TDUUPDATE
 40
2458532.1544311
  9
$TDINDWG
 40
0.0
  9
$TDUSRTIMER
 40
0.0
  9
$USRTIMER
 70
1
  9
$ANGBASE
 50
0.0
  9
$ANGDIR
 70
0
  9
$PDMODE
 70
0
  9
$PDSIZE
 40
0.0
  9
$PLINEWID
 40
0.0
  9
$SPLFRAME
 70
0
  9
$SPLINETYPE
 70
6
  9
$SPLINESEGS
 70
8
  9
$HANDSEED
  5
68
  9
$SURFTAB1
 70
6
  9
$SURFTAB2
 70
6
  9
$SURFTYPE
 70
6
  9
$SURFU
 70
6
  9
$SURFV
 70
6
  9
$UCSBASE
  2

  9
$UCSNAME
  2

  9
$UCSORG
 10
0.0
 20
0.0
 30
0.0
  9
$UCSXDIR
 10
1.0
 20
0.0
 30
0.0
  9
$UCSYDIR
 10
0.0
 20
1.0
 30
0.0
  9
$UCSORTHOREF
  2

  9
$UCSORTHOVIEW
 70
0
  9
$UCSORGTOP
 10
0.0
 20
0.0
 30
0.0
  9
$UCSORGBOTTOM
 10
0.0
 20
0.0
 30
0.0
  9
$UCSORGLEFT
 10
0.0
 20
0.0
 30
0.0
  9
$UCSORGRIGHT
 10
0.0
 20
0.0
 30
0.0
  9
$UCSORGFRONT
 10
0.0
 20
0.0
 30
0.0
  9
$UCSORGBACK
 10
0.0
 20
0.0
 30
0.0
  9
$PUCSBASE
  2

  9
$PUCSNAME
  2

  9
$PUCSORG
 10
0.0
 20
0.0
 30
0.0
  9
$PUCSXDIR
 10
1.0
 20
0.0
 30
0.0
  9
$PUCSYDIR
 10
0.0
 20
1.0
 30
0.0
  9
$PUCSORTHOREF
  2

  9
$PUCSORTHOVIEW
 70
0
  9
$PUCSORGTOP
 10
0.0
 20
0.0
 30
0.0
  9
$PUCSORGBOTTOM
 10
0.0
 20
0.0
 30
0.0
  9
$PUCSORGLEFT
 10
0.0
 20
0.0
 30
0.0
  9
$PUCSORGRIGHT
 10
0.0
 20
0.0
 30
0.0
  9
$PUCSORGFRONT
 10
0.0
 20
0.0
 30
0.0
  9
$PUCSORGBACK
 10
0.0
 20
0.0
 30
0.0
  9
$USERI1
 70
0
  9
$USERI2
 70
0
  9
$USERI3
 70
0
  9
$USERI4
 70
0
  9
$USERI5
 70
0
  9
$USERR1
 40
0.0
  9
$USERR2
 40
0.0
  9
$USERR3
 40
0.0
  9
$USERR4
 40
0.0
  9
$USERR5
 40
0.0
  9
$WORLDVIEW
 70
1
  9
$SHADEDGE
 70
3
  9
$SHADEDIF
 70
70
  9
$TILEMODE
 70
1
  9
$MAXACTVP
 70
64
  9
$PINSBASE
 10
0.0
 20
0.0
 30
0.0
  9
$PLIMCHECK
 70
0
  9
$PEXTMIN
 10
1e+20
 20
1e+20
 30
1e+20
  9
$PEXTMAX
 10
-1e+20
 20
-1e+20
 30
-1e+20
  9
$PLIMMIN
 10
0.0
 20
0.0
  9
$PLIMMAX
 10
420.0
 20
297.0
  9
$UNITMODE
 70
0
  9
$VISRETAIN
 70
1
  9
$PLINEGEN
 70
0
  9
$PSLTSCALE
 70
1
  9
$TREEDEPTH
 70
3020
  9
$CMLSTYLE
  2
Standard
  9
$CMLJUST
 70
0
  9
$CMLSCALE
 40
20.0
  9
$PROXYGRAPHICS
 70
1
  9
$MEASUREMENT
 70
1
  9
$CELWEIGHT
370
-1
  9
$ENDCAPS
280
0
  9
$JOINSTYLE
280
0
  9
$LWDISPLAY
290
0
  9
$INSUNITS
 70
4
  9
$HYPERLINKBASE
  1

  9
$STYLESHEET
  1

  9
$XEDIT
290
1
  9
$CEPSNTYPE
380
0
  9
$PSTYLEMODE
290
1
  9
$FINGERPRINTGUID
  2
{1AB76C45-4AC2-4F24-A459-397FCBFBBAE5}
  9
$VERSIONGUID
  2
{1C2D967B-2A6A-4482-AAFB-3E130648DEF2}
  9
$EXTNAMES
290
1
  9
$PSVPSCALE
 40
0.0
  9
$OLESTARTUP
290
0
  9
$SORTENTS
280
127
  9
$INDEXCTL
280
0
  9
$HIDETEXT
280
1
  9
$XCLIPFRAME
280
1
  9
$HALOGAP
280
0
  9
$OBSCOLOR
 70
257
  9
$OBSLTYPE
280
0
  9
$INTERSECTIONDISPLAY
280
0
  9
$INTERSECTIONCOLOR
 70
257
  9
$DIMASSOC
280
2
  9
$PROJECTNAME
  1

  9
$CAMERADISPLAY
290
0
  9
$LENSLENGTH
 40
50.0
  9
$CAMERAHEIGHT
 40
0.0
  9
$STEPSPERSEC
 40
24.0
  9
$STEPSIZE
 40
100.0
  9
$3DDWFPREC
 40
2.0
  9
$PSOLWIDTH
 40
0.005
  9
$PSOLHEIGHT
 40
0.08
  9
$LOFTANG1
 40
1.570796326795
  9
$LOFTANG2
 40
1.570796326795
  9
$LOFTMAG1
 40
0.0
  9
$LOFTMAG2
 40
0.0
  9
$LOFTPARAM
 70
7
  9
$LOFTNORMALS
280
1
  9
$LATITUDE
 40
37.795
  9
$LONGITUDE
 40
-122.394
  9
$NORTHDIRECTION
 40
0.0
  9
$TIMEZONE
 70
-8000
  9
$LIGHTGLYPHDISPLAY
280
1
  9
$TILEMODELIGHTSYNCH
280
1
  9
$CMATERIAL
347
20
  9
$SOLIDHIST
280
0
  9
$SHOWHIST
280
1
  9
$DWFFRAME
280
2
  9
$DGNFRAME
280
2
  9
$REALWORLDSCALE
290
1
  9
$INTERFERECOLOR
 62
256
  9
$CSHADOW
280
0
  9
$SHADOWPLANELOCATION
 40
0.0
  0
ENDSEC
  0
SECTION
  2
CLASSES
  0
CLASS
  1
ACDBDICTIONARYWDFLT
  2
AcDbDictionaryWithDefault
  3
ObjectDBX Classes
 90
0
 91
0
280
0
281
0
  0
CLASS
  1
SUN
  2
AcDbSun
  3
SCENEOE
 90
1153
 91
0
280
0
281
0
  0
CLASS
  1
VISUALSTYLE
  2
AcDbVisualStyle
  3
ObjectDBX Classes
 90
4095
 91
0
280
0
281
0
  0
CLASS
  1
MATERIAL
  2
AcDbMaterial
  3
ObjectDBX Classes
 90
1153
 91
0
280
0
281
0
  0
CLASS
  1
SCALE
  2
AcDbScale
  3
ObjectDBX Classes
 90
1153
 91
0
280
0
281
0
  0
CLASS
  1
TABLESTYLE
  2
AcDbTableStyle
  3
ObjectDBX Classes
 90
4095
 91
0
280
0
281
0
  0
CLASS
  1
MLEADERSTYLE
  2
AcDbMLeaderStyle
  3
ACDB_MLEADERSTYLE_CLASS
 90
4095
 91
0
280
0
281
0
  0
CLASS
  1
DICTIONARYVAR
  2
AcDbDictionaryVar
  3
ObjectDBX Classes
 90
0
 91
0
280
0
281
0
  0
CLASS
  1
CELLSTYLEMAP
  2
AcDbCellStyleMap
  3
ObjectDBX Classes
 90
1152
 91
0
280
0
281
0
  0
CLASS
  1
MENTALRAYRENDERSETTINGS
  2
AcDbMentalRayRenderSettings
  3
SCENEOE
 90
1024
 91
0
280
0
281
0
  0
CLASS
  1
ACDBDETAILVIEWSTYLE
  2
AcDbDetailViewStyle
  3
ObjectDBX Classes
 90
1025
 91
0
280
0
281
0
  0
CLASS
  1
ACDBSECTIONVIEWSTYLE
  2
AcDbSectionViewStyle
  3
ObjectDBX Classes
 90
1025
 91
0
280
0
281
0
  0
CLASS
  1
RASTERVARIABLES
  2
AcDbRasterVariables
  3
ISM
 90
0
 91
0
280
0
281
0
  0
CLASS
  1
ACDBPLACEHOLDER
  2
AcDbPlaceHolder
  3
ObjectDBX Classes
 90
0
 91
0
280
0
281
0
  0
CLASS
  1
LAYOUT
  2
AcDbLayout
  3
ObjectDBX Classes
 90
0
 91
0
280
0
281
0
  0
ENDSEC
  0
SECTION
  2
TABLES
  0
TABLE
  2
VPORT
  5
8
330
0
100
AcDbSymbolTable
 70
1
  0
VPORT
  5
23
330
8
100
AcDbSymbolTableRecord
100
AcDbViewportTableRecord
  2
*Active
 70
0
 10
0.0
 20
0.0
 11
1.0
 21
1.0
 12
0.0
 22
0.0
 13
0.0
 23
0.0
 14
0.5
 24
0.5
 15
0.5
 25
0.5
 16
0.0
 26
0.0
 36
1.0
 17
0.0
 27
0.0
 37
0.0
 40
1000.0
 41
1.34
 42
50.0
 43
0.0
 44
0.0
 50
0.0
 51
0.0
 71
0
 72
1000
 73
1
 74
3
 75
0
 76
0
 77
0
 78
0
281
0
 65
0
146
0.0
  0
ENDTAB
  0
TABLE
  2
LTYPE
  5
2
330
0
100
AcDbSymbolTable
 70
4
  0
LTYPE
  5
24
330
2
100
AcDbSymbolTableRecord
100
AcDbLinetypeTableRecord
  2
ByBlock
 70
0
  3

 72
65
 73
0
 40
0.0
  0
LTYPE
  5
25
330
2
100
AcDbSymbolTableRecord
100
AcDbLinetypeTableRecord
  2
ByLayer
 70
0
  3

 72
65
 73
0
 40
0.0
  0
LTYPE
  5
26
330
2
100
AcDbSymbolTableRecord
100
AcDbLinetypeTableRecord
  2
Continuous
 70
0
  3

 72
65
 73
0
 40
0.0
  0
LTYPE
  5
32
330
2
100
AcDbSymbolTableRecord
100
AcDbLinetypeTableRecord
  2
DASHED
 70
0
  3
Dashed __ __
 72
65
 73
2
 40
0.5
 49
0.25
 74
0
 49
-0.25
 74
0
  0
ENDTAB
  0
TABLE
  2
LAYER
  5
1
330
0
100
AcDbSymbolTable
 70
5
  0
LAYER
  5
27
330
1
100
AcDbSymbolTableRecord
100
AcDbLayerTableRecord
  2
0
 70
0
 62
7
  6
Continuous
370
-3
390
13
347
21
  0
LAYER
  5
28
330
1
100
AcDbSymbolTableRecord
100
AcDbLayerTableRecord
  2
Defpoints
 70
0
 62
7
  6
Continuous
290
0
370
-3
390
13
347
21
  0
LAYER
  5
2F
330
1
100
AcDbSymbolTableRecord
100
AcDbLayerTableRecord
  2
DRAWING
 70
0
 62
7
  6
Continuous
370
-3
390
13
347
21
  0
LAYER
  5
30
330
1
100
AcDbSymbolTableRecord
100
AcDbLayerTableRecord
  2
TEXT
 70
0
 62
7
  6
Continuous
370
-3
390
13
347
21
  0
LAYER
  5
31
330
1
100
AcDbSymbolTableRecord
100
AcDbLayerTableRecord
  2
COIL_META
 70
0
 62
8
  6
Continuous
370
-3
390
13
347
21
  0
ENDTAB
  0
TABLE
  2
STYLE
  5
5
330
0
100
AcDbSymbolTable
 70
1
  0
STYLE
  5
29
330
5
100
AcDbSymbolTableRecord
100
AcDbTextStyleTableRecord
  2
Standard
 70
0
 40
0.0
 41
1.0
 50
0.0
 71
0
 42
2.5
  3
txt
  4

  0
ENDTAB
  0
TABLE
  2
VIEW
  5
7
330
0
100
AcDbSymbolTable
 70
0
  0
ENDTAB
  0
TABLE
  2
UCS
  5
6
330
0
100
AcDbSymbolTable
 70
0
  0
ENDTAB
  0
TABLE
  2
APPID
  5
3
330
0
100
AcDbSymbolTable
 70
3
  0
APPID
  5
2A
330
3
100
AcDbSymbolTableRecord
100
AcDbRegAppTableRecord
  2
ACAD
 70
0
  0
APPID
  5
65
330
3
100
AcDbSymbolTableRecord
100
AcDbRegAppTableRecord
  2
HATCHBACKGROUNDCOLOR
 70
0
  0
APPID
  5
66
330
3
100
AcDbSymbolTableRecord
100
AcDbRegAppTableRecord
  2
EZDXF
 70
0
  0
ENDTAB
  0
TABLE
  2
DIMSTYLE
  5
4
330
0
100
AcDbSymbolTable
 70
1
100
AcDbDimStyleTable
  0
DIMSTYLE
105
2B
330
4
100
AcDbSymbolTableRecord
100
AcDbDimStyleTableRecord
  2
Standard
 70
0
 40
1.0
 41
2.5
 42
0.625
 43
3.75
 44
1.25
 45
0.0
 46
0.0
 47
0.0
 48
0.0
 49
2.5
140
2.5
141
2.5
142
0.0
143
0.03937007874
144
1.0
145
0.0
146
1.0
147
0.625
148
0.0
 69
0
 70
0
 71
0
 72
0
 73
0
 74
0
 75
0
 76
0
 77
1
 78
8
 79
3
170
0
171
3
172
1
173
0
174
0
175
0
176
0
177
0
178
0
179
2
271
2
272
2
273
2
274
3
275
0
276
0
277
2
278
44
279
0
280
0
281
0
282
0
283
0
284
8
285
0
286
0
288
0
289
3
290
0
371
-2
372
-2
  0
ENDTAB
  0
TABLE
  2
BLOCK_RECORD
  5
9
330
0
100
AcDbSymbolTable
 70
2
  0
BLOCK_RECORD
  5
17
330
9
100
AcDbSymbolTableRecord
100
AcDbBlockTableRecord
  2
*Model_Space
340
1A
 70
0
280
1
281
0
  0
BLOCK_RECORD
  5
1B
330
9
100
AcDbSymbolTableRecord
100
AcDbBlockTableRecord
  2
*Paper_Space
340
1E
 70
0
280
1
281
0
  0
ENDTAB
  0
ENDSEC
  0
SECTION
  2
BLOCKS
  0
BLOCK
  5
18
330
17
100
AcDbEntity
  8
0
100
AcDbBlockBegin
  2
*Model_Space
 70
0
 10
0.0
 20
0.0
 30
0.0
  3
*Model_Space
  1

  0
ENDBLK
  5
19
330
17
100
AcDbEntity
  8
0
100
AcDbBlockEnd
  0
BLOCK
  5
1C
330
1B
100
AcDbEntity
  8
0
100
AcDbBlockBegin
  2
*Paper_Space
 70
0
 10
0.0
 20
0.0
 30
0.0
  3
*Paper_Space
  1

  0
ENDBLK
  5
1D
330
1B
100
AcDbEntity
  8
0
100
AcDbBlockEnd
  0
ENDSEC
  0
SECTION
  2
ENTITIES
  0
LINE
  5
33
330
17
100
AcDbEntity
  8
DRAWING
  6
CONTINUOUS
420
1118481
100
AcDbLine
 10
120.0
 20
1075.8333333333335
 30
0.0
 11
442.0
 21
1075.8333333333335
 31
0.0
  0
LINE
  5
34
330
17
100
AcDbEntity
  8
DRAWING
  6
CONTINUOUS
420
1118481
100
AcDbLine
 10
442.0
 20
1075.8333333333335
 30
0.0
 11
442.0
 21
320.0000000000001
 31
0.0
  0
LINE
  5
35
330
17
100
AcDbEntity
  8
DRAWING
  6
CONTINUOUS
420
1118481
100
AcDbLine
 10
442.0
 20
320.0000000000001
 30
0.0
 11
120.0
 21
320.0000000000001
 31
0.0
  0
LINE
  5
36
330
17
100
AcDbEntity
  8
DRAWING
  6
CONTINUOUS
420
1118481
100
AcDbLine
 10
120.0
 20
320.0000000000001
 30
0.0
 11
120.0
 21
1075.8333333333335
 31
0.0
  0
LINE
  5
37
330
17
100
AcDbEntity
  8
DRAWING
  6
CONTINUOUS
420
1118481
100
AcDbLine
 10
120.0
 20
1060.8333333333335
 30
0.0
 11
442.0
 21
1060.8333333333335
 31
0.0
  0
LINE
  5
38
330
17
100
AcDbEntity
  8
DRAWING
  6
CONTINUOUS
420
1118481
100
AcDbLine
 10
120.0
 20
335.0000000000001
 30
0.0
 11
442.0
 21
335.0000000000001
 31
0.0
  0
LWPOLYLINE
  5
39
330
17
100
AcDbEntity
  8
DRAWING
  6
CONTINUOUS
420
1118481
100
AcDbPolyline
 90
73
 70
1
 10
164.0
 20
1068.3333333333335
 10
163.98858409427524
 20
1068.0718661050905
 10
163.95442325903662
 20
1067.8123888003327
 10
163.8977774788672
 20
1067.556876198026
 10
163.81907786235772
 20
1067.3072729033565
 10
163.71892336110994
 20
1067.0654785481113
 10
163.59807621135332
 20
1066.8333333333335
 10
163.45745613286698
 20
1066.6126040242802
 10
163.29813332935694
 20
1066.404970504274
 10
163.12132034355963
 20
1066.212012989774
 10
162.9283628290596
 20
1066.0352000039766
 10
162.72072930905313
 20
1065.8758772004664
 10
162.5
 20
1065.73525712198
 10
162.26785478522208
 20
1065.6144099722235
 10
162.026060429977
 20
1065.5142554709757
 10
161.77645713530757
 20
1065.4355558544662
 10
161.5209445330008
 20
1065.3789100742968
 10
161.26146722824296
 20
1065.3447492390583
 10
161.0
 20
1065.3333333333335
 10
160.73853277175704
 20
1065.3447492390583
 10
160.4790554669992
 20
1065.3789100742968
 10
160.22354286469243
 20
1065.4355558544662
 10
159.973939570023
 20
1065.5142554709757
 10
159.73214521477792
 20
1065.6144099722235
 10
159.5
 20
1065.73525712198
 10
159.27927069094687
 20
1065.8758772004664
 10
159.0716371709404
 20
1066.0352000039766
 10
158.87867965644037
 20
1066.212012989774
 10
158.70186667064306
 20
1066.404970504274
 10
158.54254386713302
 20
1066.6126040242802
 10
158.40192378864668
 20
1066.8333333333335
 10
158.28107663889006
 20
1067.0654785481113
 10
158.18092213764228
 20
1067.3072729033565
 10
158.1022225211328
 20
1067.556876198026
 10
158.04557674096338
 20
1067.8123888003327
 10
158.01141590572476
 20
1068.0718661050905
 10
158.0
 20
1068.3333333333335
 10
158.01141590572476
 20
1068.5948005615764
 10
158.04557674096338
 20
1068.8542778663343
 10
158.1022225211328
 20
1069.109790468641
 10
158.18092213764228
 20
1069.3593937633104
 10
158.28107663889006
 20
1069.6011881185557
 10
158.40192378864668
 20
1069.8333333333335
 10
158.54254386713302
 20
1070.0540626423867
 10
158.70186667064306
 20
1070.261696162393
 10
158.87867965644037
 20
1070.454653676893
 10
159.0716371709404
 20
1070.6314666626904
 10
159.27927069094687
 20
1070.7907894662005
 10
159.5
 20
1070.9314095446869
 10
159.73214521477792
 20
1071.0522566944435
 10
159.973939570023
 20
1071.1524111956912
 10
160.22354286469243
 20
1071.2311108122008
 10
160.4790554669992
 20
1071.2877565923702
 10
160.73853277175704
 20
1071.3219174276087
 10
161.0
 20
1071.3333333333335
 10
161.26146722824296
 20
1071.3219174276087
 10
161.5209445330008
 20
1071.2877565923702
 10
161.77645713530757
 20
1071.2311108122008
 10
162.026060429977
 20
1071.1524111956912
 10
162.26785478522208
 20
1071.0522566944435
 10
162.5
 20
1070.9314095446869
 10
162.72072930905313
 20
1070.7907894662005
 10
162.9283628290596
 20
1070.6314666626904
 10
163.12132034355963
 20
1070.454653676893
 10
163.29813332935694
 20
1070.261696162393
 10
163.45745613286698
 20
1070.0540626423867
 10
163.59807621135332
 20
1069.8333333333335
 10
163.71892336110994
 20
1069.6011881185557
 10
163.81907786235772
 20
1069.3593937633104
 10
163.8977774788672
 20
1069.109790468641
 10
163.95442325903662
 20
1068.8542778663343
 10
163.98858409427524
 20
1068.5948005615764
 10
164.0
 20
1068.3333333333335
  0
LWPOLYLINE
  5
3A
330
17
100
AcDbEntity
  8
DRAWING
  6
CONTINUOUS
420
1118481
100
AcDbPolyline
 90
73
 70
1
 10
164.0
 20
327.5000000000001
 10
163.98858409427524
 20
327.23853277175715
 10
163.95442325903662
 20
326.9790554669993
 10
163.8977774788672
 20
326.7235428646926
 10
163.81907786235772
 20
326.47393957002316
 10
163.71892336110994
 20
326.23214521477803
 10
163.59807621135332
 20
326.0000000000001
 10
163.45745613286698
 20
325.779270690947
 10
163.29813332935694
 20
325.57163717094045
 10
163.12132034355963
 20
325.37867965644045
 10
162.9283628290596
 20
325.2018666706432
 10
162.72072930905313
 20
325.0425438671332
 10
162.5
 20
324.90192378864685
 10
162.26785478522208
 20
324.7810766388901
 10
162.026060429977
 20
324.68092213764237
 10
161.77645713530757
 20
324.60222252113294
 10
161.5209445330008
 20
324.5455767409635
 10
161.26146722824296
 20
324.5114159057249
 10
161.0
 20
324.5000000000001
 10
160.73853277175704
 20
324.5114159057249
 10
160.4790554669992
 20
324.5455767409635
 10
160.22354286469243
 20
324.60222252113294
 10
159.973939570023
 20
324.68092213764237
 10
159.73214521477792
 20
324.7810766388901
 10
159.5
 20
324.90192378864685
 10
159.27927069094687
 20
325.0425438671332
 10
159.0716371709404
 20
325.2018666706432
 10
158.87867965644037
 20
325.37867965644045
 10
158.70186667064306
 20
325.57163717094045
 10
158.54254386713302
 20
325.779270690947
 10
158.40192378864668
 20
326.0000000000001
 10
158.28107663889006
 20
326.23214521477803
 10
158.18092213764228
 20
326.47393957002316
 10
158.1022225211328
 20
326.7235428646926
 10
158.04557674096338
 20
326.9790554669993
 10
158.01141590572476
 20
327.23853277175715
 10
158.0
 20
327.5000000000001
 10
158.01141590572476
 20
327.7614672282431
 10
158.04557674096338
 20
328.02094453300094
 10
158.1022225211328
 20
328.2764571353076
 10
158.18092213764228
 20
328.52606042997706
 10
158.28107663889006
 20
328.7678547852222
 10
158.40192378864668
 20
329.0000000000001
 10
158.54254386713302
 20
329.22072930905324
 10
158.70186667064306
 20
329.4283628290598
 10
158.87867965644037
 20
329.6213203435598
 10
159.0716371709404
 20
329.79813332935703
 10
159.27927069094687
 20
329.95745613286704
 10
159.5
 20
330.0980762113534
 10
159.73214521477792
 20
330.2189233611101
 10
159.973939570023
 20
330.31907786235786
 10
160.22354286469243
 20
330.3977774788673
 10
160.4790554669992
 20
330.45442325903673
 10
160.73853277175704
 20
330.4885840942753
 10
161.0
 20
330.5000000000001
 10
161.26146722824296
 20
330.4885840942753
 10
161.5209445330008
 20
330.45442325903673
 10
161.77645713530757
 20
330.3977774788673
 10
162.026060429977
 20
330.31907786235786
 10
162.26785478522208
 20
330.2189233611101
 10
162.5
 20
330.0980762113534
 10
162.72072930905313
 20
329.95745613286704
 10
162.9283628290596
 20
329.79813332935703
 10
163.12132034355963
 20
329.6213203435598
 10
163.29813332935694
 20
329.4283628290598
 10
163.45745613286698
 20
329.22072930905324
 10
163.59807621135332
 20
329.0000000000001
 10
163.71892336110994
 20
328.7678547852222
 10
163.81907786235772
 20
328.5260604299772
 10
163.8977774788672
 20
328.2764571353076
 10
163.95442325903662
 20
328.02094453300094
 10
163.98858409427524
 20
327.7614672282431
 10
164.0
 20
327.5000000000001
  0
LWPOLYLINE
  5
3B
330
17
100
AcDbEntity
  8
DRAWING
  6
CONTINUOUS
420
1118481
100
AcDbPolyline
 90
73
 70
1
 10
224.0
 20
1068.3333333333335
 10
223.98858409427524
 20
1068.0718661050905
 10
223.95442325903662
 20
1067.8123888003327
 10
223.8977774788672
 20
1067.556876198026
 10
223.81907786235772
 20
1067.3072729033565
 10
223.71892336110994
 20
1067.0654785481113
 10
223.59807621135332
 20
1066.8333333333335
 10
223.45745613286698
 20
1066.6126040242802
 10
223.29813332935694
 20
1066.404970504274
 10
223.12132034355963
 20
1066.212012989774
 10
222.9283628290596
 20
1066.0352000039766
 10
222.72072930905313
 20
1065.8758772004664
 10
222.5
 20
1065.73525712198
 10
222.26785478522208
 20
1065.6144099722235
 10
222.026060429977
 20
1065.5142554709757
 10
221.77645713530757
 20
1065.4355558544662
 10
221.5209445330008
 20
1065.3789100742968
 10
221.26146722824296
 20
1065.3447492390583
 10
221.0
 20
1065.3333333333335
 10
220.73853277175704
 20
1065.3447492390583
 10
220.4790554669992
 20
1065.3789100742968
 10
220.22354286469243
 20
1065.4355558544662
 10
219.973939570023
 20
1065.5142554709757
 10
219.73214521477792
 20
1065.6144099722235
 10
219.5
 20
1065.73525712198
 10
219.27927069094687
 20
1065.8758772004664
 10
219.0716371709404
 20
1066.0352000039766
 10
218.87867965644037
 20
1066.212012989774
 10
218.70186667064306
 20
1066.404970504274
 10
218.54254386713302
 20
1066.6126040242802
 10
218.40192378864668
 20
1066.8333333333335
 10
218.28107663889006
 20
1067.0654785481113
 10
218.18092213764228
 20
1067.3072729033565
 10
218.1022225211328
 20
1067.556876198026
 10
218.04557674096338
 20
1067.8123888003327
 10
218.01141590572476
 20
1068.0718661050905
 10
218.0
 20
1068.3333333333335
 10
218.01141590572476
 20
1068.5948005615764
 10
218.04557674096338
 20
1068.8542778663343
 10
218.1022225211328
 20
1069.109790468641
 10
218.18092213764228
 20
1069.3593937633104
 10
218.28107663889006
 20
1069.6011881185557
 10
218.40192378864668
 20
1069.8333333333335
 10
218.54254386713302
 20
1070.0540626423867
 10
218.70186667064306
 20
1070.261696162393
 10
218.87867965644037
 20
1070.454653676893
 10
219.0716371709404
 20
1070.6314666626904
 10
219.27927069094687
 20
1070.7907894662005
 10
219.5
 20
1070.9314095446869
 10
219.73214521477792
 20
1071.0522566944435
 10
219.973939570023
 20
1071.1524111956912
 10
220.22354286469243
 20
1071.2311108122008
 10
220.4790554669992
 20
1071.2877565923702
 10
220.73853277175704
 20
1071.3219174276087
 10
221.0
 20
1071.3333333333335
 10
221.26146722824296
 20
1071.3219174276087
 10
221.5209445330008
 20
1071.2877565923702
 10
221.77645713530757
 20
1071.2311108122008
 10
222.026060429977
 20
1071.1524111956912
 10
222.26785478522208
 20
1071.0522566944435
 10
222.5
 20
1070.9314095446869
 10
222.72072930905313
 20
1070.7907894662005
 10
222.9283628290596
 20
1070.6314666626904
 10
223.12132034355963
 20
1070.454653676893
 10
223.29813332935694
 20
1070.261696162393
 10
223.45745613286698
 20
1070.0540626423867
 10
223.59807621135332
 20
1069.8333333333335
 10
223.71892336110994
 20
1069.6011881185557
 10
223.81907786235772
 20
1069.3593937633104
 10
223.8977774788672
 20
1069.109790468641
 10
223.95442325903662
 20
1068.8542778663343
 10
223.98858409427524
 20
1068.5948005615764
 10
224.0
 20
1068.3333333333335
  0
LWPOLYLINE
  5
3C
330
17
100
AcDbEntity
  8
DRAWING
  6
CONTINUOUS
420
1118481
100
AcDbPolyline
 90
73
 70
1
 10
224.0
 20
327.5000000000001
 10
223.98858409427524
 20
327.23853277175715
 10
223.95442325903662
 20
326.9790554669993
 10
223.8977774788672
 20
326.7235428646926
 10
223.81907786235772
 20
326.47393957002316
 10
223.71892336110994
 20
326.23214521477803
 10
223.59807621135332
 20
326.0000000000001
 10
223.45745613286698
 20
325.779270690947
 10
223.29813332935694
 20
325.57163717094045
 10
223.12132034355963
 20
325.37867965644045
 10
222.9283628290596
 20
325.2018666706432
 10
222.72072930905313
 20
325.0425438671332
 10
222.5
 20
324.90192378864685
 10
222.26785478522208
 20
324.7810766388901
 10
222.026060429977
 20
324.68092213764237
 10
221.77645713530757
 20
324.60222252113294
 10
221.5209445330008
 20
324.5455767409635
 10
221.26146722824296
 20
324.5114159057249
 10
221.0
 20
324.5000000000001
 10
220.73853277175704
 20
324.5114159057249
 10
220.4790554669992
 20
324.5455767409635
 10
220.22354286469243
 20
324.60222252113294
 10
219.973939570023
 20
324.68092213764237
 10
219.73214521477792
 20
324.7810766388901
 10
219.5
 20
324.90192378864685
 10
219.27927069094687
 20
325.0425438671332
 10
219.0716371709404
 20
325.2018666706432
 10
218.87867965644037
 20
325.37867965644045
 10
218.70186667064306
 20
325.57163717094045
 10
218.54254386713302
 20
325.779270690947
 10
218.40192378864668
 20
326.0000000000001
 10
218.28107663889006
 20
326.23214521477803
 10
218.18092213764228
 20
326.47393957002316
 10
218.1022225211328
 20
326.7235428646926
 10
218.04557674096338
 20
326.9790554669993
 10
218.01141590572476
 20
327.23853277175715
 10
218.0
 20
327.5000000000001
 10
218.01141590572476
 20
327.7614672282431
 10
218.04557674096338
 20
328.02094453300094
 10
218.1022225211328
 20
328.2764571353076
 10
218.18092213764228
 20
328.52606042997706
 10
218.28107663889006
 20
328.7678547852222
 10
218.40192378864668
 20
329.0000000000001
 10
218.54254386713302
 20
329.22072930905324
 10
218.70186667064306
 20
329.4283628290598
 10
218.87867965644037
 20
329.6213203435598
 10
219.0716371709404
 20
329.79813332935703
 10
219.27927069094687
 20
329.95745613286704
 10
219.5
 20
330.0980762113534
 10
219.73214521477792
 20
330.2189233611101
 10
219.973939570023
 20
330.31907786235786
 10
220.22354286469243
 20
330.3977774788673
 10
220.4790554669992
 20
330.45442325903673
 10
220.73853277175704
 20
330.4885840942753
 10
221.0
 20
330.5000000000001
 10
221.26146722824296
 20
330.4885840942753
 10
221.5209445330008
 20
330.45442325903673
 10
221.77645713530757
 20
330.3977774788673
 10
222.026060429977
 20
330.31907786235786
 10
222.26785478522208
 20
330.2189233611101
 10
222.5
 20
330.0980762113534
 10
222.72072930905313
 20
329.95745613286704
 10
222.9283628290596
 20
329.79813332935703
 10
223.12132034355963
 20
329.6213203435598
 10
223.29813332935694
 20
329.4283628290598
 10
223.45745613286698
 20
329.22072930905324
 10
223.59807621135332
 20
329.0000000000001
 10
223.71892336110994
 20
328.7678547852222
 10
223.81907786235772
 20
328.5260604299772
 10
223.8977774788672
 20
328.2764571353076
 10
223.95442325903662
 20
328.02094453300094
 10
223.98858409427524
 20
327.7614672282431
 10
224.0
 20
327.5000000000001
  0
LWPOLYLINE
  5
3D
330
17
100
AcDbEntity
  8
DRAWING
  6
CONTINUOUS
420
1118481
100
AcDbPolyline
 90
73
 70
1
 10
284.0
 20
1068.3333333333335
 10
283.9885840942752
 20
1068.0718661050905
 10
283.9544232590366
 20
1067.8123888003327
 10
283.8977774788672
 20
1067.556876198026
 10
283.81907786235774
 20
1067.3072729033565
 10
283.71892336110994
 20
1067.0654785481113
 10
283.5980762113533
 20
1066.8333333333335
 10
283.457456132867
 20
1066.6126040242802
 10
283.2981333293569
 20
1066.404970504274
 10
283.12132034355966
 20
1066.212012989774
 10
282.9283628290596
 20
1066.0352000039766
 10
282.7207293090531
 20
1065.8758772004664
 10
282.5
 20
1065.73525712198
 10
282.2678547852221
 20
1065.6144099722235
 10
282.026060429977
 20
1065.5142554709757
 10
281.77645713530757
 20
1065.4355558544662
 10
281.5209445330008
 20
1065.3789100742968
 10
281.26146722824296
 20
1065.3447492390583
 10
281.0
 20
1065.3333333333335
 10
280.73853277175704
 20
1065.3447492390583
 10
280.4790554669992
 20
1065.3789100742968
 10
280.22354286469243
 20
1065.4355558544662
 10
279.973939570023
 20
1065.5142554709757
 10
279.7321452147779
 20
1065.6144099722235
 10
279.5
 20
1065.73525712198
 10
279.2792706909469
 20
1065.8758772004664
 10
279.0716371709404
 20
1066.0352000039766
 10
278.87867965644034
 20
1066.212012989774
 10
278.7018666706431
 20
1066.404970504274
 10
278.542543867133
 20
1066.6126040242802
 10
278.4019237886467
 20
1066.8333333333335
 10
278.28107663889006
 20
1067.0654785481113
 10
278.18092213764226
 20
1067.3072729033565
 10
278.1022225211328
 20
1067.556876198026
 10
278.0455767409634
 20
1067.8123888003327
 10
278.0114159057248
 20
1068.0718661050905
 10
278.0
 20
1068.3333333333335
 10
278.0114159057248
 20
1068.5948005615764
 10
278.0455767409634
 20
1068.8542778663343
 10
278.1022225211328
 20
1069.109790468641
 10
278.18092213764226
 20
1069.3593937633104
 10
278.28107663889006
 20
1069.6011881185557
 10
278.4019237886467
 20
1069.8333333333335
 10
278.542543867133
 20
1070.0540626423867
 10
278.7018666706431
 20
1070.261696162393
 10
278.87867965644034
 20
1070.454653676893
 10
279.0716371709404
 20
1070.6314666626904
 10
279.2792706909469
 20
1070.7907894662005
 10
279.5
 20
1070.9314095446869
 10
279.7321452147779
 20
1071.0522566944435
 10
279.973939570023
 20
1071.1524111956912
 10
280.22354286469243
 20
1071.2311108122008
 10
280.4790554669992
 20
1071.2877565923702
 10
280.73853277175704
 20
1071.3219174276087
 10
281.0
 20
1071.3333333333335
 10
281.26146722824296
 20
1071.3219174276087
 10
281.5209445330008
 20
1071.2877565923702
 10
281.77645713530757
 20
1071.2311108122008
 10
282.026060429977
 20
1071.1524111956912
 10
282.2678547852221
 20
1071.0522566944435
 10
282.5
 20
1070.9314095446869
 10
282.7207293090531
 20
1070.7907894662005
 10
282.9283628290596
 20
1070.6314666626904
 10
283.12132034355966
 20
1070.454653676893
 10
283.2981333293569
 20
1070.261696162393
 10
283.457456132867
 20
1070.0540626423867
 10
283.5980762113533
 20
1069.8333333333335
 10
283.71892336110994
 20
1069.6011881185557
 10
283.81907786235774
 20
1069.3593937633104
 10
283.8977774788672
 20
1069.109790468641
 10
283.9544232590366
 20
1068.8542778663343
 10
283.9885840942752
 20
1068.5948005615764
 10
284.0
 20
1068.3333333333335
  0
LWPOLYLINE
  5
3E
330
17
100
AcDbEntity
  8
DRAWING
  6
CONTINUOUS
420
1118481
100
AcDbPolyline
 90
73
 70
1
 10
284.0
 20
327.5000000000001
 10
283.9885840942752
 20
327.23853277175715
 10
283.9544232590366
 20
326.9790554669993
 10
283.8977774788672
 20
326.7235428646926
 10
283.81907786235774
 20
326.47393957002316
 10
283.71892336110994
 20
326.23214521477803
 10
283.5980762113533
 20
326.0000000000001
 10
283.457456132867
 20
325.779270690947
 10
283.2981333293569
 20
325.57163717094045
 10
283.12132034355966
 20
325.37867965644045
 10
282.9283628290596
 20
325.2018666706432
 10
282.7207293090531
 20
325.0425438671332
 10
282.5
 20
324.90192378864685
 10
282.2678547852221
 20
324.7810766388901
 10
282.026060429977
 20
324.68092213764237
 10
281.77645713530757
 20
324.60222252113294
 10
281.5209445330008
 20
324.5455767409635
 10
281.26146722824296
 20
324.5114159057249
 10
281.0
 20
324.5000000000001
 10
280.73853277175704
 20
324.5114159057249
 10
280.4790554669992
 20
324.5455767409635
 10
280.22354286469243
 20
324.60222252113294
 10
279.973939570023
 20
324.68092213764237
 10
279.7321452147779
 20
324.7810766388901
 10
279.5
 20
324.90192378864685
 10
279.2792706909469
 20
325.0425438671332
 10
279.0716371709404
 20
325.2018666706432
 10
278.87867965644034
 20
325.37867965644045
 10
278.7018666706431
 20
325.57163717094045
 10
278.542543867133
 20
325.779270690947
 10
278.4019237886467
 20
326.0000000000001
 10
278.28107663889006
 20
326.23214521477803
 10
278.18092213764226
 20
326.47393957002316
 10
278.1022225211328
 20
326.7235428646926
 10
278.0455767409634
 20
326.9790554669993
 10
278.0114159057248
 20
327.23853277175715
 10
278.0
 20
327.5000000000001
 10
278.0114159057248
 20
327.7614672282431
 10
278.0455767409634
 20
328.02094453300094
 10
278.1022225211328
 20
328.2764571353076
 10
278.18092213764226
 20
328.52606042997706
 10
278.28107663889006
 20
328.7678547852222
 10
278.4019237886467
 20
329.0000000000001
 10
278.542543867133
 20
329.22072930905324
 10
278.7018666706431
 20
329.4283628290598
 10
278.87867965644034
 20
329.6213203435598
 10
279.0716371709404
 20
329.79813332935703
 10
279.2792706909469
 20
329.95745613286704
 10
279.5
 20
330.0980762113534
 10
279.7321452147779
 20
330.2189233611101
 10
279.973939570023
 20
330.31907786235786
 10
280.22354286469243
 20
330.3977774788673
 10
280.4790554669992
 20
330.45442325903673
 10
280.73853277175704
 20
330.4885840942753
 10
281.0
 20
330.5000000000001
 10
281.26146722824296
 20
330.4885840942753
 10
281.5209445330008
 20
330.45442325903673
 10
281.77645713530757
 20
330.3977774788673
 10
282.026060429977
 20
330.31907786235786
 10
282.2678547852221
 20
330.2189233611101
 10
282.5
 20
330.0980762113534
 10
282.7207293090531
 20
329.95745613286704
 10
282.9283628290596
 20
329.79813332935703
 10
283.12132034355966
 20
329.6213203435598
 10
283.2981333293569
 20
329.4283628290598
 10
283.457456132867
 20
329.22072930905324
 10
283.5980762113533
 20
329.0000000000001
 10
283.71892336110994
 20
328.7678547852222
 10
283.81907786235774
 20
328.5260604299772
 10
283.8977774788672
 20
328.2764571353076
 10
283.9544232590366
 20
328.02094453300094
 10
283.9885840942752
 20
327.7614672282431
 10
284.0
 20
327.5000000000001
  0
LWPOLYLINE
  5
3F
330
17
100
AcDbEntity
  8
DRAWING
  6
CONTINUOUS
420
1118481
100
AcDbPolyline
 90
73
 70
1
 10
344.0
 20
1068.3333333333335
 10
343.9885840942752
 20
1068.0718661050905
 10
343.9544232590366
 20
1067.8123888003327
 10
343.8977774788672
 20
1067.556876198026
 10
343.81907786235774
 20
1067.3072729033565
 10
343.71892336110994
 20
1067.0654785481113
 10
343.5980762113533
 20
1066.8333333333335
 10
343.457456132867
 20
1066.6126040242802
 10
343.2981333293569
 20
1066.404970504274
 10
343.12132034355966
 20
1066.212012989774
 10
342.9283628290596
 20
1066.0352000039766
 10
342.7207293090531
 20
1065.8758772004664
 10
342.5
 20
1065.73525712198
 10
342.2678547852221
 20
1065.6144099722235
 10
342.026060429977
 20
1065.5142554709757
 10
341.77645713530757
 20
1065.4355558544662
 10
341.5209445330008
 20
1065.3789100742968
 10
341.26146722824296
 20
1065.3447492390583
 10
341.0
 20
1065.3333333333335
 10
340.73853277175704
 20
1065.3447492390583
 10
340.4790554669992
 20
1065.3789100742968
 10
340.22354286469243
 20
1065.4355558544662
 10
339.973939570023
 20
1065.5142554709757
 10
339.7321452147779
 20
1065.6144099722235
 10
339.5
 20
1065.73525712198
 10
339.2792706909469
 20
1065.8758772004664
 10
339.0716371709404
 20
1066.0352000039766
 10
338.87867965644034
 20
1066.212012989774
 10
338.7018666706431
 20
1066.404970504274
 10
338.542543867133
 20
1066.6126040242802
 10
338.4019237886467
 20
1066.8333333333335
 10
338.28107663889006
 20
1067.0654785481113
 10
338.18092213764226
 20
1067.3072729033565
 10
338.1022225211328
 20
1067.556876198026
 10
338.0455767409634
 20
1067.8123888003327
 10
338.0114159057248
 20
1068.0718661050905
 10
338.0
 20
1068.3333333333335
 10
338.0114159057248
 20
1068.5948005615764
 10
338.0455767409634
 20
1068.8542778663343
 10
338.1022225211328
 20
1069.109790468641
 10
338.18092213764226
 20
1069.3593937633104
 10
338.28107663889006
 20
1069.6011881185557
 10
338.4019237886467
 20
1069.8333333333335
 10
338.542543867133
 20
1070.0540626423867
 10
338.7018666706431
 20
1070.261696162393
 10
338.87867965644034
 20
1070.454653676893
 10
339.0716371709404
 20
1070.6314666626904
 10
339.2792706909469
 20
1070.7907894662005
 10
339.5
 20
1070.9314095446869
 10
339.7321452147779
 20
1071.0522566944435
 10
339.973939570023
 20
1071.1524111956912
 10
340.22354286469243
 20
1071.2311108122008
 10
340.4790554669992
 20
1071.2877565923702
 10
340.73853277175704
 20
1071.3219174276087
 10
341.0
 20
1071.3333333333335
 10
341.26146722824296
 20
1071.3219174276087
 10
341.5209445330008
 20
1071.2877565923702
 10
341.77645713530757
 20
1071.2311108122008
 10
342.026060429977
 20
1071.1524111956912
 10
342.2678547852221
 20
1071.0522566944435
 10
342.5
 20
1070.9314095446869
 10
342.7207293090531
 20
1070.7907894662005
 10
342.9283628290596
 20
1070.6314666626904
 10
343.12132034355966
 20
1070.454653676893
 10
343.2981333293569
 20
1070.261696162393
 10
343.457456132867
 20
1070.0540626423867
 10
343.5980762113533
 20
1069.8333333333335
 10
343.71892336110994
 20
1069.6011881185557
 10
343.81907786235774
 20
1069.3593937633104
 10
343.8977774788672
 20
1069.109790468641
 10
343.9544232590366
 20
1068.8542778663343
 10
343.9885840942752
 20
1068.5948005615764
 10
344.0
 20
1068.3333333333335
  0
LWPOLYLINE
  5
40
330
17
100
AcDbEntity
  8
DRAWING
  6
CONTINUOUS
420
1118481
100
AcDbPolyline
 90
73
 70
1
 10
344.0
 20
327.5000000000001
 10
343.9885840942752
 20
327.23853277175715
 10
343.9544232590366
 20
326.9790554669993
 10
343.8977774788672
 20
326.7235428646926
 10
343.81907786235774
 20
326.47393957002316
 10
343.71892336110994
 20
326.23214521477803
 10
343.5980762113533
 20
326.0000000000001
 10
343.457456132867
 20
325.779270690947
 10
343.2981333293569
 20
325.57163717094045
 10
343.12132034355966
 20
325.37867965644045
 10
342.9283628290596
 20
325.2018666706432
 10
342.7207293090531
 20
325.0425438671332
 10
342.5
 20
324.90192378864685
 10
342.2678547852221
 20
324.7810766388901
 10
342.026060429977
 20
324.68092213764237
 10
341.77645713530757
 20
324.60222252113294
 10
341.5209445330008
 20
324.5455767409635
 10
341.26146722824296
 20
324.5114159057249
 10
341.0
 20
324.5000000000001
 10
340.73853277175704
 20
324.5114159057249
 10
340.4790554669992
 20
324.5455767409635
 10
340.22354286469243
 20
324.60222252113294
 10
339.973939570023
 20
324.68092213764237
 10
339.7321452147779
 20
324.7810766388901
 10
339.5
 20
324.90192378864685
 10
339.2792706909469
 20
325.0425438671332
 10
339.0716371709404
 20
325.2018666706432
 10
338.87867965644034
 20
325.37867965644045
 10
338.7018666706431
 20
325.57163717094045
 10
338.542543867133
 20
325.779270690947
 10
338.4019237886467
 20
326.0000000000001
 10
338.28107663889006
 20
326.23214521477803
 10
338.18092213764226
 20
326.47393957002316
 10
338.1022225211328
 20
326.7235428646926
 10
338.0455767409634
 20
326.9790554669993
 10
338.0114159057248
 20
327.23853277175715
 10
338.0
 20
327.5000000000001
 10
338.0114159057248
 20
327.7614672282431
 10
338.0455767409634
 20
328.02094453300094
 10
338.1022225211328
 20
328.2764571353076
 10
338.18092213764226
 20
328.52606042997706
 10
338.28107663889006
 20
328.7678547852222
 10
338.4019237886467
 20
329.0000000000001
 10
338.542543867133
 20
329.22072930905324
 10
338.7018666706431
 20
329.4283628290598
 10
338.87867965644034
 20
329.6213203435598
 10
339.0716371709404
 20
329.79813332935703
 10
339.2792706909469
 20
329.95745613286704
 10
339.5
 20
330.0980762113534
 10
339.7321452147779
 20
330.2189233611101
 10
339.973939570023
 20
330.31907786235786
 10
340.22354286469243
 20
330.3977774788673
 10
340.4790554669992
 20
330.45442325903673
 10
340.73853277175704
 20
330.4885840942753
 10
341.0
 20
330.5000000000001
 10
341.26146722824296
 20
330.4885840942753
 10
341.5209445330008
 20
330.45442325903673
 10
341.77645713530757
 20
330.3977774788673
 10
342.026060429977
 20
330.31907786235786
 10
342.2678547852221
 20
330.2189233611101
 10
342.5
 20
330.0980762113534
 10
342.7207293090531
 20
329.95745613286704
 10
342.9283628290596
 20
329.79813332935703
 10
343.12132034355966
 20
329.6213203435598
 10
343.2981333293569
 20
329.4283628290598
 10
343.457456132867
 20
329.22072930905324
 10
343.5980762113533
 20
329.0000000000001
 10
343.71892336110994
 20
328.7678547852222
 10
343.81907786235774
 20
328.5260604299772
 10
343.8977774788672
 20
328.2764571353076
 10
343.9544232590366
 20
328.02094453300094
 10
343.9885840942752
 20
327.7614672282431
 10
344.0
 20
327.5000000000001
  0
LWPOLYLINE
  5
41
330
17
100
AcDbEntity
  8
DRAWING
  6
CONTINUOUS
420
1118481
100
AcDbPolyline
 90
73
 70
1
 10
404.0
 20
1068.3333333333335
 10
403.9885840942752
 20
1068.0718661050905
 10
403.9544232590366
 20
1067.8123888003327
 10
403.8977774788672
 20
1067.556876198026
 10
403.81907786235774
 20
1067.3072729033565
 10
403.71892336110994
 20
1067.0654785481113
 10
403.5980762113533
 20
1066.8333333333335
 10
403.457456132867
 20
1066.6126040242802
 10
403.2981333293569
 20
1066.404970504274
 10
403.12132034355966
 20
1066.212012989774
 10
402.9283628290596
 20
1066.0352000039766
 10
402.7207293090531
 20
1065.8758772004664
 10
402.5
 20
1065.73525712198
 10
402.2678547852221
 20
1065.6144099722235
 10
402.026060429977
 20
1065.5142554709757
 10
401.77645713530757
 20
1065.4355558544662
 10
401.5209445330008
 20
1065.3789100742968
 10
401.26146722824296
 20
1065.3447492390583
 10
401.0
 20
1065.3333333333335
 10
400.73853277175704
 20
1065.3447492390583
 10
400.4790554669992
 20
1065.3789100742968
 10
400.22354286469243
 20
1065.4355558544662
 10
399.973939570023
 20
1065.5142554709757
 10
399.7321452147779
 20
1065.6144099722235
 10
399.5
 20
1065.73525712198
 10
399.2792706909469
 20
1065.8758772004664
 10
399.0716371709404
 20
1066.0352000039766
 10
398.87867965644034
 20
1066.212012989774
 10
398.7018666706431
 20
1066.404970504274
 10
398.542543867133
 20
1066.6126040242802
 10
398.4019237886467
 20
1066.8333333333335
 10
398.28107663889006
 20
1067.0654785481113
 10
398.18092213764226
 20
1067.3072729033565
 10
398.1022225211328
 20
1067.556876198026
 10
398.0455767409634
 20
1067.8123888003327
 10
398.0114159057248
 20
1068.0718661050905
 10
398.0
 20
1068.3333333333335
 10
398.0114159057248
 20
1068.5948005615764
 10
398.0455767409634
 20
1068.8542778663343
 10
398.1022225211328
 20
1069.109790468641
 10
398.18092213764226
 20
1069.3593937633104
 10
398.28107663889006
 20
1069.6011881185557
 10
398.4019237886467
 20
1069.8333333333335
 10
398.542543867133
 20
1070.0540626423867
 10
398.7018666706431
 20
1070.261696162393
 10
398.87867965644034
 20
1070.454653676893
 10
399.0716371709404
 20
1070.6314666626904
 10
399.2792706909469
 20
1070.7907894662005
 10
399.5
 20
1070.9314095446869
 10
399.7321452147779
 20
1071.0522566944435
 10
399.973939570023
 20
1071.1524111956912
 10
400.22354286469243
 20
1071.2311108122008
 10
400.4790554669992
 20
1071.2877565923702
 10
400.73853277175704
 20
1071.3219174276087
 10
401.0
 20
1071.3333333333335
 10
401.26146722824296
 20
1071.3219174276087
 10
401.5209445330008
 20
1071.2877565923702
 10
401.77645713530757
 20
1071.2311108122008
 10
402.026060429977
 20
1071.1524111956912
 10
402.2678547852221
 20
1071.0522566944435
 10
402.5
 20
1070.9314095446869
 10
402.7207293090531
 20
1070.7907894662005
 10
402.9283628290596
 20
1070.6314666626904
 10
403.12132034355966
 20
1070.454653676893
 10
403.2981333293569
 20
1070.261696162393
 10
403.457456132867
 20
1070.0540626423867
 10
403.5980762113533
 20
1069.8333333333335
 10
403.71892336110994
 20
1069.6011881185557
 10
403.81907786235774
 20
1069.3593937633104
 10
403.8977774788672
 20
1069.109790468641
 10
403.9544232590366
 20
1068.8542778663343
 10
403.9885840942752
 20
1068.5948005615764
 10
404.0
 20
1068.3333333333335
  0
LWPOLYLINE
  5
42
330
17
100
AcDbEntity
  8
DRAWING
  6
CONTINUOUS
420
1118481
100
AcDbPolyline
 90
73
 70
1
 10
404.0
 20
327.5000000000001
 10
403.9885840942752
 20
327.23853277175715
 10
403.9544232590366
 20
326.9790554669993
 10
403.8977774788672
 20
326.7235428646926
 10
403.81907786235774
 20
326.47393957002316
 10
403.71892336110994
 20
326.23214521477803
 10
403.5980762113533
 20
326.0000000000001
 10
403.457456132867
 20
325.779270690947
 10
403.2981333293569
 20
325.57163717094045
 10
403.12132034355966
 20
325.37867965644045
 10
402.9283628290596
 20
325.2018666706432
 10
402.7207293090531
 20
325.0425438671332
 10
402.5
 20
324.90192378864685
 10
402.2678547852221
 20
324.7810766388901
 10
402.026060429977
 20
324.68092213764237
 10
401.77645713530757
 20
324.60222252113294
 10
401.5209445330008
 20
324.5455767409635
 10
401.26146722824296
 20
324.5114159057249
 10
401.0
 20
324.5000000000001
 10
400.73853277175704
 20
324.5114159057249
 10
400.4790554669992
 20
324.5455767409635
 10
400.22354286469243
 20
324.60222252113294
 10
399.973939570023
 20
324.68092213764237
 10
399.7321452147779
 20
324.7810766388901
 10
399.5
 20
324.90192378864685
 10
399.2792706909469
 20
325.0425438671332
 10
399.0716371709404
 20
325.2018666706432
 10
398.87867965644034
 20
325.37867965644045
 10
398.7018666706431
 20
325.57163717094045
 10
398.542543867133
 20
325.779270690947
 10
398.4019237886467
 20
326.0000000000001
 10
398.28107663889006
 20
326.23214521477803
 10
398.18092213764226
 20
326.47393957002316
 10
398.1022225211328
 20
326.7235428646926
 10
398.0455767409634
 20
326.9790554669993
 10
398.0114159057248
 20
327.23853277175715
 10
398.0
 20
327.5000000000001
 10
398.0114159057248
 20
327.7614672282431
 10
398.0455767409634
 20
328.02094453300094
 10
398.1022225211328
 20
328.2764571353076
 10
398.18092213764226
 20
328.52606042997706
 10
398.28107663889006
 20
328.7678547852222
 10
398.4019237886467
 20
329.0000000000001
 10
398.542543867133
 20
329.22072930905324
 10
398.7018666706431
 20
329.4283628290598
 10
398.87867965644034
 20
329.6213203435598
 10
399.0716371709404
 20
329.79813332935703
 10
399.2792706909469
 20
329.95745613286704
 10
399.5
 20
330.0980762113534
 10
399.7321452147779
 20
330.2189233611101
 10
399.973939570023
 20
330.31907786235786
 10
400.22354286469243
 20
330.3977774788673
 10
400.4790554669992
 20
330.45442325903673
 10
400.73853277175704
 20
330.4885840942753
 10
401.0
 20
330.5000000000001
 10
401.26146722824296
 20
330.4885840942753
 10
401.5209445330008
 20
330.45442325903673
 10
401.77645713530757
 20
330.3977774788673
 10
402.026060429977
 20
330.31907786235786
 10
402.2678547852221
 20
330.2189233611101
 10
402.5
 20
330.0980762113534
 10
402.7207293090531
 20
329.95745613286704
 10
402.9283628290596
 20
329.79813332935703
 10
403.12132034355966
 20
329.6213203435598
 10
403.2981333293569
 20
329.4283628290598
 10
403.457456132867
 20
329.22072930905324
 10
403.5980762113533
 20
329.0000000000001
 10
403.71892336110994
 20
328.7678547852222
 10
403.81907786235774
 20
328.5260604299772
 10
403.8977774788672
 20
328.2764571353076
 10
403.9544232590366
 20
328.02094453300094
 10
403.9885840942752
 20
327.7614672282431
 10
404.0
 20
327.5000000000001
  0
LINE
  5
43
330
17
100
AcDbEntity
  8
DRAWING
  6
CONTINUOUS
420
4473924
100
AcDbLine
 10
120.0
 20
1075.8333333333335
 30
0.0
 11
142.5
 21
1075.8333333333335
 31
0.0
  0
LINE
  5
44
330
17
100
AcDbEntity
  8
DRAWING
  6
CONTINUOUS
420
4473924
100
AcDbLine
 10
142.5
 20
1075.8333333333335
 30
0.0
 11
142.5
 21
1062.3333333333335
 31
0.0
  0
LINE
  5
45
330
17
100
AcDbEntity
  8
DRAWING
  6
CONTINUOUS
420
4473924
100
AcDbLine
 10
142.5
 20
1062.3333333333335
 30
0.0
 11
120.0
 21
1062.3333333333335
 31
0.0
  0
LINE
  5
46
330
17
100
AcDbEntity
  8
DRAWING
  6
CONTINUOUS
420
4473924
100
AcDbLine
 10
120.0
 20
1062.3333333333335
 30
0.0
 11
120.0
 21
1075.8333333333335
 31
0.0
  0
LINE
  5
47
330
17
100
AcDbEntity
  8
DRAWING
  6
CONTINUOUS
420
4473924
100
AcDbLine
 10
419.5
 20
1075.8333333333335
 30
0.0
 11
442.0
 21
1075.8333333333335
 31
0.0
  0
LINE
  5
48
330
17
100
AcDbEntity
  8
DRAWING
  6
CONTINUOUS
420
4473924
100
AcDbLine
 10
442.0
 20
1075.8333333333335
 30
0.0
 11
442.0
 21
1062.3333333333335
 31
0.0
  0
LINE
  5
49
330
17
100
AcDbEntity
  8
DRAWING
  6
CONTINUOUS
420
4473924
100
AcDbLine
 10
442.0
 20
1062.3333333333335
 30
0.0
 11
419.5
 21
1062.3333333333335
 31
0.0
  0
LINE
  5
4A
330
17
100
AcDbEntity
  8
DRAWING
  6
CONTINUOUS
420
4473924
100
AcDbLine
 10
419.5
 20
1062.3333333333335
 30
0.0
 11
419.5
 21
1075.8333333333335
 31
0.0
  0
LINE
  5
4B
330
17
100
AcDbEntity
  8
DRAWING
  6
CONTINUOUS
420
4473924
100
AcDbLine
 10
120.0
 20
333.5000000000001
 30
0.0
 11
142.5
 21
333.5000000000001
 31
0.0
  0
LINE
  5
4C
330
17
100
AcDbEntity
  8
DRAWING
  6
CONTINUOUS
420
4473924
100
AcDbLine
 10
142.5
 20
333.5000000000001
 30
0.0
 11
142.5
 21
320.0000000000001
 31
0.0
  0
LINE
  5
4D
330
17
100
AcDbEntity
  8
DRAWING
  6
CONTINUOUS
420
4473924
100
AcDbLine
 10
142.5
 20
320.0000000000001
 30
0.0
 11
120.0
 21
320.0000000000001
 31
0.0
  0
LINE
  5
4E
330
17
100
AcDbEntity
  8
DRAWING
  6
CONTINUOUS
420
4473924
100
AcDbLine
 10
120.0
 20
320.0000000000001
 30
0.0
 11
120.0
 21
333.5000000000001
 31
0.0
  0
LINE
  5
4F
330
17
100
AcDbEntity
  8
DRAWING
  6
CONTINUOUS
420
4473924
100
AcDbLine
 10
419.5
 20
333.5000000000001
 30
0.0
 11
442.0
 21
333.5000000000001
 31
0.0
  0
LINE
  5
50
330
17
100
AcDbEntity
  8
DRAWING
  6
CONTINUOUS
420
4473924
100
AcDbLine
 10
442.0
 20
333.5000000000001
 30
0.0
 11
442.0
 21
320.0000000000001
 31
0.0
  0
LINE
  5
51
330
17
100
AcDbEntity
  8
DRAWING
  6
CONTINUOUS
420
4473924
100
AcDbLine
 10
442.0
 20
320.0000000000001
 30
0.0
 11
419.5
 21
320.0000000000001
 31
0.0
  0
LINE
  5
52
330
17
100
AcDbEntity
  8
DRAWING
  6
CONTINUOUS
420
4473924
100
AcDbLine
 10
419.5
 20
320.0000000000001
 30
0.0
 11
419.5
 21
333.5000000000001
 31
0.0
  0
LINE
  5
53
330
17
100
AcDbEntity
  8
DRAWING
  6
CONTINUOUS
420
1118481
100
AcDbLine
 10
120.0
 20
1075.8333333333335
 30
0.0
 11
442.0
 21
1075.8333333333335
 31
0.0
  0
LINE
  5
54
330
17
100
AcDbEntity
  8
DRAWING
  6
CONTINUOUS
420
1118481
100
AcDbLine
 10
442.0
 20
1075.8333333333335
 30
0.0
 11
442.0
 21
320.0000000000001
 31
0.0
  0
LINE
  5
55
330
17
100
AcDbEntity
  8
DRAWING
  6
CONTINUOUS
420
1118481
100
AcDbLine
 10
442.0
 20
320.0000000000001
 30
0.0
 11
120.0
 21
320.0000000000001
 31
0.0
  0
LINE
  5
56
330
17
100
AcDbEntity
  8
DRAWING
  6
CONTINUOUS
420
1118481
100
AcDbLine
 10
120.0
 20
320.0000000000001
 30
0.0
 11
120.0
 21
1075.8333333333335
 31
0.0
  0
LINE
  5
57
330
17
100
AcDbEntity
  8
DRAWING
  6
CONTINUOUS
420
16738816
100
AcDbLine
 10
120.0
 20
1075.8333333333335
 30
0.0
 11
120.0
 21
1120.8333333333335
 31
0.0
  0
LINE
  5
58
330
17
100
AcDbEntity
  8
DRAWING
  6
CONTINUOUS
420
16738816
100
AcDbLine
 10
442.0
 20
1075.8333333333335
 30
0.0
 11
442.0
 21
1120.8333333333335
 31
0.0
  0
LINE
  5
59
330
17
100
AcDbEntity
  8
DRAWING
  6
CONTINUOUS
420
16738816
100
AcDbLine
 10
120.0
 20
1120.8333333333335
 30
0.0
 11
442.0
 21
1120.8333333333335
 31
0.0
  0
TEXT
  5
5A
330
17
100
AcDbEntity
  8
TEXT
420
16738816
100
AcDbText
 10
281.0
 20
1135.8333333333335
 30
0.0
 40
10.0
  1
322.0
 72
1
 11
281.0
 21
1135.8333333333335
 31
0.0
100
AcDbText
 73
2
  0
LINE
  5
5B
330
17
100
AcDbEntity
  8
DRAWING
  6
CONTINUOUS
420
16738816
100
AcDbLine
 10
442.0
 20
1075.8333333333335
 30
0.0
 11
492.0
 21
1075.8333333333335
 31
0.0
  0
LINE
  5
5C
330
17
100
AcDbEntity
  8
DRAWING
  6
CONTINUOUS
420
16738816
100
AcDbLine
 10
442.0
 20
320.0000000000001
 30
0.0
 11
492.0
 21
320.0000000000001
 31
0.0
  0
LINE
  5
5D
330
17
100
AcDbEntity
  8
DRAWING
  6
CONTINUOUS
420
16738816
100
AcDbLine
 10
492.0
 20
1075.8333333333335
 30
0.0
 11
492.0
 21
320.0000000000001
 31
0.0
  0
TEXT
  5
5E
330
17
100
AcDbEntity
  8
TEXT
420
16738816
100
AcDbText
 10
547.0
 20
697.9166666666667
 30
0.0
 40
10.0
  1
755.8
 72
1
 11
547.0
 21
697.9166666666667
 31
0.0
100
AcDbText
 73
2
  0
TEXT
  5
5F
330
17
100
AcDbEntity
  8
TEXT
420
1118481
100
AcDbText
 10
281.0
 20
255.0000000000001
 30
0.0
 40
13.0
  1
TOP / BOTTOM PLATE  (25001232-TP)
 72
1
 11
281.0
 21
255.0000000000001
 31
0.0
100
AcDbText
 73
2
  0
TEXT
  5
60
330
17
100
AcDbEntity
  8
TEXT
420
1118481
100
AcDbText
 10
350.0
 20
210.0000000000001
 30
0.0
 40
10.0
  1
Job Order No.: 252600912
 72
1
 11
350.0
 21
210.0000000000001
 31
0.0
100
AcDbText
 73
2
  0
TEXT
  5
61
330
17
100
AcDbEntity
  8
TEXT
420
1118481
100
AcDbText
 10
350.0
 20
188.0000000000001
 30
0.0
 40
10.0
  1
Coil Unique ID: 25001232
 72
1
 11
350.0
 21
188.0000000000001
 31
0.0
100
AcDbText
 73
2
  0
TEXT
  5
62
330
17
100
AcDbEntity
  8
TEXT
420
1118481
100
AcDbText
 10
350.0
 20
166.0000000000001
 30
0.0
 40
10.0
  1
Coil Type: CHW
 72
1
 11
350.0
 21
166.0000000000001
 31
0.0
100
AcDbText
 73
2
  0
TEXT
  5
63
330
17
100
AcDbEntity
  8
TEXT
420
1118481
100
AcDbText
 10
350.0
 20
144.0000000000001
 30
0.0
 40
10.0
  1
Connection: LHS
 72
1
 11
350.0
 21
144.0000000000001
 31
0.0
100
AcDbText
 73
2
  0
TEXT
  5
64
330
17
100
AcDbEntity
  8
COIL_META
420
6710886
100
AcDbText
 10
0.0
 20
-1000000.0
 30
0.0
 40
2.5
  1
COIL_HELVIX_DIMS:{"coil_type":"CHW","coil_unique_id":"25001232","coil_width":280.0,"connection_side":"LHS","fin_length":2200.0,"first_bend_top_plate":12.0,"job_order_no":"252600912","number_of_splits":3.0,"sheet_metal_thickness":1.5,"top_plate":15.0}
100
AcDbText
  0
ENDSEC
  0
SECTION
  2
OBJECTS
  0
DICTIONARY
  5
A
330
0
100
AcDbDictionary
281
1
  3
ACAD_COLOR
350
B
  3
ACAD_GROUP
350
C
  3
ACAD_LAYOUT
350
D
  3
ACAD_MATERIAL
350
E
  3
ACAD_MLEADERSTYLE
350
F
  3
ACAD_MLINESTYLE
350
10
  3
ACAD_PLOTSETTINGS
350
11
  3
ACAD_PLOTSTYLENAME
350
12
  3
ACAD_SCALELIST
350
14
  3
ACAD_TABLESTYLE
350
15
  3
ACAD_VISUALSTYLE
350
16
  3
EZDXF_META
350
2D
  0
DICTIONARY
  5
B
330
A
100
AcDbDictionary
281
1
  0
DICTIONARY
  5
C
330
A
100
AcDbDictionary
281
1
  0
DICTIONARY
  5
D
330
A
100
AcDbDictionary
281
1
  3
Model
350
1A
  3
Layout1
350
1E
  0
DICTIONARY
  5
E
330
A
100
AcDbDictionary
281
1
  3
ByBlock
350
1F
  3
ByLayer
350
20
  3
Global
350
21
  0
DICTIONARY
  5
F
330
A
100
AcDbDictionary
281
1
  3
Standard
350
2C
  0
DICTIONARY
  5
10
330
A
100
AcDbDictionary
281
1
  3
Standard
350
22
  0
DICTIONARY
  5
11
330
A
100
AcDbDictionary
281
1
  0
ACDBDICTIONARYWDFLT
  5
12
330
A
100
AcDbDictionary
281
1
  3
Normal
350
13
100
AcDbDictionaryWithDefault
340
13
  0
ACDBPLACEHOLDER
  5
13
330
12
  0
DICTIONARY
  5
14
330
A
100
AcDbDictionary
281
1
  0
DICTIONARY
  5
15
330
A
100
AcDbDictionary
281
1
  0
DICTIONARY
  5
16
330
A
100
AcDbDictionary
281
1
  0
LAYOUT
  5
1A
330
D
100
AcDbPlotSettings
  1

  4
A3
  6

 40
7.5
 41
20.0
 42
7.5
 43
20.0
 44
420.0
 45
297.0
 46
0.0
 47
0.0
 48
0.0
 49
0.0
140
0.0
141
0.0
142
1.0
143
1.0
 70
1024
 72
1
 73
0
 74
5
  7

 75
16
 76
0
 77
2
 78
300
147
1.0
148
0.0
149
0.0
100
AcDbLayout
  1
Model
 70
1
 71
0
 10
0.0
 20
0.0
 11
420.0
 21
297.0
 12
0.0
 22
0.0
 32
0.0
 14
1e+20
 24
1e+20
 34
1e+20
 15
-1e+20
 25
-1e+20
 35
-1e+20
146
0.0
 13
0.0
 23
0.0
 33
0.0
 16
1.0
 26
0.0
 36
0.0
 17
0.0
 27
1.0
 37
0.0
 76
1
330
17
  0
LAYOUT
  5
1E
330
D
100
AcDbPlotSettings
  1

  4
A3
  6

 40
7.5
 41
20.0
 42
7.5
 43
20.0
 44
420.0
 45
297.0
 46
0.0
 47
0.0
 48
0.0
 49
0.0
140
0.0
141
0.0
142
1.0
143
1.0
 70
0
 72
1
 73
0
 74
5
  7

 75
16
 76
0
 77
2
 78
300
147
1.0
148
0.0
149
0.0
100
AcDbLayout
  1
Layout1
 70
1
 71
1
 10
0.0
 20
0.0
 11
420.0
 21
297.0
 12
0.0
 22
0.0
 32
0.0
 14
1e+20
 24
1e+20
 34
1e+20
 15
-1e+20
 25
-1e+20
 35
-1e+20
146
0.0
 13
0.0
 23
0.0
 33
0.0
 16
1.0
 26
0.0
 36
0.0
 17
0.0
 27
1.0
 37
0.0
 76
1
330
1B
  0
MATERIAL
  5
1F
102
{ACAD_REACTORS
330
E
102
}
330
E
100
AcDbMaterial
  1
ByBlock
  2

 70
0
 40
1.0
 71
1
 41
1.0
 91
-1023410177
 42
1.0
 72
1
  3

 73
1
 74
1
 75
1
 44
0.5
 73
0
 45
1.0
 46
1.0
 77
1
  4

 78
1
 79
1
170
1
 48
1.0
171
1
  6

172
1
173
1
174
1
140
1.0
141
1.0
175
1
  7

176
1
177
1
178
1
143
1.0
179
1
  8

270
1
271
1
272
1
145
1.0
146
1.0
273
1
  9

274
1
275
1
276
1
 42
1.0
 72
1
  3

 73
1
 74
1
 75
1
 94
63
  0
MATERIAL
  5
20
102
{ACAD_REACTORS
330
E
102
}
330
E
100
AcDbMaterial
  1
ByLayer
  2

 70
0
 40
1.0
 71
1
 41
1.0
 91
-1023410177
 42
1.0
 72
1
  3

 73
1
 74
1
 75
1
 44
0.5
 73
0
 45
1.0
 46
1.0
 77
1
  4

 78
1
 79
1
170
1
 48
1.0
171
1
  6

172
1
173
1
174
1
140
1.0
141
1.0
175
1
  7

176
1
177
1
178
1
143
1.0
179
1
  8

270
1
271
1
272
1
145
1.0
146
1.0
273
1
  9

274
1
275
1
276
1
 42
1.0
 72
1
  3

 73
1
 74
1
 75
1
 94
63
  0
MATERIAL
  5
21
102
{ACAD_REACTORS
330
E
102
}
330
E
100
AcDbMaterial
  1
Global
  2

 70
0
 40
1.0
 71
1
 41
1.0
 91
-1023410177
 42
1.0
 72
1
  3

 73
1
 74
1
 75
1
 44
0.5
 73
0
 45
1.0
 46
1.0
 77
1
  4

 78
1
 79
1
170
1
 48
1.0
171
1
  6

172
1
173
1
174
1
140
1.0
141
1.0
175
1
  7

176
1
177
1
178
1
143
1.0
179
1
  8

270
1
271
1
272
1
145
1.0
146
1.0
273
1
  9

274
1
275
1
276
1
 42
1.0
 72
1
  3

 73
1
 74
1
 75
1
 94
63
  0
MLINESTYLE
  5
22
102
{ACAD_REACTORS
330
10
102
}
330
10
100
AcDbMlineStyle
  2
Standard
 70
0
  3

 62
256
 51
90.0
 52
90.0
 71
2
 49
0.5
 62
256
  6
BYLAYER
 49
-0.5
 62
256
  6
BYLAYER
  0
MLEADERSTYLE
  5
2C
102
{ACAD_REACTORS
330
F
102
}
330
F
100
AcDbMLeaderStyle
179
2
170
2
171
1
172
0
 90
2
 40
0.0
 41
0.0
173
1
 91
-1056964608
 92
-2
290
1
 42
2.0
291
1
 43
8.0
  3
Standard
 44
4.0
300

342
29
174
1
175
1
176
0
178
1
 93
-1056964608
 45
4.0
292
0
297
0
 46
4.0
 94
-1056964608
 47
1.0
 49
1.0
140
1.0
294
1
141
0.0
177
0
142
1.0
295
0
296
0
143
3.75
271
0
272
9
273
9
  0
DICTIONARY
  5
2D
330
A
100
AcDbDictionary
280
1
281
1
  3
CREATED_BY_EZDXF
350
2E
  3
WRITTEN_BY_EZDXF
350
67
  0
DICTIONARYVAR
  5
2E
330
2D
100
DictionaryVariables
280
0
  1
1.4.3 @ 2026-06-11T17:41:23.148834+00:00
  0
DICTIONARYVAR
  5
67
330
2D
100
DictionaryVariables
280
0
  1
1.4.3 @ 2026-06-11T17:41:23.186557+00:00
  0
ENDSEC
  0
EOF
